<?xml version="1.0" standalone="no"?>
<!DOCTYPE svg PUBLIC "-//W3C//DTD SVG 1.1//EN" "http://www.w3.org/Graphics/SVG/1.1/DTD/svg11.dtd" >
<svg>
<metadata>
Created by FontForge 20090914 at Fri Apr 13 21:10:34 2012
 By www-data
2005 Erik Spiekermann published by FSI Fonts und Software GmbH
</metadata>
<defs>
<font id="MetaPro-Bold" horiz-adv-x="570" >
  <font-face 
    font-family="MetaPro-Bold"
    font-weight="700"
    font-stretch="normal"
    units-per-em="1000"
    panose-1="2 0 5 3 4 0 0 2 0 4"
    ascent="754"
    descent="-246"
    x-height="512"
    cap-height="695"
    bbox="-204 -307 1450 980"
    underline-thickness="20"
    underline-position="-142"
    unicode-range="U+000D-U+FB06"
  />
<missing-glyph horiz-adv-x="554" 
d="M57 0v695h440v-695h-440zM107 50h340v595h-340v-595z" />
    <glyph glyph-name="IJ" unicode="IJ" horiz-adv-x="573" 
d="M216 0h-146v695h146v-695zM503 135q0 -96 -10 -136q-14 -58 -60.5 -100t-101.5 -63l-65 72q61 37 81 84q14 32 14 128v575h142v-560z" />
    <glyph glyph-name="ij" unicode="ij" horiz-adv-x="537" 
d="M204 0h-134v503l134 21v-524zM220 653q0 -35 -24 -59t-59 -24q-34 0 -58 24.5t-24 58.5t24.5 58.5t59.5 24.5q34 0 57.5 -24t23.5 -59zM467 14q0 -110 -38 -159q-36 -47 -104 -75l-56 74q30 25 49 58q16 29 16 98v481l133 32v-509zM485 655q0 -35 -24.5 -59.5
t-59.5 -24.5q-34 0 -58 24t-24 58q0 35 24.5 59.5t58.5 24.5t58.5 -24t24.5 -58z" />
    <glyph glyph-name="uniFB00" unicode="ff" horiz-adv-x="600" 
d="M374 418h-168v-418h-131v418h-46v94h49q0 11 -2.5 34.5t-2.5 35.5q0 76 43 117.5t122 41.5q64 0 121 -32l-43 -83q-35 17 -55 17q-26 0 -41 -15.5t-15 -42.5v-73h169q0 11 -2.5 34.5t-2.5 35.5q0 76 43 117.5t122 41.5q69 0 111 -24l-43 -83q-20 9 -45 9q-26 0 -41 -15.5
t-15 -42.5v-73h123l-34 -94h-85v-418h-131v418z" />
    <glyph glyph-name="fi" unicode="fi" horiz-adv-x="586" 
d="M511 0h-134v418h-171v-418h-131v418h-46v94h49q0 11 -2.5 34.5t-2.5 35.5q0 76 43 117.5t122 41.5q69 0 111 -24l-43 -83q-20 9 -45 9q-26 0 -41 -15.5t-15 -42.5v-73h306v-512zM527 653q0 -35 -24.5 -59t-58.5 -24t-58 24.5t-24 58.5t24.5 58.5t59.5 24.5q34 0 57.5 -24
t23.5 -59z" />
    <glyph glyph-name="fl" unicode="fl" horiz-adv-x="590" 
d="M346 717l-43 -83q-19 9 -45 9t-41 -15.5t-15 -42.5v-73h123l-34 -94h-85v-418h-131v418h-46v94h46q0 11 -2.5 34.5t-2.5 35.5q0 76 43 117.5t122 41.5q69 0 111 -24zM585 2q-36 -14 -80 -14q-43 0 -75 19t-44 51q-12 31 -12 115v382q0 90 -7 154l137 31q7 -39 7 -133
v-399q0 -98 9 -114q8 -14 27 -14q10 0 15 2z" />
    <glyph glyph-name="uniFB03" unicode="ffi" horiz-adv-x="888" 
d="M377 418h-171v-418h-131v418h-46v94h49q0 11 -2.5 34.5t-2.5 35.5q0 76 43 117.5t122 41.5q64 0 121 -32l-43 -83q-35 17 -55 17q-26 0 -41 -15.5t-15 -42.5v-73h175q0 11 -2.5 35.5t-2.5 34.5q0 76 43 117.5t122 41.5q69 0 111 -24l-43 -83q-20 9 -45 9q-26 0 -41 -15.5
t-15 -42.5v-73h306v-512h-134v418h-171v-418h-131v418zM748 736q34 0 57.5 -24t23.5 -59t-24.5 -59t-58.5 -24t-58 24.5t-24 58.5t24.5 58.5t59.5 24.5z" />
    <glyph glyph-name="uniFB04" unicode="ffl" horiz-adv-x="889" 
d="M374 418h-168v-418h-131v418h-46v94h49q0 11 -2.5 34.5t-2.5 35.5q0 76 43 117.5t122 41.5q64 0 121 -32l-43 -83q-35 17 -55 17q-26 0 -41 -15.5t-15 -42.5v-73h169q0 11 -2.5 34.5t-2.5 35.5q0 76 43 117.5t122 41.5q69 0 111 -24l-43 -83q-20 9 -45 9q-26 0 -41 -15.5
t-15 -42.5v-73h123l-34 -94h-85v-418h-131v418zM803 740q7 -39 7 -133v-399q0 -98 9 -114q8 -14 27 -14q8 0 15 2l23 -80q-36 -14 -80 -14q-43 0 -75 19t-44 51q-12 31 -12 115v382q0 90 -7 154z" />
    <glyph glyph-name="uniFB05" unicode="&#x17f;t" horiz-adv-x="656" 
d="M641 11q-56 -23 -109 -23q-51 0 -88.5 20.5t-49.5 54.5q-9 25 -9 79v278h-184v-420h-131v420h-46v92h49q-5 35 -5 70q0 76 43 117.5t122 41.5q64 0 121 -32l-43 -83q-35 17 -55 17q-26 0 -41 -15.5t-15 -42.5v-73h185q0 83 5 121l136 34q-8 -75 -8 -155h120l-34 -92h-86
v-257q0 -49 12 -65.5t46 -16.5q14 0 48 10z" />
    <glyph glyph-name=".notdef" horiz-adv-x="554" 
d="M57 0v695h440v-695h-440zM107 50h340v595h-340v-595z" />
    <glyph glyph-name=".null" horiz-adv-x="0" 
 />
    <glyph glyph-name=".null" horiz-adv-x="0" 
 />
    <glyph glyph-name="nonmarkingreturn" horiz-adv-x="333" 
 />
    <glyph glyph-name="CR" unicode="&#xd;" horiz-adv-x="225" 
 />
    <glyph glyph-name="space" unicode=" " horiz-adv-x="225" 
 />
    <glyph glyph-name="exclam" unicode="!" horiz-adv-x="305" 
d="M231 710l-28 -489h-102l-30 466zM235 70q0 -34 -24.5 -58.5t-59.5 -24.5q-34 0 -57.5 24t-23.5 59q0 34 24 58.5t59 24.5q34 0 58 -24.5t24 -58.5z" />
    <glyph glyph-name="quotedbl" unicode="&#x22;" horiz-adv-x="498" 
d="M428 426h-126v282h126v-282zM196 426h-126v282h126v-282z" />
    <glyph glyph-name="numbersign" unicode="#" horiz-adv-x="572" 
d="M537 417h-96l-17 -126h84v-90h-96l-28 -201h-97l28 201h-99l-28 -201h-97l28 201h-84v90h96l17 126h-84v90h96l28 201h97l-28 -201h99l28 201h97l-28 -201h84v-90zM344 417h-99l-17 -126h99z" />
    <glyph glyph-name="dollar" unicode="$" horiz-adv-x="594" 
d="M559 219q0 -96 -66 -158.5t-177 -73.5v-81h-86v81q-104 9 -195 61l52 109q107 -56 191 -56q122 0 122 95q0 65 -91 90l-77 21q-101 28 -137 88q-29 47 -29 106q0 86 57 144t152 69v72h86v-73q108 -11 186 -67l-66 -100q-88 53 -162 53q-43 0 -70 -22.5t-27 -57.5
q0 -27 17 -42.5t60 -27.5l84 -23q85 -23 130.5 -76.5t45.5 -130.5z" />
    <glyph glyph-name="percent" unicode="%" horiz-adv-x="850" 
d="M815 164q0 -82 -47 -128q-48 -46 -125 -46t-123 46.5t-46 125.5q0 78 46.5 126t122.5 48q81 0 128 -50q44 -44 44 -122zM376 533q0 -82 -47 -128q-48 -46 -125 -46t-123 46.5t-46 125.5q0 78 46.5 126t122.5 48q81 0 128 -50q44 -44 44 -122zM655 695l-364 -695h-95
l364 695h95zM265 535q0 61 -20 80q-16 16 -42 16q-37 0 -50 -30q-9 -22 -9 -67q0 -56 11 -75q16 -25 50 -25q32 0 46 24t14 77zM704 166q0 61 -20 80q-16 16 -42 16q-37 0 -50 -30q-9 -22 -9 -67q0 -56 11 -75q16 -25 50 -25q32 0 46 24t14 77z" />
    <glyph glyph-name="ampersand" unicode="&#x26;" horiz-adv-x="715" 
d="M715 0h-186l-42 42q-26 -22 -60 -36q-51 -20 -131 -20q-120 0 -185.5 49.5t-65.5 139.5q0 115 125 173q-50 39 -65 71q-16 34 -16 79q0 74 56 121t144 47q89 0 146 -44t57 -114q0 -57 -34 -96q-24 -26 -88 -62l-9 -5l116 -110q9 35 9 98v7h112v-6q0 -113 -32 -186z
M405 118l-163 157q-54 -33 -54 -92q0 -47 29.5 -73t82.5 -26q72 0 105 34zM352 506q0 29 -17.5 48t-44.5 19q-29 0 -46.5 -18t-17.5 -47q0 -22 10 -38.5t42 -49.5l8 -8q66 34 66 94z" />
    <glyph glyph-name="quotesingle" unicode="'" horiz-adv-x="266" 
d="M196 426h-126v282h126v-282z" />
    <glyph glyph-name="parenleft" unicode="(" horiz-adv-x="322" 
d="M337 -91l-35 -78q-73 25 -128 78.5t-86 128.5q-31 77 -40 206q-3 44 -3 78q0 107 20 190q22 93 90 167q62 66 145 102l35 -79q-35 -25 -54 -44q-53 -53 -75 -121q-19 -54 -23 -131q-2 -29 -2 -82q0 -71 8 -154q11 -101 47 -164q19 -34 41 -55t60 -42z" />
    <glyph glyph-name="parenright" unicode=")" horiz-adv-x="320" 
d="M275 293q0 -118 -19 -193q-23 -92 -91 -166q-61 -67 -146 -102l-34 79q30 22 54 44q53 53 76 121q16 49 22 131q3 45 3 84q0 84 -8 152q-12 104 -46 164q-20 34 -41.5 55t-59.5 42l35 78q74 -26 129 -79t85 -129q30 -78 39 -206q2 -28 2 -75z" />
    <glyph glyph-name="asterisk" unicode="*" horiz-adv-x="486" 
d="M456 518l-131 -42l83 -114l-83 -61l-84 115l-81 -110l-81 61l84 109l-133 46l32 95l131 -47v138h102v-138l131 43z" />
    <glyph glyph-name="plus" unicode="+" horiz-adv-x="638" 
d="M593 240h-211v-211h-126v211h-211v126h211v211h126v-211h211v-126z" />
    <glyph glyph-name="comma" unicode="," horiz-adv-x="294" 
d="M239 36q0 -65 -39 -115t-102 -66l-53 56q33 7 52.5 23t19.5 34q0 16 -26 32q-39 23 -39 70q0 36 25.5 61t61.5 25q44 0 72 -34t28 -86z" />
    <glyph glyph-name="hyphen" unicode="-" horiz-adv-x="330" 
d="M285 216h-240v116h240v-116z" />
    <glyph glyph-name="period" unicode="." horiz-adv-x="286" 
d="M231 73q0 -37 -26 -63t-62 -26q-37 0 -62.5 26t-25.5 63q0 36 25.5 61.5t61.5 25.5q37 0 63 -25.5t26 -61.5z" />
    <glyph glyph-name="slash" unicode="/" horiz-adv-x="446" 
d="M401 764l-268 -918h-88l268 918h88z" />
    <glyph glyph-name="zero" unicode="0" horiz-adv-x="565" 
d="M520 256q0 -120 -66 -194t-172 -74q-109 0 -173 72.5t-64 193.5q0 120 66 194t172 74q109 0 173 -72.5t64 -193.5zM373 253q0 98 -23.5 134.5t-66.5 36.5q-91 0 -91 -167q0 -98 23.5 -134.5t66.5 -36.5q91 0 91 167z" />
    <glyph glyph-name="one" unicode="1" horiz-adv-x="433" 
d="M393 0h-317v109h108v259q-61 -38 -120 -58l-34 72l193 140h90v-413h80v-109z" />
    <glyph glyph-name="two" unicode="2" horiz-adv-x="566" 
d="M511 112l-29 -112h-417v122q5 3 36.5 17.5t66.5 34.5q99 56 136 94t37 75q0 32 -22 49.5t-58 17.5q-58 0 -136 -64l-80 83q111 99 252 99q89 0 142 -45t53 -119q0 -92 -94 -162q-16 -12 -40 -26.5t-54 -31t-43 -24.5l-26 -13q37 5 97 5h179z" />
    <glyph glyph-name="three" unicode="3" horiz-adv-x="548" 
d="M503 50q0 -103 -98.5 -168.5t-253.5 -65.5q-45 0 -83 5l-32 93q36 -7 76 -7q104 0 169 43t65 111q0 57 -44 76q-28 12 -93 12q-37 0 -51 -1v112q32 -4 69 -4q111 0 111 79q0 34 -21.5 54.5t-63.5 20.5q-81 0 -148 -56l-70 85q44 34 93 54q73 30 143 30q94 0 155 -49.5
t61 -124.5q0 -89 -66 -129q-16 -10 -37 -18q56 -19 87.5 -59t31.5 -93z" />
    <glyph glyph-name="four" unicode="4" horiz-adv-x="543" 
d="M518 0h-45l-31 2q5 -13 5 -36v-141l-127 -16v169l2 25q-12 -3 -32 -3h-265v91l193 427h138l-144 -324q-31 -67 -45 -81q10 2 21 2h113l24 -1q-1 13 -1 18q0 38 7 107l11 117l105 24v-177q0 -41 -1 -59l-2 -30q20 1 32 1h42v-115z" />
    <glyph glyph-name="five" unicode="5" horiz-adv-x="520" 
d="M465 70q0 -111 -88.5 -182.5t-226.5 -71.5q-39 0 -76 7l-29 99q53 -14 94 -14q80 0 130.5 41t50.5 105q0 48 -30 77t-79 29q-56 0 -146 -28l32 380h341l-20 -114h-196l-14 -139q26 5 47 5q93 0 151.5 -54t58.5 -140z" />
    <glyph glyph-name="six" unicode="6" horiz-adv-x="585" 
d="M535 214q0 -97 -67.5 -162.5t-166.5 -65.5q-110 0 -180.5 79t-70.5 203q0 78 26 144q34 89 112 162q44 42 119.5 84.5t137.5 60.5l29 -96q-205 -66 -260 -231q40 33 107 33q91 0 152.5 -61t61.5 -150zM394 212q0 48 -24.5 76.5t-66.5 28.5q-47 0 -104 -33q-3 -18 -3 -60
q0 -64 26 -99.5t73 -35.5q45 0 72 33.5t27 89.5z" />
    <glyph glyph-name="seven" unicode="7" horiz-adv-x="497" 
d="M472 512l-22 -117q-151 -227 -210 -419q-10 -33 -29 -139l-147 -37q30 125 72 240q36 100 88 201q44 87 93 154q-15 -4 -40 -4h-252l30 121h417z" />
    <glyph glyph-name="eight" unicode="8" horiz-adv-x="605" 
d="M560 183q0 -68 -45 -120.5t-118 -70.5q-48 -12 -105 -12q-98 0 -158 37q-89 54 -89 155q0 56 33 103t85 66q-38 11 -69 55q-30 43 -30 96q0 83 66.5 134t173.5 51q101 0 165.5 -48.5t64.5 -125.5q0 -51 -35.5 -91.5t-93.5 -56.5q59 -17 111 -64q44 -41 44 -108zM409 165
q0 47 -38 72q-40 26 -113 51q-64 -37 -64 -106q0 -47 30.5 -75t82.5 -28q45 0 73.5 24t28.5 62zM385 507q0 72 -91 72q-41 0 -66.5 -20.5t-25.5 -54.5q0 -46 61 -76q14 -7 41 -19q81 41 81 98z" />
    <glyph glyph-name="nine" unicode="9" horiz-adv-x="571" 
d="M526 256q0 -202 -164 -338q-100 -84 -212 -123l-73 82q81 21 161.5 86t102.5 128q-41 -19 -81 -19q-92 0 -153.5 64t-61.5 159q0 101 68.5 167.5t173.5 66.5q112 0 175.5 -72.5t63.5 -200.5zM381 292q0 63 -26 98.5t-71 35.5q-43 0 -68.5 -34.5t-25.5 -92.5
q0 -54 27.5 -86.5t73.5 -32.5q44 0 80 37q10 34 10 75z" />
    <glyph glyph-name="colon" unicode=":" horiz-adv-x="304" 
d="M238 68q0 -35 -25.5 -59.5t-61.5 -24.5q-35 0 -60.5 24.5t-25.5 59.5q0 37 25.5 63t61.5 26t61 -26t25 -63zM239 368q0 -36 -25.5 -61t-61.5 -25q-35 0 -60 25t-25 60q0 36 25 62t60 26q36 0 61.5 -25.5t25.5 -61.5z" />
    <glyph glyph-name="semicolon" unicode=";" horiz-adv-x="324" 
d="M259 35q0 -64 -40 -114.5t-102 -65.5l-52 56q32 8 51.5 23.5t19.5 33.5q0 16 -23 30q-42 25 -42 70q0 38 25.5 63t62.5 25q43 0 71.5 -34t28.5 -87zM246 369q0 -35 -25 -60.5t-60 -25.5q-36 0 -61.5 25t-25.5 60q0 36 24.5 62t59.5 26q36 0 62 -25.5t26 -61.5z" />
    <glyph glyph-name="less" unicode="&#x3c;" horiz-adv-x="416" 
d="M371 78l-105 -90l-241 311l241 311l105 -92l-168 -219z" />
    <glyph glyph-name="equal" unicode="=" horiz-adv-x="638" 
d="M593 336h-548v126h548v-126zM593 144h-548v126h548v-126z" />
    <glyph glyph-name="greater" unicode="&#x3e;" horiz-adv-x="416" 
d="M391 299l-241 -311l-105 90l168 221l-168 219l105 92z" />
    <glyph glyph-name="question" unicode="?" horiz-adv-x="484" 
d="M424 538q0 -32 -8.5 -58t-25 -44.5t-28 -28t-30.5 -21.5q-75 -48 -77 -130q0 -13 2 -35h-115l-5 26q-4 19 -4 40q0 86 92 152q15 11 29.5 20.5t25.5 25.5t11 35q0 35 -23 52t-59 17q-20 0 -38 -5t-30 -12.5t-23.5 -15.5t-16.5 -13l-61 86q27 28 76.5 52t117.5 24
q80 0 135 -45.5t55 -121.5zM296 70q0 -34 -24.5 -58.5t-59.5 -24.5q-34 0 -57.5 24t-23.5 59q0 34 24.5 58.5t58.5 24.5t58 -24.5t24 -58.5z" />
    <glyph glyph-name="at" unicode="@" horiz-adv-x="901" 
d="M856 276q0 -129 -66.5 -212t-160.5 -83q-36 0 -59.5 7.5t-34.5 22t-15 28t-6 34.5q-67 -80 -150 -80q-62 0 -96.5 38.5t-34.5 111.5q0 131 77 223t207 92q65 0 142 -41q-20 -67 -63 -269q-8 -38 -8 -55q0 -20 10 -27.5t34 -7.5q46 0 76 61t30 157q0 119 -76.5 191.5
t-202.5 72.5q-120 0 -207.5 -99.5t-87.5 -239.5q0 -134 78.5 -211.5t198.5 -77.5q78 0 144 22l18 -85q-86 -28 -162 -28q-175 0 -285.5 102t-110.5 278q0 117 53 215t148.5 156t212.5 58q170 0 283.5 -98.5t113.5 -255.5zM544 372q-15 7 -36 7q-82 0 -123.5 -72.5
t-41.5 -167.5q0 -63 42 -63q34 0 72 34.5t50 90.5z" />
    <glyph glyph-name="A" unicode="A" horiz-adv-x="592" 
d="M595 0h-150l-49 165h-204l-49 -165h-146l228 697h151zM362 281q-23 73 -38 140l-28 123l-33 -134q-20 -77 -37 -129h136z" />
    <glyph glyph-name="B" unicode="B" horiz-adv-x="610" 
d="M565 194q0 -77 -47.5 -132.5t-134.5 -59.5q-44 -2 -89 -2h-219v695h235q64 0 101.5 -11t69.5 -39q57 -50 57 -124q0 -72 -47 -116q-25 -24 -64 -36q66 -19 102 -63.5t36 -111.5zM407 211q0 30 -14 54t-37 31q-20 6 -54 6h-87v-188h91q45 0 65 16q36 27 36 81zM392 497
q0 23 -11 43t-29 27q-22 9 -58 9h-81v-159h83q42 0 60 9q14 8 25 29t11 42z" />
    <glyph glyph-name="C" unicode="C" horiz-adv-x="574" 
d="M549 53q-79 -65 -193 -65q-143 0 -227 96q-84 94 -84 249q0 128 47 216q40 76 111 118.5t155 42.5q52 0 99.5 -15t76.5 -40l-63 -95q-53 39 -111 39q-35 0 -67 -16t-51 -44q-39 -58 -39 -179q0 -134 29 -186q43 -78 134 -78q63 0 119 45z" />
    <glyph glyph-name="D" unicode="D" horiz-adv-x="628" 
d="M583 345q0 -147 -70 -241q-68 -92 -169 -100q-52 -4 -100 -4h-169v695h140q65 0 121 -4q91 -8 152 -69q95 -94 95 -277zM426 332q0 138 -35 195q-35 58 -110 58h-64v-471h75q69 0 101.5 53.5t32.5 164.5z" />
    <glyph glyph-name="E" unicode="E" horiz-adv-x="505" 
d="M480 0h-405v695h396l-18 -114h-238v-161h199v-114h-197v-186h263v-120z" />
    <glyph glyph-name="F" unicode="F" horiz-adv-x="447" 
d="M452 695l-16 -113h-221v-159h177v-114h-177v-309h-140v695h377z" />
    <glyph glyph-name="G" unicode="G" horiz-adv-x="652" 
d="M587 54q-105 -62 -231 -62q-155 0 -237 106q-74 94 -74 243q0 219 145 316q74 49 169 49q129 0 221 -80l-74 -87q-66 54 -145 54q-63 0 -100 -35q-59 -56 -59 -224q0 -146 52 -198q41 -39 109 -39q46 0 79 17v158h-106l-18 114h269v-332z" />
    <glyph glyph-name="H" unicode="H" horiz-adv-x="631" 
d="M556 0h-142v310h-200v-310h-139v695h139v-270h200v270h142v-695z" />
    <glyph glyph-name="I" unicode="I" horiz-adv-x="296" 
d="M221 0h-146v695h146v-695z" />
    <glyph glyph-name="J" unicode="J" horiz-adv-x="297" 
d="M222 135q0 -96 -10 -136q-14 -58 -60.5 -100t-101.5 -63l-65 72q61 37 81 84q14 32 14 128v575h142v-560z" />
    <glyph glyph-name="K" unicode="K" horiz-adv-x="598" 
d="M613 0h-184l-211 363v-363h-143v695h143v-317l198 317h172l-222 -322z" />
    <glyph glyph-name="L" unicode="L" horiz-adv-x="477" 
d="M467 116l-25 -116h-367v695h143v-579h249z" />
    <glyph glyph-name="M" unicode="M" horiz-adv-x="828" 
d="M773 0h-137l-26 371q-5 73 -5 116q-11 -53 -26 -107l-110 -380h-119l-99 365q-19 72 -28 123q0 -53 -5 -125l-24 -363h-139l65 695h179l91 -348q16 -61 24 -110q9 52 25 113l94 345h178z" />
    <glyph glyph-name="N" unicode="N" horiz-adv-x="633" 
d="M558 0h-146l-119 266q-77 172 -94 228q4 -51 7 -197l4 -297h-135v695h155l133 -278q51 -108 76 -197q-9 98 -11 191l-3 284h133v-695z" />
    <glyph glyph-name="O" unicode="O" horiz-adv-x="690" 
d="M645 351q0 -118 -40 -203.5t-115 -126.5q-58 -32 -139 -32q-79 0 -132.5 23t-93.5 75q-80 103 -80 258q0 113 41 198.5t116 126.5q63 34 144 34q139 0 219 -94.5t80 -258.5zM484 347q0 103 -18 161q-10 33 -41 60.5t-81 27.5q-35 0 -64 -16.5t-44 -44.5q-35 -66 -35 -190
q0 -181 62 -225q33 -24 83 -24q73 0 105.5 59t32.5 192z" />
    <glyph glyph-name="P" unicode="P" horiz-adv-x="576" 
d="M551 481q0 -69 -31.5 -122t-88.5 -80q-49 -23 -139 -23h-77v-256h-140v695h183q83 0 121.5 -8t71.5 -26q100 -55 100 -180zM398 478q0 49 -25 76.5t-69 27.5h-89v-212h73q43 0 61 7t32 29q17 27 17 72z" />
    <glyph glyph-name="Q" unicode="Q" horiz-adv-x="690" 
d="M718 -27l-37 -91q-20 -12 -62 -12q-53 0 -128 49q-73 49 -141 70q-78 0 -131.5 23t-93.5 75q-80 103 -80 258q0 113 41 199t116 126q63 34 144 34q139 0 219 -94.5t80 -258.5q0 -111 -36.5 -194t-100.5 -125q15 -5 62 -35q48 -29 86 -29zM484 347q0 103 -18 161
q-10 33 -41 60.5t-81 27.5q-35 0 -64 -16.5t-44 -44.5q-35 -66 -35 -190q0 -181 62 -225q33 -24 83 -24q73 0 105.5 59t32.5 192z" />
    <glyph glyph-name="R" unicode="R" horiz-adv-x="594" 
d="M579 0h-165l-65 114q-54 97 -75.5 129.5t-39.5 40.5q-11 5 -22 6v-290h-137v695h259q92 0 148 -56t56 -148q0 -78 -45.5 -134.5t-109.5 -57.5q18 -14 29 -29q25 -31 96 -150zM391 488q0 67 -50 85q-27 10 -79 10h-50v-188h47q79 0 105 23q27 25 27 70z" />
    <glyph glyph-name="S" unicode="S" horiz-adv-x="594" 
d="M559 219q0 -106 -78.5 -170t-208.5 -64q-127 0 -237 63l52 109q107 -56 191 -56q122 0 122 95q0 65 -91 90l-77 21q-101 28 -137 88q-29 47 -29 106q0 95 69.5 155t179.5 60q135 0 232 -70l-66 -100q-88 53 -162 53q-43 0 -70 -22.5t-27 -57.5q0 -27 17 -42.5t60 -27.5
l84 -23q85 -23 130.5 -76.5t45.5 -130.5z" />
    <glyph glyph-name="T" unicode="T" horiz-adv-x="501" 
d="M516 695l-23 -116h-166v-579h-142v579h-170v116h501z" />
    <glyph glyph-name="U" unicode="U" horiz-adv-x="646" 
d="M573 227q0 -76 -11 -109q-17 -51 -75.5 -91t-160.5 -40q-164 0 -223 93q-17 27 -23.5 54t-6.5 77v484h143v-457q0 -60 12 -83q25 -48 95 -48q46 0 73.5 21.5t32.5 59.5q2 15 2 62v445h142v-468z" />
    <glyph glyph-name="V" unicode="V" horiz-adv-x="575" 
d="M590 695l-242 -700h-127l-236 700h153l115 -362q18 -55 32 -121q12 57 40 139l118 344h147z" />
    <glyph glyph-name="W" unicode="W" horiz-adv-x="842" 
d="M837 695l-168 -701h-153l-62 283q-26 114 -33 198q-11 -92 -33 -196l-58 -285h-159l-166 701h148l60 -274q17 -81 27 -155l10 -74q13 117 36 222l62 281h153l64 -311l30 -184q2 22 15 103.5t23 127.5l57 264h147z" />
    <glyph glyph-name="X" unicode="X" horiz-adv-x="572" 
d="M582 0h-169l-125 245l-124 -245h-174l218 372l-188 323h171l94 -187l95 187h167l-181 -314z" />
    <glyph glyph-name="Y" unicode="Y" horiz-adv-x="544" 
d="M564 695l-222 -409v-286h-146v286l-216 409h168l89 -190q22 -46 35 -89q19 47 37 87l90 192h165z" />
    <glyph glyph-name="Z" unicode="Z" horiz-adv-x="540" 
d="M505 114l-36 -114h-434v98l256 423l43 63q-29 -5 -71 -5h-214l31 116h416v-101l-258 -435l-36 -49q41 4 69 4h234z" />
    <glyph glyph-name="bracketleft" unicode="[" horiz-adv-x="310" 
d="M285 -156h-210v888h210v-90h-90v-708h90v-90z" />
    <glyph glyph-name="backslash" unicode="\" horiz-adv-x="443" 
d="M428 -18l-113 -35l-300 779l114 35z" />
    <glyph glyph-name="bracketright" unicode="]" horiz-adv-x="310" 
d="M235 -156h-210v90h90v708h-90v90h210v-888z" />
    <glyph glyph-name="asciicircum" unicode="^" horiz-adv-x="606" 
d="M556 343h-142l-111 238l-112 -238h-141l180 365h146z" />
    <glyph glyph-name="underscore" unicode="_" horiz-adv-x="510" 
d="M505 -125h-500v50h500v-50z" />
    <glyph glyph-name="grave" unicode="`" horiz-adv-x="335" 
d="M300 631l-41 -74l-224 100l58 104z" />
    <glyph glyph-name="a" unicode="a" horiz-adv-x="522" 
d="M493 56l-71 -82q-52 22 -72 62q-18 -18 -31 -27q-39 -28 -103 -28q-85 0 -130.5 41.5t-45.5 118.5q0 176 246 176q19 0 30 -1v21q0 44 -12 60t-48 16q-62 0 -148 -58l-57 96q35 22 83 42q71 30 140 30q64 0 107 -23t58 -66q10 -30 9 -92l-3 -172q-1 -45 7.5 -67.5
t40.5 -46.5zM314 224h-6q-71 0 -98 -16.5t-27 -61.5q0 -30 16.5 -48.5t42.5 -18.5q38 0 70 35z" />
    <glyph glyph-name="b" unicode="b" horiz-adv-x="562" 
d="M517 265q0 -160 -95 -235q-50 -40 -112 -40q-71 0 -114 47q-5 -23 -14 -37h-120q13 30 13 109v474q0 89 -9 126l137 32q5 -44 5 -91v-121q0 -33 -3 -45q38 41 109 41q94 0 148.5 -70t54.5 -190zM365 262q0 61 -6 87q-15 65 -73 65q-39 0 -76 -41v-236q37 -33 75 -33
q49 0 65 40q15 35 15 118z" />
    <glyph glyph-name="c" unicode="c" horiz-adv-x="465" 
d="M440 58q-24 -24 -47 -38q-55 -32 -125 -32q-106 0 -164.5 69.5t-58.5 194.5q0 165 105 237q56 38 127 38q56 0 99 -23q21 -11 50 -36l-65 -88q-43 40 -81 40q-45 0 -66 -41t-21 -131q0 -95 26 -129q23 -29 60 -29q44 0 92 42l8 7z" />
    <glyph glyph-name="d" unicode="d" horiz-adv-x="559" 
d="M503 0h-120q-5 10 -8 30q-49 -43 -118 -43q-97 0 -154.5 70.5t-57.5 189.5q0 120 61 195t158 75q55 0 91 -29q-4 22 -4 76v176l133 -21v-532q0 -145 19 -187zM353 133v244q-37 33 -73 33q-45 0 -65.5 -39t-20.5 -125q0 -82 20 -114t73 -32q39 0 66 33z" />
    <glyph glyph-name="e" unicode="e" horiz-adv-x="516" 
d="M486 214h-296v-4q0 -59 28 -91.5t80 -32.5q68 0 130 51l52 -80q-87 -71 -193 -71q-110 0 -176 72t-66 193q0 132 64 203q62 69 161 69q96 0 148 -54q68 -69 68 -224v-31zM347 312v6q0 52 -16 77q-19 30 -59 30q-38 0 -59 -29t-21 -82v-2h155z" />
    <glyph glyph-name="f" unicode="f" horiz-adv-x="314" 
d="M359 709l-43 -83q-35 17 -55 17q-26 0 -41 -15.5t-15 -42.5v-73h130l-34 -92h-95v-420h-131v420h-46v92h49q-5 35 -5 70q0 76 43 117.5t122 41.5q64 0 121 -32z" />
    <glyph glyph-name="g" unicode="g" horiz-adv-x="563" 
d="M582 456q-41 -38 -94 -38q-11 0 -35 3q30 -36 30 -84q0 -66 -53.5 -109t-135.5 -43q-10 0 -20 1q-53 -25 -53 -42q0 -12 22 -12l72 -1q106 -1 155 -46q44 -41 44 -109q0 -62 -41 -106q-62 -66 -202 -66q-135 0 -194 55q-42 39 -42 91q0 28 12 52h124q-6 -14 -6 -33
q0 -63 96 -63q57 0 84 17q33 20 33 52q0 59 -94 61l-57 1q-88 1 -123 16q-39 15 -39 67q0 30 18.5 50.5t75.5 35.5q-110 28 -110 142q0 79 59 126t157 47q39 0 92 -13q44 -11 63 -11q57 0 106 44zM345 347q0 36 -21.5 56t-59.5 20t-59 -20t-21 -56q0 -73 79 -73q82 0 82 73z
" />
    <glyph glyph-name="h" unicode="h" horiz-adv-x="575" 
d="M500 0h-131v344q0 38 -12 54t-40 16q-54 0 -106 -47v-367h-136v592q0 82 -10 117l137 32q9 -42 9 -125v-102q0 -9 -1 -25t-1 -18q26 25 66 40t79 15q49 0 85 -19.5t48 -53.5q13 -38 13 -95v-358z" />
    <glyph glyph-name="i" unicode="i" horiz-adv-x="284" 
d="M209 0h-134v503l134 21v-524zM225 653q0 -35 -24.5 -59t-58.5 -24t-58 24.5t-24 58.5t24.5 58.5t59.5 24.5q34 0 57.5 -24t23.5 -59z" />
    <glyph glyph-name="j" unicode="j" horiz-adv-x="283" 
d="M208 14q0 -110 -38 -159q-36 -47 -104 -75l-56 74q30 25 49 58q16 29 16 98v481l133 32v-509zM226 655q0 -35 -25 -59.5t-59 -24.5t-58 24t-24 58q0 35 24.5 59.5t58.5 24.5t58.5 -24t24.5 -58z" />
    <glyph glyph-name="k" unicode="k" horiz-adv-x="527" 
d="M209 0h-134v577q0 73 -9 133l135 33q8 -51 8 -166v-577zM542 0h-158l-172 290l131 222h161l-163 -214z" />
    <glyph glyph-name="l" unicode="l" horiz-adv-x="291" 
d="M286 2q-36 -14 -80 -14q-43 0 -75 19t-44 51q-12 31 -12 115v382q0 90 -7 154l137 31q7 -39 7 -133v-399q0 -98 9 -114q8 -14 27 -14q8 0 15 2z" />
    <glyph glyph-name="m" unicode="m" horiz-adv-x="803" 
d="M728 0h-130v338q0 46 -8 59.5t-34 13.5q-41 0 -89 -43v-368h-127v333q0 48 -9 63.5t-37 15.5q-44 0 -88 -39v-373h-131v357q0 97 -19 131l121 33q11 -18 18 -52q54 52 125 52q64 0 104 -42q10 -10 20 -25q66 67 145 67q64 0 101 -32q22 -19 30 -45.5t8 -79.5v-364z" />
    <glyph glyph-name="n" unicode="n" horiz-adv-x="554" 
d="M479 0h-132v333q0 44 -9.5 59.5t-35.5 15.5q-42 0 -93 -46v-362h-134v371q0 69 -18 120l119 34q19 -33 19 -64q38 26 59 38q42 22 92 22q43 0 77 -20.5t46 -53.5q10 -27 10 -73v-374z" />
    <glyph glyph-name="o" unicode="o" horiz-adv-x="543" 
d="M503 258q0 -125 -64 -198q-63 -71 -169 -71q-104 0 -167 72t-63 193t63 194.5t167 73.5q109 0 174 -77q59 -69 59 -187zM357 259q0 103 -27 137q-21 27 -58 27q-51 0 -69 -52q-14 -42 -14 -114q0 -89 17 -129q9 -20 28 -31t40 -11q44 0 63.5 41t19.5 132z" />
    <glyph glyph-name="p" unicode="p" horiz-adv-x="562" 
d="M517 270q0 -82 -15.5 -131t-55.5 -92q-55 -58 -137 -58q-61 0 -107 27q2 -12 2 -42v-160l-129 -34v592q0 80 -8 129l119 21q8 -28 9 -48q17 21 52 34.5t74 13.5q55 0 101 -31q95 -64 95 -221zM371 257q0 77 -13 113q-15 43 -64 43q-52 0 -89 -39v-249q36 -30 74 -30
q50 0 71 37t21 125z" />
    <glyph glyph-name="q" unicode="q" horiz-adv-x="561" 
d="M498 513q-12 -52 -12 -151v-550l-127 -34v194q0 36 3 52q-40 -36 -102 -36q-108 0 -161.5 74t-53.5 186q0 129 52 196q29 37 71.5 59t88.5 22q40 0 76 -15.5t44 -36.5q1 21 10 40h111zM359 137v241q-33 35 -77 35q-90 0 -90 -148q0 -28 0.5 -43.5t5.5 -42.5t13.5 -42
t26.5 -27t44 -12q44 0 77 39z" />
    <glyph glyph-name="r" unicode="r" horiz-adv-x="357" 
d="M367 513l-37 -118q-19 10 -39 10q-45 0 -82 -43v-362h-134v342q0 100 -19 150l120 32q18 -32 21 -73q54 73 120 73q24 0 50 -11z" />
    <glyph glyph-name="s" unicode="s" horiz-adv-x="491" 
d="M456 162q0 -80 -60.5 -129t-158.5 -49q-94 0 -207 59l48 98q95 -58 170 -58q29 0 48.5 16.5t19.5 41.5q0 26 -19 40.5t-60 22.5l-60 11q-25 4 -52.5 19.5t-41.5 32.5q-29 35 -29 92q0 75 54.5 121t143.5 46q85 0 183 -48l-44 -90q-73 37 -126 37q-29 0 -47 -13.5
t-18 -36.5q0 -20 14.5 -31.5t49.5 -20.5l62 -16q71 -18 102 -58q28 -35 28 -87z" />
    <glyph glyph-name="t" unicode="t" horiz-adv-x="351" 
d="M331 11q-56 -23 -109 -23q-51 0 -88.5 20.5t-49.5 54.5q-9 25 -9 79v278h-51v92h51q0 83 5 121l136 34q-8 -75 -8 -155h120l-34 -92h-86v-257q0 -49 12 -65.5t46 -16.5q14 0 48 10z" />
    <glyph glyph-name="u" unicode="u" horiz-adv-x="546" 
d="M502 40l-95 -54q-27 19 -40 50q-51 -49 -135 -49q-54 0 -96 23t-55 60q-11 32 -11 102v328l132 25v-329q0 -62 11 -84q12 -24 47 -24q25 0 50 15t33 34v360l128 27v-391q0 -56 31 -93z" />
    <glyph glyph-name="v" unicode="v" horiz-adv-x="474" 
d="M479 512l-187 -512h-111l-186 504l137 17l74 -231q20 -62 33 -123q7 54 31 130l69 215h140z" />
    <glyph glyph-name="w" unicode="w" horiz-adv-x="709" 
d="M704 512l-146 -512h-123l-46 176q-21 78 -29 124q-4 21 -8 51q-4 -28 -12 -66q-10 -44 -44 -180l-26 -105h-125l-140 503l133 15l42 -197l29 -159q13 91 37 178l48 172h126l41 -169l38 -181q14 101 28 167l39 183h138z" />
    <glyph glyph-name="x" unicode="x" horiz-adv-x="510" 
d="M520 0h-170l-54 94q-5 9 -21.5 41t-18.5 35q-12 -35 -51 -99l-43 -71h-172l189 273l-142 215l139 39q45 -75 69 -125q8 -16 16 -34q11 30 45 100q13 27 24 44h158l-152 -236z" />
    <glyph glyph-name="y" unicode="y" horiz-adv-x="507" 
d="M507 512l-186 -520q-26 -73 -48 -110.5t-50 -58.5q-51 -37 -124 -47l-46 88q57 16 83 34q21 15 38 42q14 23 29 60h-34l-48 144l-121 360l137 16l89 -299q4 -17 15 -60t12 -46q0 15 16 82q9 37 20 71l77 244h141z" />
    <glyph glyph-name="z" unicode="z" horiz-adv-x="479" 
d="M444 93l-32 -93h-377v83l241 335h-221v94h380v-92l-226 -327h235z" />
    <glyph glyph-name="braceleft" unicode="{" horiz-adv-x="392" 
d="M367 -156h-105q-57 0 -93 36t-36 110v172q0 22 -12.5 37t-32.5 21t-35 8.5t-28 2.5v114q13 0 28 2.5t35 8.5t32.5 21t12.5 37v173q0 74 35 109.5t94 35.5h105v-114h-49q-22 0 -36 -6t-19.5 -16.5t-7.5 -19.5t-2 -22v-161q0 -33 -9 -54.5t-26.5 -31t-30.5 -13t-34 -5.5v-2
q21 -1 34.5 -4.5t30.5 -13t26 -31t9 -54.5v-162q0 -13 2 -22t7.5 -19.5t19.5 -16.5t36 -6h49v-114z" />
    <glyph glyph-name="bar" unicode="|" horiz-adv-x="276" 
d="M201 -208h-126v964h126v-964z" />
    <glyph glyph-name="braceright" unicode="}" horiz-adv-x="392" 
d="M367 231q-14 0 -29 -2.5t-34.5 -8.5t-32 -21t-12.5 -37v-173q0 -74 -35 -109.5t-94 -35.5h-105v114h49q22 0 36 6t19.5 16.5t7.5 19.5t2 22v161q0 33 9 54.5t26.5 31t30.5 13t34 5.5v2q-21 1 -34.5 4.5t-30.5 13t-26 31t-9 54.5v162q0 13 -2 22t-7.5 19.5t-19.5 16.5
t-36 6h-49v114h108q55 0 90.5 -36t35.5 -110v-172q0 -22 12.5 -37t32 -21t34.5 -8.5t29 -2.5v-114z" />
    <glyph glyph-name="asciitilde" unicode="~" horiz-adv-x="562" 
d="M512 292q-45 -86 -125 -86q-39 0 -111 32q-25 12 -55 24t-47 12q-19 0 -37 -12.5t-25.5 -22l-25.5 -33.5l-36 108q45 86 125 86q39 0 111 -32q25 -12 55 -24t47 -12q19 0 37 12.5t25.5 22l25.5 33.5z" />
    <glyph glyph-name="uni00A0" unicode="&#xa0;" horiz-adv-x="225" 
 />
    <glyph glyph-name="exclamdown" unicode="&#xa1;" horiz-adv-x="305" 
d="M234 -178l-160 -23l28 489h102zM235 439q0 -35 -24.5 -59t-58.5 -24t-58 24.5t-24 58.5t24.5 58.5t59.5 24.5q34 0 57.5 -24t23.5 -59z" />
    <glyph glyph-name="cent" unicode="&#xa2;" horiz-adv-x="465" 
d="M440 58q-24 -24 -47 -38q-35 -21 -77 -28v-103h-94v103q-84 14 -130.5 82t-46.5 178q0 165 105 237q31 21 72 31v97h94v-96q26 0 60 -17q21 -11 50 -36l-65 -88q-43 40 -81 40q-45 0 -66 -41t-21 -131q0 -95 26 -129q23 -29 60 -29q44 0 92 42l8 7z" />
    <glyph glyph-name="sterling" unicode="&#xa3;" horiz-adv-x="593" 
d="M598 652l-100 -107q-43 43 -91 43q-62 0 -89 -36t-27 -89v-49h156v-102h-156v-198h253v-114h-499v114h96v198h-96v102h96v71q0 96 66.5 165.5t181.5 69.5q134 0 209 -68z" />
    <glyph glyph-name="currency" unicode="&#xa4;" horiz-adv-x="447" 
d="M409 100l-118 -69q-30 50 -40 70q-9 -2 -30 -2q-20 0 -38 3l-13 -27l-24 -44l-114 69l44 68q-26 37 -26 101q0 60 28 102l-47 71l118 69q30 -50 40 -70q16 2 30 2q25 0 38 -3l13 27l24 44l114 -69l-44 -68q27 -38 27 -103q0 -57 -29 -100zM280 273q0 60 -20 80
q-16 16 -42 16q-37 0 -50 -30q-9 -22 -9 -67q0 -58 11 -75q16 -25 50 -25q32 0 46 24t14 77z" />
    <glyph glyph-name="yen" unicode="&#xa5;" horiz-adv-x="568" 
d="M576 695l-153 -280h103v-103h-158l-14 -26v-50h172v-103h-172v-133h-146v133h-169v103h169v50l-14 26h-155v103h101l-148 280h168l89 -190q22 -46 35 -89q19 47 37 87l90 192h165z" />
    <glyph glyph-name="brokenbar" unicode="&#xa6;" horiz-adv-x="276" 
d="M201 342h-126v414h126v-414zM201 -208h-126v414h126v-414z" />
    <glyph glyph-name="section" unicode="&#xa7;" horiz-adv-x="598" 
d="M553 281q0 -40 -23.5 -76t-60.5 -54q55 -44 55 -119q0 -62 -40 -105t-93.5 -60.5t-112.5 -17.5q-174 0 -233 126l128 63q8 -34 40 -51.5t69 -17.5q30 0 55 12t25 40q0 22 -22.5 39.5t-55.5 29.5t-72.5 30t-72.5 37.5t-55.5 55t-22.5 80.5q0 94 87 148q-63 42 -63 115
q0 55 33.5 95t81 57.5t100.5 17.5q73 0 134.5 -25.5t89.5 -83.5l-126 -72q-10 28 -35.5 44.5t-56.5 16.5q-26 0 -45.5 -14t-19.5 -39q0 -27 32 -48t78 -38.5t92 -38.5t78 -59t32 -88zM415 253q0 42 -65 72l-116 55q-35 -20 -35 -59q0 -16 5.5 -29t18.5 -22.5t22.5 -14.5
t27.5 -13l6 -3l102 -47q34 20 34 61z" />
    <glyph glyph-name="dieresis" unicode="&#xa8;" horiz-adv-x="474" 
d="M419 635q0 -31 -22.5 -54t-54.5 -23q-31 0 -53.5 22.5t-22.5 54.5t23 54.5t55 22.5q31 0 53 -22.5t22 -54.5zM208 635q0 -31 -23 -54t-54 -23t-53.5 23t-22.5 54t23 54t55 23q31 0 53 -22.5t22 -54.5z" />
    <glyph glyph-name="copyright" unicode="&#xa9;" horiz-adv-x="834" 
d="M789 354q0 -154 -109 -263t-263 -109t-263 109t-109 263t109 263t263 109t263 -109t109 -263zM687 354q0 116 -79 199t-191 83t-191 -83t-79 -199t79 -199t191 -83t191 83t79 199zM545 198q-57 -43 -122 -43q-83 0 -132.5 52t-49.5 139q0 91 50 149t133 58q66 0 112 -38
l-46 -66q-38 25 -65 25q-75 0 -75 -114q0 -68 18.5 -98t60.5 -30q37 0 67 28z" />
    <glyph glyph-name="ordfeminine" unicode="&#xaa;" horiz-adv-x="435" 
d="M387 422l-48 -62q-47 19 -59 47q-16 -15 -24 -21q-29 -21 -77 -21q-63 0 -97.5 31.5t-34.5 88.5q0 132 185 132h22v15q0 33 -9 45t-36 12q-48 0 -111 -43l-43 72q19 12 63 31q53 23 105 23q100 0 123 -67q8 -22 7 -69l-2 -129v-7q0 -31 7 -46.5t29 -31.5zM400 231h-365
v78h365v-78zM253 548h-5q-53 0 -73.5 -12.5t-20.5 -46.5q0 -22 12.5 -36t32.5 -14q28 0 52 26z" />
    <glyph glyph-name="guillemotleft" unicode="&#xab;" horiz-adv-x="552" 
d="M522 76l-91 -61l-159 234l159 234l91 -61l-116 -173zM280 76l-91 -61l-159 234l159 234l91 -61l-116 -173z" />
    <glyph glyph-name="logicalnot" unicode="&#xac;" horiz-adv-x="531" 
d="M486 58h-123v140h-318v109h441v-249z" />
    <glyph glyph-name="uni00AD" unicode="&#xad;" horiz-adv-x="330" 
d="M285 216h-240v116h240v-116z" />
    <glyph glyph-name="registered" unicode="&#xae;" horiz-adv-x="834" 
d="M789 354q0 -154 -109 -263t-263 -109t-263 109t-109 263t109 263t263 109t263 -109t109 -263zM687 354q0 116 -79 199t-191 83t-191 -83t-79 -199t79 -199t191 -83t191 83t79 199zM585 171h-115l-40 65q-47 80 -54 86v-151h-97v382h153q56 0 89.5 -32t33.5 -85
q0 -42 -25 -71t-63 -33q23 -9 51 -52zM452 435q0 39 -49 39h-27v-77h26q28 0 39 9t11 29z" />
    <glyph glyph-name="macron" unicode="&#xaf;" horiz-adv-x="364" 
d="M339 666h-314v78h314v-78z" />
    <glyph glyph-name="degree" unicode="&#xb0;" horiz-adv-x="411" 
d="M376 533q0 -82 -47 -128q-48 -46 -125 -46t-123 46.5t-46 125.5q0 78 46.5 126t122.5 48q78 0 128 -50q44 -44 44 -122zM265 535q0 61 -20 80q-16 16 -42 16q-37 0 -50 -30q-9 -22 -9 -67q0 -58 11 -75q16 -25 50 -25q32 0 46 24t14 77z" />
    <glyph glyph-name="plusminus" unicode="&#xb1;" horiz-adv-x="513" 
d="M468 283h-150v-143h-123v143h-150v113h150v137h123v-137h150v-113zM466 0h-419v113h419v-113z" />
    <glyph glyph-name="twosuperior" unicode="&#xb2;" horiz-adv-x="384" 
d="M349 333l-23 -83h-275v67q70 65 103 100q62 64 62 111q0 42 -39 42q-32 0 -86 -42l-56 63q77 65 165 65q57 0 92 -33t35 -86q0 -27 -13 -55.5t-41 -59t-43.5 -46t-48.5 -44.5q6 0 18 0.5t17 0.5h133z" />
    <glyph glyph-name="threesuperior" unicode="&#xb3;" horiz-adv-x="376" 
d="M341 386q0 -65 -63 -104.5t-159 -39.5q-27 0 -57 4l-27 74q41 -7 61 -7q60 0 95 22.5t35 56.5q0 12 -5 20t-11 12t-17.5 6t-18.5 2.5t-20 0.5h-40v81q34 -4 51 -4q57 0 57 39q0 33 -41 33q-46 0 -91 -36l-54 64q76 56 155 56q59 0 99.5 -31t40.5 -78q0 -53 -47 -84
q57 -29 57 -87z" />
    <glyph glyph-name="acute" unicode="&#xb4;" horiz-adv-x="335" 
d="M300 657l-224 -100l-41 74l207 130z" />
    <glyph glyph-name="mu" unicode="&#xb5;" horiz-adv-x="551" 
d="M507 40l-95 -54q-27 19 -40 50q-51 -49 -135 -49q-19 0 -35 14q2 -20 2 -31v-156l-129 -34v720l132 25v-329q0 -62 11 -84q12 -24 47 -24q25 0 50 15t33 34v360l128 27v-391q0 -56 31 -93z" />
    <glyph glyph-name="paragraph" unicode="&#xb6;" horiz-adv-x="602" 
d="M527 -126h-90v762h-107v-762h-90v464q-96 0 -155.5 51t-59.5 131q0 97 61.5 142.5t171.5 45.5h269v-834z" />
    <glyph glyph-name="periodcentered" unicode="&#xb7;" horiz-adv-x="268" 
d="M223 273q0 -36 -26.5 -62t-63.5 -26t-62.5 26t-25.5 63t26.5 63.5t63.5 26.5t62.5 -26.5t25.5 -64.5z" />
    <glyph glyph-name="cedilla" unicode="&#xb8;" horiz-adv-x="306" 
d="M251 -111q0 -38 -29 -63t-80 -25q-43 0 -87 24l30 63q34 -15 52 -15q10 0 17.5 6t7.5 12q0 20 -25 20l-27 -6l-13 20l24 87l72 -6l-14 -38q36 -4 54 -25.5t18 -53.5z" />
    <glyph glyph-name="onesuperior" unicode="&#xb9;" horiz-adv-x="324" 
d="M289 250h-215v81h64v208q-47 -25 -75 -34l-28 56l134 89h68v-319h52v-81z" />
    <glyph glyph-name="ordmasculine" unicode="&#xba;" horiz-adv-x="435" 
d="M389 566q0 -92 -48 -147q-47 -54 -127 -54q-78 0 -125 54t-47 144q0 91 47.5 146t124.5 55q83 0 131 -57q44 -53 44 -141zM400 231h-365v78h365v-78zM276 567q0 77 -19 99q-16 18 -41 18q-34 0 -49 -37q-11 -28 -11 -81q0 -59 13 -91q6 -14 20 -23t28 -9q31 0 45 29.5
t14 94.5z" />
    <glyph glyph-name="guillemotright" unicode="&#xbb;" horiz-adv-x="552" 
d="M522 249l-159 -234l-91 61l116 173l-116 173l91 61zM280 249l-159 -234l-91 61l116 173l-116 173l91 61z" />
    <glyph glyph-name="onequarter" unicode="&#xbc;" horiz-adv-x="926" 
d="M770 764l-528 -918h-108l528 918h108zM891 71h-37l-7 1q0 -1 0.5 -5t0.5 -6v-75l-96 -11v91l1 5h-178v63l109 267h105l-84 -207q-6 -15 -19 -38h69q0 31 11 141l82 18v-104v-49l-1 -7q2 0 5 0.5t4 0.5h35v-85zM289 250h-215v81h64v208q-47 -25 -75 -34l-28 56l134 89h68
v-319h52v-81z" />
    <glyph glyph-name="onehalf" unicode="&#xbd;" horiz-adv-x="924" 
d="M749 764l-528 -918h-108l528 918h108zM889 83l-23 -83h-275v67q70 65 103 100q62 64 62 111q0 42 -39 42q-32 0 -86 -42l-56 63q77 65 165 65q57 0 92 -33t35 -86q0 -27 -13 -55.5t-41 -59t-43.5 -46t-48.5 -44.5q6 0 18 0.5t17 0.5h133zM289 250h-215v81h64v208
q-47 -25 -75 -34l-28 56l134 89h68v-319h52v-81z" />
    <glyph glyph-name="threequarters" unicode="&#xbe;" horiz-adv-x="978" 
d="M822 764l-528 -918h-108l528 918h108zM943 71h-37l-7 1q0 -1 0.5 -5t0.5 -6v-75l-96 -11v91l1 5h-178v63l109 267h105l-84 -207q-6 -15 -19 -38h69q0 31 11 141l82 18v-104v-49l-1 -7q2 0 5 0.5t4 0.5h35v-85zM341 386q0 -65 -63 -104.5t-159 -39.5q-27 0 -57 4l-27 74
q41 -7 61 -7q60 0 95 22.5t35 56.5q0 12 -5 20t-11 12t-17.5 6t-18.5 2.5t-20 0.5h-40v81q34 -4 51 -4q57 0 57 39q0 33 -41 33q-46 0 -91 -36l-54 64q76 56 155 56q59 0 99.5 -31t40.5 -78q0 -53 -47 -84q57 -29 57 -87z" />
    <glyph glyph-name="questiondown" unicode="&#xbf;" horiz-adv-x="484" 
d="M444 -120q-27 -28 -76.5 -52t-117.5 -24q-80 0 -135 45.5t-55 121.5q0 32 8.5 58t25 44.5t28 28t30.5 21.5q75 48 77 130q0 13 -2 35h115l5 -26q4 -19 4 -40q0 -86 -92 -152q-15 -11 -29.5 -20.5t-25.5 -25.5t-11 -35q0 -35 23 -52t59 -17q20 0 38 5t30 12.5t23.5 15.5
t16.5 13zM353 439q0 -35 -24.5 -59t-58.5 -24t-58 24.5t-24 58.5t24.5 58.5t59.5 24.5q34 0 57.5 -24t23.5 -59z" />
    <glyph glyph-name="Agrave" unicode="&#xc0;" horiz-adv-x="592" 
d="M600 0h-150l-49 165h-204l-49 -165h-146l228 697h151zM367 281q-23 73 -38 140l-28 123l-33 -134q-20 -77 -37 -129h136zM422 791l-41 -74l-224 100l58 104z" />
    <glyph glyph-name="Aacute" unicode="&#xc1;" horiz-adv-x="592" 
d="M600 0h-150l-49 165h-204l-49 -165h-146l228 697h151zM367 281q-23 73 -38 140l-28 123l-33 -134q-20 -77 -37 -129h136zM457 817l-224 -100l-41 74l207 130z" />
    <glyph glyph-name="Acircumflex" unicode="&#xc2;" horiz-adv-x="592" 
d="M600 0h-150l-49 165h-204l-49 -165h-146l228 697h151zM367 281q-23 73 -38 140l-28 123l-33 -134q-20 -77 -37 -129h136zM482 785l-45 -73l-139 76l-135 -76l-45 73l180 135z" />
    <glyph glyph-name="Atilde" unicode="&#xc3;" horiz-adv-x="592" 
d="M600 0h-150l-49 165h-204l-49 -165h-146l228 697h151zM367 281q-23 73 -38 140l-28 123l-33 -134q-20 -77 -37 -129h136zM490 799q-45 -58 -124 -58q-31 0 -66.5 17t-64.5 17q-41 0 -68 -29l-41 75q46 58 124 58q30 0 66 -17t65 -17q41 0 68 30z" />
    <glyph glyph-name="Adieresis" unicode="&#xc4;" horiz-adv-x="592" 
d="M600 0h-150l-49 165h-204l-49 -165h-146l228 697h151zM367 281q-23 73 -38 140l-28 123l-33 -134q-20 -77 -37 -129h136zM276 795q0 -31 -23 -54t-54 -23t-53.5 23t-22.5 54t23 54t55 23q31 0 53 -22.5t22 -54.5zM488 795q0 -31 -23 -54t-54 -23t-53.5 23t-22.5 54t23 54
t55 23q31 0 53 -22.5t22 -54.5z" />
    <glyph glyph-name="Aring" unicode="&#xc5;" horiz-adv-x="592" 
d="M600 0h-150l-49 165h-204l-49 -165h-146l228 697h151zM367 281q-23 73 -38 140l-28 123l-33 -134q-20 -77 -37 -129h136zM410 819q0 -43 -31 -74.5t-75 -31.5q-43 0 -73.5 31t-30.5 75q0 43 31.5 74.5t74.5 31.5t73.5 -31t30.5 -75zM355 819q0 21 -14.5 36t-34.5 15
q-22 0 -37 -15t-15 -36t15 -36t35 -15q21 0 36 15t15 36z" />
    <glyph glyph-name="AE" unicode="&#xc6;" horiz-adv-x="859" 
d="M834 0h-409v165h-191l-93 -165h-156l414 695h422l-18 -114h-238v-161h199v-114h-197v-186h267v-120zM425 442q0 52 4 80q-51 -102 -130 -241h126v161z" />
    <glyph glyph-name="Ccedilla" unicode="&#xc7;" horiz-adv-x="574" 
d="M549 53q-79 -65 -193 -65h-17l-7 -20q36 -4 54 -25.5t18 -53.5q0 -38 -29 -63t-80 -25q-43 0 -87 24l30 63q34 -15 52 -15q10 0 17.5 6t7.5 12q0 20 -25 20q-6 0 -14.5 -3t-12.5 -3l-13 20l20 73q-84 21 -141 86q-84 94 -84 249q0 128 47 216q40 76 111 118.5t155 42.5
q52 0 99.5 -15t76.5 -40l-63 -95q-53 39 -111 39q-35 0 -67 -16t-51 -44q-39 -58 -39 -179q0 -134 29 -186q43 -78 134 -78q64 0 119 45z" />
    <glyph glyph-name="Egrave" unicode="&#xc8;" horiz-adv-x="505" 
d="M485 0h-405v695h396l-18 -114h-238v-161h199v-114h-197v-186h263v-120zM386 791l-41 -74l-224 100l58 104z" />
    <glyph glyph-name="Eacute" unicode="&#xc9;" horiz-adv-x="505" 
d="M485 0h-405v695h396l-18 -114h-238v-161h199v-114h-197v-186h263v-120zM410 817l-224 -100l-41 74l207 130z" />
    <glyph glyph-name="Ecircumflex" unicode="&#xca;" horiz-adv-x="505" 
d="M485 0h-405v695h396l-18 -114h-238v-161h199v-114h-197v-186h263v-120zM458 785l-45 -73l-139 76l-135 -76l-45 73l180 135z" />
    <glyph glyph-name="Edieresis" unicode="&#xcb;" horiz-adv-x="505" 
d="M485 0h-405v695h396l-18 -114h-238v-161h199v-114h-197v-186h263v-120zM249 795q0 -31 -22.5 -54t-54.5 -23q-31 0 -53.5 23t-22.5 54t23 54t55 23q31 0 53 -22.5t22 -54.5zM460 795q0 -31 -23 -54t-54 -23t-53.5 23t-22.5 54t23 54t55 23q31 0 53 -22.5t22 -54.5z" />
    <glyph glyph-name="Igrave" unicode="&#xcc;" horiz-adv-x="296" 
d="M226 0h-146v695h146v-695zM270 791l-41 -74l-224 100l58 104z" />
    <glyph glyph-name="Iacute" unicode="&#xcd;" horiz-adv-x="296" 
d="M226 0h-146v695h146v-695zM305 817l-224 -100l-41 74l207 130z" />
    <glyph glyph-name="Icircumflex" unicode="&#xce;" horiz-adv-x="296" 
d="M226 0h-146v695h146v-695zM335 785l-45 -73l-139 76l-135 -76l-45 73l180 135z" />
    <glyph glyph-name="Idieresis" unicode="&#xcf;" horiz-adv-x="296" 
d="M226 0h-146v695h146v-695zM124 795q0 -31 -23 -54t-54 -23t-53.5 23t-22.5 54t23 54t55 23q31 0 53 -22.5t22 -54.5zM335 795q0 -31 -22.5 -54t-54.5 -23q-31 0 -53.5 23t-22.5 54t23 54t55 23q31 0 53 -22.5t22 -54.5z" />
    <glyph glyph-name="Eth" unicode="&#xd0;" horiz-adv-x="628" 
d="M583 345q0 -147 -70 -241q-68 -92 -169 -100q-52 -4 -100 -4h-169v306h-76v89h76v300h140q65 0 121 -4q91 -8 152 -69q95 -94 95 -277zM426 332q0 138 -35 195q-35 58 -110 58h-64v-190h107l-24 -89h-83v-192h75q69 0 101.5 53.5t32.5 164.5z" />
    <glyph glyph-name="Ntilde" unicode="&#xd1;" horiz-adv-x="633" 
d="M563 0h-146l-119 266q-77 172 -94 228q4 -51 7 -197l4 -297h-135v695h155l133 -278q51 -108 76 -197q-9 98 -11 191l-3 284h133v-695zM497 799q-45 -58 -124 -58q-31 0 -66.5 17t-64.5 17q-41 0 -68 -29l-41 75q46 58 124 58q30 0 66 -17t65 -17q41 0 68 30z" />
    <glyph glyph-name="Ograve" unicode="&#xd2;" horiz-adv-x="690" 
d="M650 351q0 -118 -40 -203.5t-115 -126.5q-58 -32 -139 -32q-79 0 -132.5 23t-93.5 75q-80 103 -80 258q0 113 41 198.5t116 126.5q63 34 144 34q139 0 219 -94.5t80 -258.5zM489 347q0 103 -18 161q-10 33 -41 60.5t-81 27.5q-35 0 -64 -16.5t-44 -44.5q-35 -66 -35 -190
q0 -181 62 -225q33 -24 83 -24q73 0 105.5 59t32.5 192zM467 791l-41 -74l-224 100l58 104z" />
    <glyph glyph-name="Oacute" unicode="&#xd3;" horiz-adv-x="690" 
d="M650 351q0 -118 -40 -203.5t-115 -126.5q-58 -32 -139 -32q-79 0 -132.5 23t-93.5 75q-80 103 -80 258q0 113 41 198.5t116 126.5q63 34 144 34q139 0 219 -94.5t80 -258.5zM489 347q0 103 -18 161q-10 33 -41 60.5t-81 27.5q-35 0 -64 -16.5t-44 -44.5q-35 -66 -35 -190
q0 -181 62 -225q33 -24 83 -24q73 0 105.5 59t32.5 192zM491 817l-224 -100l-41 74l207 130z" />
    <glyph glyph-name="Ocircumflex" unicode="&#xd4;" horiz-adv-x="690" 
d="M650 351q0 -118 -40 -203.5t-115 -126.5q-58 -32 -139 -32q-79 0 -132.5 23t-93.5 75q-80 103 -80 258q0 113 41 198.5t116 126.5q63 34 144 34q139 0 219 -94.5t80 -258.5zM489 347q0 103 -18 161q-10 33 -41 60.5t-81 27.5q-35 0 -64 -16.5t-44 -44.5q-35 -66 -35 -190
q0 -181 62 -225q33 -24 83 -24q73 0 105.5 59t32.5 192zM535 785l-45 -73l-139 76l-135 -76l-45 73l180 135z" />
    <glyph glyph-name="Otilde" unicode="&#xd5;" horiz-adv-x="690" 
d="M644 351q0 -118 -40 -203.5t-115 -126.5q-58 -32 -139 -32q-79 0 -132.5 23t-93.5 75q-80 103 -80 258q0 113 41 198.5t116 126.5q63 34 144 34q139 0 219 -94.5t80 -258.5zM483 347q0 103 -18 161q-10 33 -41 60.5t-81 27.5q-35 0 -64 -16.5t-44 -44.5q-35 -66 -35 -190
q0 -181 62 -225q33 -24 83 -24q73 0 105.5 59t32.5 192zM534 799q-45 -58 -124 -58q-31 0 -66.5 17t-64.5 17q-41 0 -68 -29l-41 75q46 58 124 58q30 0 66 -17t65 -17q41 0 68 30z" />
    <glyph glyph-name="Odieresis" unicode="&#xd6;" horiz-adv-x="690" 
d="M650 351q0 -118 -40 -203.5t-115 -126.5q-58 -32 -139 -32q-79 0 -132.5 23t-93.5 75q-80 103 -80 258q0 113 41 198.5t116 126.5q63 34 144 34q139 0 219 -94.5t80 -258.5zM489 347q0 103 -18 161q-10 33 -41 60.5t-81 27.5q-35 0 -64 -16.5t-44 -44.5q-35 -66 -35 -190
q0 -181 62 -225q33 -24 83 -24q73 0 105.5 59t32.5 192zM321 795q0 -31 -22.5 -54t-54.5 -23q-31 0 -53.5 23t-22.5 54t23 54t55 23q31 0 53 -22.5t22 -54.5zM532 795q0 -31 -23 -54t-54 -23t-53.5 23t-22.5 54t23 54t55 23q31 0 53 -22.5t22 -54.5z" />
    <glyph glyph-name="multiply" unicode="&#xd7;" horiz-adv-x="626" 
d="M551 154l-89 -89l-149 149l-149 -149l-89 89l149 149l-149 149l89 89l149 -149l149 149l89 -89l-149 -149z" />
    <glyph glyph-name="Oslash" unicode="&#xd8;" horiz-adv-x="690" 
d="M645 351q0 -118 -40 -203.5t-115 -126.5q-58 -32 -139 -32q-93 0 -155 34l-67 -111l-73 41l76 125q-87 106 -87 267q0 113 41 199t116 126q63 34 144 34q83 0 145 -35l61 99l73 -41l-68 -110q88 -94 88 -266zM428 565q-34 31 -84 31q-35 0 -64.5 -16.5t-43.5 -44.5
q-35 -66 -35 -190q0 -80 12 -134zM484 347q0 78 -11 131l-216 -355q39 -27 89 -27q73 0 105.5 59t32.5 192z" />
    <glyph glyph-name="Ugrave" unicode="&#xd9;" horiz-adv-x="646" 
d="M578 227q0 -76 -11 -109q-17 -51 -75.5 -91t-160.5 -40q-164 0 -223 93q-17 27 -23.5 54t-6.5 77v484h143v-457q0 -60 12 -83q25 -48 95 -48q46 0 73.5 21.5t32.5 59.5q2 15 2 62v445h142v-468zM443 791l-41 -74l-224 100l58 104z" />
    <glyph glyph-name="Uacute" unicode="&#xda;" horiz-adv-x="646" 
d="M578 227q0 -76 -11 -109q-17 -51 -75.5 -91t-160.5 -40q-164 0 -223 93q-17 27 -23.5 54t-6.5 77v484h143v-457q0 -60 12 -83q25 -48 95 -48q46 0 73.5 21.5t32.5 59.5q2 15 2 62v445h142v-468zM492 817l-224 -100l-41 74l207 130z" />
    <glyph glyph-name="Ucircumflex" unicode="&#xdb;" horiz-adv-x="646" 
d="M578 227q0 -76 -11 -109q-17 -51 -75.5 -91t-160.5 -40q-164 0 -223 93q-17 27 -23.5 54t-6.5 77v484h143v-457q0 -60 12 -83q25 -48 95 -48q46 0 73.5 21.5t32.5 59.5q2 15 2 62v445h142v-468zM515 785l-45 -73l-139 76l-135 -76l-45 73l180 135z" />
    <glyph glyph-name="Udieresis" unicode="&#xdc;" horiz-adv-x="646" 
d="M578 227q0 -76 -11 -109q-17 -51 -75.5 -91t-160.5 -40q-164 0 -223 93q-17 27 -23.5 54t-6.5 77v484h143v-457q0 -60 12 -83q25 -48 95 -48q46 0 73.5 21.5t32.5 59.5q2 15 2 62v445h142v-468zM299 795q0 -31 -22.5 -54t-54.5 -23q-31 0 -53.5 23t-22.5 54t23 54t55 23
q31 0 53 -22.5t22 -54.5zM509 795q0 -31 -22.5 -54t-54.5 -23q-31 0 -53.5 23t-22.5 54t23 54t55 23q31 0 53 -22.5t22 -54.5z" />
    <glyph glyph-name="Yacute" unicode="&#xdd;" horiz-adv-x="544" 
d="M569 695l-222 -409v-286h-146v286l-216 409h168l89 -190q22 -46 35 -89q19 47 37 87l90 192h165zM435 817l-224 -100l-41 74l207 130z" />
    <glyph glyph-name="Thorn" unicode="&#xde;" horiz-adv-x="576" 
d="M551 371q0 -69 -31.5 -122t-88.5 -80q-49 -23 -139 -23h-77v-146h-140v695h140v-110h43q83 0 121.5 -8t71.5 -26q100 -55 100 -180zM398 368q0 49 -25 76.5t-69 27.5h-89v-212h73q43 0 61 7t32 29q17 27 17 72z" />
    <glyph glyph-name="germandbls" unicode="&#xdf;" horiz-adv-x="612" 
d="M577 193q0 -92 -63 -149t-165 -57q-50 0 -75 12l30 92q13 -5 30 -5q46 0 71 26.5t25 75.5q0 38 -21 60q-18 20 -37 32l-45 29q-44 28 -44 81q0 44 33 70l23 18q32 25 32 64t-18 60q-18 20 -50 20q-26 0 -45 -16.5t-24 -42.5q-3 -15 -3 -70v-390q0 -60 -20 -103h-136
q20 64 20 127v281h-82v104h82v16q0 51 9 81.5t41 59.5q42 39 104 51q28 5 55 5q100 0 158.5 -44.5t58.5 -120.5q0 -81 -74 -125l-32 -19q-13 -8 -13 -18q0 -14 24 -25q80 -35 109 -67q42 -43 42 -113z" />
    <glyph glyph-name="agrave" unicode="&#xe0;" horiz-adv-x="522" 
d="M498 56l-71 -82q-52 22 -72 62q-18 -18 -31 -27q-39 -28 -103 -28q-85 0 -130.5 41.5t-45.5 118.5q0 176 246 176q19 0 30 -1v21q0 44 -12 60t-48 16q-62 0 -148 -58l-57 96q35 22 83 42q71 30 140 30q64 0 107 -23t58 -66q10 -30 9 -92l-3 -172q-1 -45 7.5 -67.5
t40.5 -46.5zM319 224h-6q-71 0 -98 -16.5t-27 -61.5q0 -30 16.5 -48.5t42.5 -18.5q38 0 70 35zM386 631l-41 -74l-224 100l58 104z" />
    <glyph glyph-name="aacute" unicode="&#xe1;" horiz-adv-x="522" 
d="M498 56l-71 -82q-52 22 -72 62q-18 -18 -31 -27q-39 -28 -103 -28q-85 0 -130.5 41.5t-45.5 118.5q0 176 246 176q19 0 30 -1v21q0 44 -12 60t-48 16q-62 0 -148 -58l-57 96q35 22 83 42q71 30 140 30q64 0 107 -23t58 -66q10 -30 9 -92l-3 -172q-1 -45 7.5 -67.5
t40.5 -46.5zM319 224h-6q-71 0 -98 -16.5t-27 -61.5q0 -30 16.5 -48.5t42.5 -18.5q38 0 70 35zM417 657l-224 -100l-41 74l207 130z" />
    <glyph glyph-name="acircumflex" unicode="&#xe2;" horiz-adv-x="522" 
d="M498 56l-71 -82q-52 22 -72 62q-18 -18 -31 -27q-39 -28 -103 -28q-85 0 -130.5 41.5t-45.5 118.5q0 176 246 176q19 0 30 -1v21q0 44 -12 60t-48 16q-62 0 -148 -58l-57 96q35 22 83 42q71 30 140 30q64 0 107 -23t58 -66q10 -30 9 -92l-3 -172q-1 -45 7.5 -67.5
t40.5 -46.5zM319 224h-6q-71 0 -98 -16.5t-27 -61.5q0 -30 16.5 -48.5t42.5 -18.5q38 0 70 35zM442 625l-45 -73l-139 76l-135 -76l-45 73l180 135z" />
    <glyph glyph-name="atilde" unicode="&#xe3;" horiz-adv-x="522" 
d="M498 56l-71 -82q-52 22 -72 62q-18 -18 -31 -27q-39 -28 -103 -28q-85 0 -130.5 41.5t-45.5 118.5q0 176 246 176q19 0 30 -1v21q0 44 -12 60t-48 16q-62 0 -148 -58l-57 96q35 22 83 42q71 30 140 30q64 0 107 -23t58 -66q10 -30 9 -92l-3 -172q-1 -45 7.5 -67.5
t40.5 -46.5zM319 224h-6q-71 0 -98 -16.5t-27 -61.5q0 -30 16.5 -48.5t42.5 -18.5q38 0 70 35zM446 639q-45 -58 -124 -58q-31 0 -66.5 17t-64.5 17q-41 0 -68 -29l-41 75q46 58 124 58q30 0 66 -17t65 -17q41 0 68 30z" />
    <glyph glyph-name="adieresis" unicode="&#xe4;" horiz-adv-x="522" 
d="M498 56l-71 -82q-52 22 -72 62q-18 -18 -31 -27q-39 -28 -103 -28q-85 0 -130.5 41.5t-45.5 118.5q0 176 246 176q19 0 30 -1v21q0 44 -12 60t-48 16q-62 0 -148 -58l-57 96q35 22 83 42q71 30 140 30q64 0 107 -23t58 -66q10 -30 9 -92l-3 -172q-1 -45 7.5 -67.5
t40.5 -46.5zM319 224h-6q-71 0 -98 -16.5t-27 -61.5q0 -30 16.5 -48.5t42.5 -18.5q38 0 70 35zM233 635q0 -33 -23.5 -56.5t-56.5 -23.5q-32 0 -55.5 23.5t-23.5 56.5q0 32 24.5 56t57.5 24q31 0 54 -24t23 -56zM445 636q0 -33 -24 -57t-56 -24t-56 24t-24 57t24.5 56.5
t57.5 23.5q32 0 55 -23.5t23 -56.5z" />
    <glyph glyph-name="aring" unicode="&#xe5;" horiz-adv-x="522" 
d="M498 56l-71 -82q-52 22 -72 62q-18 -18 -31 -27q-39 -28 -103 -28q-85 0 -130.5 41.5t-45.5 118.5q0 176 246 176q19 0 30 -1v21q0 44 -12 60t-48 16q-62 0 -148 -58l-57 96q35 22 83 42q71 30 140 30q64 0 107 -23t58 -66q10 -30 9 -92l-3 -172q-1 -45 7.5 -67.5
t40.5 -46.5zM319 224h-6q-71 0 -98 -16.5t-27 -61.5q0 -30 16.5 -48.5t42.5 -18.5q38 0 70 35zM371 659q0 -43 -31.5 -74.5t-74.5 -31.5t-73.5 31t-30.5 75q0 43 31.5 74.5t74.5 31.5t73.5 -31t30.5 -75zM316 659q0 21 -14.5 36t-34.5 15q-22 0 -37 -15t-15 -36t15 -36
t35 -15q21 0 36 15t15 36z" />
    <glyph glyph-name="ae" unicode="&#xe6;" horiz-adv-x="772" 
d="M742 213h-296v-4q0 -59 28 -91.5t80 -32.5q68 0 130 51l52 -80q-87 -71 -193 -71q-53 0 -84.5 10.5t-68.5 39.5l-18 18q-19 -27 -53 -45q-49 -27 -103 -27q-85 0 -130.5 41.5t-45.5 118.5q0 176 246 176q4 0 13 -0.5t17 -0.5v21q0 44 -12 60t-48 16q-62 0 -148 -58
l-57 96q31 21 83 42q71 30 140 30q71 0 130 -47q50 46 122 46q96 0 148 -54q68 -69 68 -224v-31zM314 224h-6q-71 0 -98 -16.5t-27 -61.5q0 -30 16.5 -48.5t42.5 -18.5q38 0 71 36zM603 311v6q0 52 -16 77q-19 30 -59 30q-38 0 -59 -29t-21 -82v-2h155z" />
    <glyph glyph-name="ccedilla" unicode="&#xe7;" horiz-adv-x="465" 
d="M440 58q-24 -24 -47 -38q-54 -32 -117 -32l-7 -20q36 -4 54 -25.5t18 -53.5q0 -38 -29 -63t-80 -25q-43 0 -87 24l30 63q34 -15 52 -15q10 0 17.5 6t7.5 12q0 20 -25 20q-6 0 -14.5 -3t-12.5 -3l-13 20l19 70q-77 19 -119 85.5t-42 171.5q0 165 105 237q56 38 127 38
q51 0 99 -23q21 -11 50 -36l-65 -88q-43 40 -81 40q-45 0 -66 -41t-21 -131q0 -97 26 -129q23 -29 60 -29q44 0 92 42l8 7z" />
    <glyph glyph-name="egrave" unicode="&#xe8;" horiz-adv-x="516" 
d="M491 214h-296v-4q0 -59 28 -91.5t80 -32.5q69 0 130 51l52 -80q-87 -71 -193 -71q-110 0 -176 72t-66 193q0 132 64 203q62 69 161 69q96 0 148 -54q68 -69 68 -224v-31zM352 312v6q0 52 -16 77q-20 30 -59 30q-38 0 -59 -29t-21 -82v-2h155zM370 631l-41 -74l-224 100
l58 104z" />
    <glyph glyph-name="eacute" unicode="&#xe9;" horiz-adv-x="516" 
d="M491 214h-296v-4q0 -59 28 -91.5t80 -32.5q69 0 130 51l52 -80q-87 -71 -193 -71q-110 0 -176 72t-66 193q0 132 64 203q62 69 161 69q96 0 148 -54q68 -69 68 -224v-31zM352 312v6q0 52 -16 77q-20 30 -59 30q-38 0 -59 -29t-21 -82v-2h155zM421 657l-224 -100l-41 74
l207 130z" />
    <glyph glyph-name="ecircumflex" unicode="&#xea;" horiz-adv-x="516" 
d="M491 214h-296v-4q0 -59 28 -91.5t80 -32.5q69 0 130 51l52 -80q-87 -71 -193 -71q-110 0 -176 72t-66 193q0 132 64 203q62 69 161 69q96 0 148 -54q68 -69 68 -224v-31zM352 312v6q0 52 -16 77q-20 30 -59 30q-38 0 -59 -29t-21 -82v-2h155zM458 625l-45 -73l-139 76
l-135 -76l-45 73l180 135z" />
    <glyph glyph-name="edieresis" unicode="&#xeb;" horiz-adv-x="516" 
d="M491 214h-296v-4q0 -59 28 -91.5t80 -32.5q69 0 130 51l52 -80q-87 -71 -193 -71q-110 0 -176 72t-66 193q0 132 64 203q62 69 161 69q96 0 148 -54q68 -69 68 -224v-31zM352 312v6q0 52 -16 77q-20 30 -59 30q-38 0 -59 -29t-21 -82v-2h155zM247 635q0 -31 -22.5 -54
t-54.5 -23q-31 0 -53.5 23t-22.5 54t23 54t55 23q31 0 53 -22.5t22 -54.5zM458 635q0 -31 -23 -54t-54 -23t-53.5 23t-22.5 54t23 54t55 23q31 0 53 -22.5t22 -54.5z" />
    <glyph glyph-name="igrave" unicode="&#xec;" horiz-adv-x="284" 
d="M214 0h-134v503l134 21v-524zM255 631l-41 -74l-224 100l58 104z" />
    <glyph glyph-name="iacute" unicode="&#xed;" horiz-adv-x="284" 
d="M214 0h-134v503l134 21v-524zM308 657l-224 -100l-41 74l207 130z" />
    <glyph glyph-name="icircumflex" unicode="&#xee;" horiz-adv-x="284" 
d="M214 0h-134v503l134 21v-524zM329 625l-45 -73l-139 76l-135 -76l-45 73l180 135z" />
    <glyph glyph-name="idieresis" unicode="&#xef;" horiz-adv-x="284" 
d="M214 0h-134v503l134 21v-524zM118 635q0 -31 -23 -54t-54 -23t-53.5 23t-22.5 54t23 54t55 23q31 0 53 -22.5t22 -54.5zM329 635q0 -31 -22.5 -54t-54.5 -23q-31 0 -53.5 23t-22.5 54t23 54t55 23q31 0 53 -22.5t22 -54.5z" />
    <glyph glyph-name="eth" unicode="&#xf0;" horiz-adv-x="536" 
d="M491 241q0 -121 -62.5 -187t-162.5 -66q-97 0 -159 61t-62 165q0 95 59.5 152t152.5 57q7 0 52 -3q-28 39 -66 72q-8 7 -26 21l-41 -47l-81 36l48 54q-64 29 -142 38l80 95q73 -8 142 -41l31 36l81 -36l-37 -43q47 -32 79 -70q114 -134 114 -294zM358 233q0 14 -6 65
q-30 19 -89 19q-39 0 -61 -27t-22 -78q0 -52 24.5 -83.5t67.5 -31.5t64.5 37t21.5 99z" />
    <glyph glyph-name="ntilde" unicode="&#xf1;" horiz-adv-x="554" 
d="M484 0h-132v333q0 44 -9.5 59.5t-35.5 15.5q-42 0 -93 -46v-362h-134v371q0 69 -18 120l119 34q19 -33 19 -64q38 26 59 38q42 22 92 22q43 0 77 -20.5t46 -53.5q10 -27 10 -73v-374zM462 639q-45 -58 -124 -58q-31 0 -66.5 17t-64.5 17q-41 0 -68 -29l-41 75
q46 58 124 58q30 0 66 -17t65 -17q41 0 68 30z" />
    <glyph glyph-name="ograve" unicode="&#xf2;" horiz-adv-x="543" 
d="M508 258q0 -125 -64 -198q-63 -71 -169 -71q-104 0 -167 72t-63 193t63 194.5t167 73.5q109 0 174 -77q59 -69 59 -187zM362 259q0 103 -27 137q-21 27 -58 27q-51 0 -69 -52q-14 -42 -14 -114q0 -89 17 -129q9 -20 28 -31t40 -11q44 0 63.5 41t19.5 132zM368 631
l-41 -74l-224 100l58 104z" />
    <glyph glyph-name="oacute" unicode="&#xf3;" horiz-adv-x="543" 
d="M508 258q0 -125 -64 -198q-63 -71 -169 -71q-104 0 -167 72t-63 193t63 194.5t167 73.5q109 0 174 -77q59 -69 59 -187zM362 259q0 103 -27 137q-21 27 -58 27q-51 0 -69 -52q-14 -42 -14 -114q0 -89 17 -129q9 -20 28 -31t40 -11q44 0 63.5 41t19.5 132zM422 657
l-224 -100l-41 74l207 130z" />
    <glyph glyph-name="ocircumflex" unicode="&#xf4;" horiz-adv-x="543" 
d="M508 258q0 -125 -64 -198q-63 -71 -169 -71q-104 0 -167 72t-63 193t63 194.5t167 73.5q109 0 174 -77q59 -69 59 -187zM362 259q0 103 -27 137q-21 27 -58 27q-51 0 -69 -52q-14 -42 -14 -114q0 -89 17 -129q9 -20 28 -31t40 -11q44 0 63.5 41t19.5 132zM459 625
l-45 -73l-139 76l-135 -76l-45 73l180 135z" />
    <glyph glyph-name="otilde" unicode="&#xf5;" horiz-adv-x="543" 
d="M508 258q0 -125 -64 -198q-63 -71 -169 -71q-104 0 -167 72t-63 193t63 194.5t167 73.5q109 0 174 -77q59 -69 59 -187zM362 259q0 103 -27 137q-21 27 -58 27q-51 0 -69 -52q-14 -42 -14 -114q0 -89 17 -129q9 -20 28 -31t40 -11q44 0 63.5 41t19.5 132zM457 639
q-45 -58 -124 -58q-31 0 -66.5 17t-64.5 17q-41 0 -68 -29l-41 75q46 58 124 58q30 0 66 -17t65 -17q41 0 68 30z" />
    <glyph glyph-name="odieresis" unicode="&#xf6;" horiz-adv-x="543" 
d="M508 258q0 -125 -64 -198q-63 -71 -169 -71q-104 0 -167 72t-63 193t63 194.5t167 73.5q109 0 174 -77q59 -69 59 -187zM362 259q0 103 -27 137q-21 27 -58 27q-51 0 -69 -52q-14 -42 -14 -114q0 -89 17 -129q9 -20 28 -31t40 -11q44 0 63.5 41t19.5 132zM247 635
q0 -31 -22.5 -54t-54.5 -23q-31 0 -53.5 23t-22.5 54t23 54t55 23q31 0 53 -22.5t22 -54.5zM458 635q0 -31 -23 -54t-54 -23t-53.5 23t-22.5 54t23 54t55 23q31 0 53 -22.5t22 -54.5z" />
    <glyph glyph-name="divide" unicode="&#xf7;" horiz-adv-x="595" 
d="M550 214h-505v105h505v-105zM382 68q0 -35 -25.5 -59.5t-61.5 -24.5q-35 0 -60.5 24.5t-25.5 59.5q0 37 25.5 63t61.5 26t61 -26t25 -63zM383 467q0 -36 -25.5 -61t-61.5 -25q-35 0 -60 25t-25 60q0 36 25 62t60 26q36 0 61.5 -25.5t25.5 -61.5z" />
    <glyph glyph-name="oslash" unicode="&#xf8;" horiz-adv-x="543" 
d="M503 258q0 -125 -64 -198q-63 -71 -169 -71q-57 0 -103 23l-58 -96l-62 35l62 103q-69 74 -69 200q0 121 63 194.5t167 73.5q61 0 109 -24l59 96l62 -35l-65 -105q68 -67 68 -196zM357 259q0 42 -3 60l-131 -215q23 -18 51 -18q44 0 63.5 41t19.5 132zM322 404
q-21 19 -50 19q-51 0 -69 -52q-14 -42 -14 -114q0 -10 3 -67z" />
    <glyph glyph-name="ugrave" unicode="&#xf9;" horiz-adv-x="546" 
d="M507 40l-95 -54q-27 19 -40 50q-51 -49 -135 -49q-54 0 -96 23t-55 60q-11 32 -11 102v328l132 25v-329q0 -62 11 -84q12 -24 47 -24q25 0 50 15t33 34v360l128 27v-391q0 -56 31 -93zM400 631l-41 -74l-224 100l58 104z" />
    <glyph glyph-name="uacute" unicode="&#xfa;" horiz-adv-x="546" 
d="M507 40l-95 -54q-27 19 -40 50q-51 -49 -135 -49q-54 0 -96 23t-55 60q-11 32 -11 102v328l132 25v-329q0 -62 11 -84q12 -24 47 -24q25 0 50 15t33 34v360l128 27v-391q0 -56 31 -93zM435 657l-224 -100l-41 74l207 130z" />
    <glyph glyph-name="ucircumflex" unicode="&#xfb;" horiz-adv-x="546" 
d="M507 40l-95 -54q-27 19 -40 50q-51 -49 -135 -49q-54 0 -96 23t-55 60q-11 32 -11 102v328l132 25v-329q0 -62 11 -84q12 -24 47 -24q25 0 50 15t33 34v360l128 27v-391q0 -56 31 -93zM461 625l-45 -73l-139 76l-135 -76l-45 73l180 135z" />
    <glyph glyph-name="udieresis" unicode="&#xfc;" horiz-adv-x="546" 
d="M507 40l-95 -54q-27 19 -40 50q-51 -49 -135 -49q-54 0 -96 23t-55 60q-11 32 -11 102v328l132 25v-329q0 -62 11 -84q12 -24 47 -24q25 0 50 15t33 34v360l128 27v-391q0 -56 31 -93zM244 635q0 -31 -23 -54t-54 -23t-53.5 23t-22.5 54t23 54t55 23q31 0 53 -22.5
t22 -54.5zM460 635q0 -31 -23 -54t-54 -23t-53.5 23t-22.5 54t23 54t55 23q31 0 53 -22.5t22 -54.5z" />
    <glyph glyph-name="yacute" unicode="&#xfd;" horiz-adv-x="507" 
d="M512 512l-186 -520q-26 -73 -48 -110.5t-50 -58.5q-51 -37 -124 -47l-46 88q57 16 83 34q21 15 38 42q14 23 29 60h-34l-48 144l-121 360l137 16l89 -299q4 -17 15 -60t12 -46q0 15 16 82q9 37 20 71l77 244h141zM426 657l-224 -100l-41 74l207 130z" />
    <glyph glyph-name="thorn" unicode="&#xfe;" horiz-adv-x="558" 
d="M513 265q0 -160 -95 -235q-50 -40 -112 -40q-67 0 -106 39v-215l-129 -34v803q0 89 -9 126l137 32q5 -44 5 -91v-121q0 -33 -3 -45q38 41 109 41q94 0 148.5 -70t54.5 -190zM361 262q0 61 -6 87q-15 65 -73 65q-39 0 -76 -41v-236q37 -33 75 -33q49 0 65 40q15 35 15 118
z" />
    <glyph glyph-name="ydieresis" unicode="&#xff;" horiz-adv-x="507" 
d="M512 512l-186 -520q-26 -73 -48 -110.5t-50 -58.5q-51 -37 -124 -47l-46 88q57 16 83 34q21 15 38 42q14 23 29 60h-34l-48 144l-121 360l137 16l89 -299q4 -17 15 -60t12 -46q0 15 16 82q9 37 20 71l77 244h141zM242 635q0 -31 -23 -54t-54 -23t-53.5 23t-22.5 54t23 54
t55 23q31 0 53 -22.5t22 -54.5zM453 635q0 -31 -22.5 -54t-54.5 -23q-31 0 -53.5 23t-22.5 54t23 54t55 23q31 0 53 -22.5t22 -54.5z" />
    <glyph glyph-name="Amacron" unicode="&#x100;" horiz-adv-x="592" 
d="M600 0h-150l-49 165h-204l-49 -165h-146l228 697h151zM367 281q-23 73 -38 140l-28 123l-33 -134q-20 -77 -37 -129h136zM461 748h-314v92h314v-92z" />
    <glyph glyph-name="amacron" unicode="&#x101;" horiz-adv-x="522" 
d="M498 56l-71 -82q-52 22 -72 62q-18 -18 -31 -27q-39 -28 -103 -28q-85 0 -130.5 41.5t-45.5 118.5q0 176 246 176q19 0 30 -1v21q0 44 -12 60t-48 16q-62 0 -148 -58l-57 96q35 22 83 42q71 30 140 30q64 0 107 -23t58 -66q10 -30 9 -92l-3 -172q-1 -45 7.5 -67.5
t40.5 -46.5zM319 224h-6q-71 0 -98 -16.5t-27 -61.5q0 -30 16.5 -48.5t42.5 -18.5q38 0 70 35zM422 589h-314v78h314v-78z" />
    <glyph glyph-name="Abreve" unicode="&#x102;" horiz-adv-x="592" 
d="M600 0h-150l-49 165h-204l-49 -165h-146l228 697h151zM367 281q-23 73 -38 140l-28 123l-33 -134q-20 -77 -37 -129h136zM493 843q-10 -12 -24 -26.5t-41 -39t-59.5 -40t-62.5 -15.5q-54 0 -108.5 43.5t-81.5 80.5l43 54q71 -68 151 -68q61 0 147 68z" />
    <glyph glyph-name="abreve" unicode="&#x103;" horiz-adv-x="522" 
d="M498 56l-71 -82q-52 22 -72 62q-18 -18 -31 -27q-39 -28 -103 -28q-85 0 -130.5 41.5t-45.5 118.5q0 176 246 176q19 0 30 -1v21q0 44 -12 60t-48 16q-62 0 -148 -58l-57 96q35 22 83 42q71 30 140 30q64 0 107 -23t58 -66q10 -30 9 -92l-3 -172q-1 -45 7.5 -67.5
t40.5 -46.5zM319 224h-6q-71 0 -98 -16.5t-27 -61.5q0 -30 16.5 -48.5t42.5 -18.5q38 0 70 35zM452 676q-10 -12 -24 -26.5t-41 -39t-59.5 -40t-62.5 -15.5q-54 0 -108.5 43.5t-81.5 80.5l43 54q71 -68 151 -68q61 0 147 68z" />
    <glyph glyph-name="Aogonek" unicode="&#x104;" horiz-adv-x="592" 
d="M607 -174q-62 -27 -111 -27q-47 0 -75 25.5t-28 66.5q0 59 52 109l-49 165h-204l-49 -165h-146l228 697h151l219 -697h-14q-39 0 -64 -26.5t-25 -57.5q0 -6 2 -14q7 -24 32 -24q23 0 53 15zM362 281q-23 73 -38 140l-28 123l-33 -134q-20 -77 -37 -129h136z" />
    <glyph glyph-name="aogonek" unicode="&#x105;" horiz-adv-x="522" 
d="M511 -174q-62 -27 -111 -27q-46 0 -74.5 25t-28.5 67q0 59 73 118q-13 13 -20 27q-18 -18 -31 -27q-39 -28 -103 -28q-85 0 -130.5 41.5t-45.5 118.5q0 176 246 176q19 0 30 -1v21q0 44 -12 60t-48 16q-62 0 -148 -58l-57 96q35 22 83 42q71 30 140 30q64 0 107 -23
t58 -66q10 -30 9 -92l-3 -191q-1 -68 50 -114q-98 -69 -98 -124q0 -1 0.5 -4t0.5 -4q4 -27 32 -27q23 0 53 15zM314 224h-6q-71 0 -98 -16.5t-27 -61.5q0 -30 16.5 -48.5t42.5 -18.5q38 0 70 35z" />
    <glyph glyph-name="Cacute" unicode="&#x106;" horiz-adv-x="574" 
d="M554 53q-79 -65 -193 -65q-143 0 -227 96q-84 94 -84 249q0 128 47 216q40 76 111 118.5t155 42.5q51 0 99 -15t77 -40l-63 -95q-52 39 -111 39q-35 0 -67 -16t-51 -44q-39 -58 -39 -179q0 -134 29 -186q43 -78 134 -78q63 0 119 45zM493 817l-224 -100l-41 74l207 130z
" />
    <glyph glyph-name="cacute" unicode="&#x107;" horiz-adv-x="465" 
d="M445 58q-24 -24 -47 -38q-55 -32 -125 -32q-106 0 -164.5 69.5t-58.5 194.5q0 165 105 237q56 38 127 38q56 0 99 -23q21 -11 50 -36l-65 -88q-43 40 -81 40q-45 0 -66 -41t-21 -131q0 -95 26 -129q23 -29 60 -29q44 0 92 42l8 7zM424 655l-224 -100l-41 74l207 130z" />
    <glyph glyph-name="Ccircumflex" unicode="&#x108;" horiz-adv-x="574" 
d="M554 53q-79 -65 -193 -65q-143 0 -227 96q-84 94 -84 249q0 128 47 216q40 76 111 118.5t155 42.5q51 0 99 -15t77 -40l-63 -95q-52 39 -111 39q-35 0 -67 -16t-51 -44q-39 -58 -39 -179q0 -134 29 -186q43 -78 134 -78q63 0 119 45zM546 785l-45 -73l-139 76l-135 -76
l-45 73l180 135z" />
    <glyph glyph-name="ccircumflex" unicode="&#x109;" horiz-adv-x="465" 
d="M445 58q-24 -24 -47 -38q-55 -32 -125 -32q-106 0 -164.5 69.5t-58.5 194.5q0 165 105 237q56 38 127 38q56 0 99 -23q21 -11 50 -36l-65 -88q-43 40 -81 40q-45 0 -66 -41t-21 -131q0 -95 26 -129q23 -29 60 -29q44 0 92 42l8 7zM466 625l-45 -73l-139 76l-135 -76
l-45 73l180 135z" />
    <glyph glyph-name="Cdotaccent" unicode="&#x10a;" horiz-adv-x="574" 
d="M554 53q-79 -65 -193 -65q-143 0 -227 96q-84 94 -84 249q0 128 47 216q40 76 111 118.5t155 42.5q51 0 99 -15t77 -40l-63 -95q-52 39 -111 39q-35 0 -67 -16t-51 -44q-39 -58 -39 -179q0 -134 29 -186q43 -78 134 -78q63 0 119 45zM446 801q0 -35 -24 -59t-59 -24
q-34 0 -58 24.5t-24 58.5t24.5 58.5t59.5 24.5q34 0 57.5 -24t23.5 -59z" />
    <glyph glyph-name="cdotaccent" unicode="&#x10b;" horiz-adv-x="465" 
d="M445 58q-24 -24 -47 -38q-55 -32 -125 -32q-106 0 -164.5 69.5t-58.5 194.5q0 165 105 237q56 38 127 38q56 0 99 -23q21 -11 50 -36l-65 -88q-43 40 -81 40q-45 0 -66 -41t-21 -131q0 -95 26 -129q23 -29 60 -29q44 0 92 42l8 7zM365 653q0 -35 -24.5 -59t-58.5 -24
t-58 24.5t-24 58.5t24.5 58.5t59.5 24.5q34 0 57.5 -24t23.5 -59z" />
    <glyph glyph-name="Ccaron" unicode="&#x10c;" horiz-adv-x="574" 
d="M554 53q-79 -65 -193 -65q-143 0 -227 96q-84 94 -84 249q0 128 47 216q40 76 111 118.5t155 42.5q51 0 99 -15t77 -40l-63 -95q-52 39 -111 39q-35 0 -67 -16t-51 -44q-39 -58 -39 -179q0 -134 29 -186q43 -78 134 -78q63 0 119 45zM533 852l-180 -135l-184 135l45 73
l139 -76l135 76z" />
    <glyph glyph-name="ccaron" unicode="&#x10d;" horiz-adv-x="465" 
d="M445 58q-24 -24 -47 -38q-55 -32 -125 -32q-106 0 -164.5 69.5t-58.5 194.5q0 165 105 237q56 38 127 38q56 0 99 -23q21 -11 50 -36l-65 -88q-43 40 -81 40q-45 0 -66 -41t-21 -131q0 -95 26 -129q23 -29 60 -29q44 0 92 42l8 7zM457 690l-180 -135l-184 135l45 73
l139 -76l135 76z" />
    <glyph glyph-name="Dcaron" unicode="&#x10e;" horiz-adv-x="628" 
d="M588 345q0 -147 -70 -241q-68 -92 -169 -100q-52 -4 -100 -4h-169v695h140q65 0 121 -4q91 -8 152 -69q95 -94 95 -277zM431 332q0 138 -35 195q-35 58 -110 58h-64v-471h75q69 0 101.5 53.5t32.5 164.5zM470 852l-180 -135l-184 135l45 73l139 -76l135 76z" />
    <glyph glyph-name="dcaron" unicode="&#x10f;" horiz-adv-x="559" 
d="M693 647q0 -53 -35 -94q-33 -41 -90 -56l-43 46q27 8 43 23t17 31v2q0 5 -2.5 7t-9 5t-10.5 6q-33 19 -33 57q0 29 22 49.5t53 20.5q40 0 64 -26.5t24 -70.5zM508 0h-120q-5 10 -8 30q-49 -43 -118 -43q-97 0 -154.5 70.5t-57.5 189.5q0 120 61 195t158 75q55 0 91 -29
q-4 22 -4 76v176l133 -21v-532q0 -145 19 -187zM358 133v244q-38 33 -73 33q-45 0 -65.5 -39t-20.5 -125q0 -82 20 -114t73 -32q39 0 66 33z" />
    <glyph glyph-name="Dcroat" unicode="&#x110;" horiz-adv-x="628" 
d="M583 345q0 -147 -70 -241q-68 -92 -169 -100q-52 -4 -100 -4h-169v306h-76v89h76v300h140q65 0 121 -4q91 -8 152 -69q95 -94 95 -277zM426 332q0 138 -35 195q-35 58 -110 58h-64v-190h107l-24 -89h-83v-192h75q69 0 101.5 53.5t32.5 164.5z" />
    <glyph glyph-name="dcroat" unicode="&#x111;" horiz-adv-x="559" 
d="M554 570h-70v-383q0 -145 19 -187h-120q-5 10 -8 30q-49 -43 -118 -43q-97 0 -154.5 70.5t-57.5 189.5q0 120 61 195t158 75q55 0 91 -29q-4 22 -4 76v6h-111v78h111v92l133 -21v-71h70v-78zM353 133v244q-37 33 -73 33q-45 0 -65.5 -39t-20.5 -125q0 -82 20 -114t73 -32
q39 0 66 33z" />
    <glyph glyph-name="Emacron" unicode="&#x112;" horiz-adv-x="505" 
d="M485 0h-405v695h396l-18 -114h-238v-161h199v-114h-197v-186h263v-120zM434 748h-314v92h314v-92z" />
    <glyph glyph-name="emacron" unicode="&#x113;" horiz-adv-x="516" 
d="M491 214h-296v-4q0 -59 28 -91.5t80 -32.5q69 0 130 51l52 -80q-87 -71 -193 -71q-110 0 -176 72t-66 193q0 132 64 203q62 69 161 69q96 0 148 -54q68 -69 68 -224v-31zM352 312v6q0 52 -16 77q-20 30 -59 30q-38 0 -59 -29t-21 -82v-2h155zM435 589h-314v78h314v-78z
" />
    <glyph glyph-name="Edotaccent" unicode="&#x116;" horiz-adv-x="505" 
d="M485 0h-405v695h396l-18 -114h-238v-161h199v-114h-197v-186h263v-120zM359 800q0 -34 -24.5 -58.5t-58.5 -24.5t-58 24.5t-24 58.5t24.5 58.5t59.5 24.5q34 0 57.5 -24t23.5 -59z" />
    <glyph glyph-name="edotaccent" unicode="&#x117;" horiz-adv-x="516" 
d="M491 214h-296v-4q0 -59 28 -91.5t80 -32.5q69 0 130 51l52 -80q-87 -71 -193 -71q-110 0 -176 72t-66 193q0 132 64 203q62 69 161 69q96 0 148 -54q68 -69 68 -224v-31zM352 312v6q0 52 -16 77q-20 30 -59 30q-38 0 -59 -29t-21 -82v-2h155zM360 653q0 -35 -24 -59
t-59 -24q-34 0 -58 24.5t-24 58.5t24.5 58.5t59.5 24.5q34 0 57.5 -24t23.5 -59z" />
    <glyph glyph-name="Eogonek" unicode="&#x118;" horiz-adv-x="505" 
d="M506 -174q-62 -27 -111 -27q-47 0 -75 25.5t-28 66.5q0 59 52 109h-269v695h396l-18 -114h-238v-161h199v-114h-197v-186h263v-120q-39 0 -64 -26.5t-25 -57.5q0 -6 2 -14q7 -24 32 -24q23 0 53 15z" />
    <glyph glyph-name="eogonek" unicode="&#x119;" horiz-adv-x="516" 
d="M486 214h-296v-4q0 -59 28 -91.5t80 -32.5q68 0 130 51l52 -80l-27 -20q-97 -71 -97 -124q0 -1 0.5 -4t0.5 -4q4 -27 32 -27q23 0 53 15l28 -67q-62 -27 -111 -27q-46 0 -74.5 25t-28.5 67q0 48 48 96q-3 0 -9 -0.5t-8 -0.5q-110 0 -176 72t-66 193q0 132 64 203
q62 69 161 69q96 0 148 -54q68 -69 68 -224v-31zM347 312v6q0 52 -16 77q-19 30 -59 30q-38 0 -59 -30t-21 -83h155z" />
    <glyph glyph-name="Ecaron" unicode="&#x11a;" horiz-adv-x="505" 
d="M485 0h-405v695h396l-18 -114h-238v-161h199v-114h-197v-186h263v-120zM459 852l-180 -135l-184 135l45 73l139 -76l135 76z" />
    <glyph glyph-name="ecaron" unicode="&#x11b;" horiz-adv-x="516" 
d="M491 214h-296v-4q0 -59 28 -91.5t80 -32.5q69 0 130 51l52 -80q-87 -71 -193 -71q-110 0 -176 72t-66 193q0 132 64 203q62 69 161 69q96 0 148 -54q68 -69 68 -224v-31zM352 312v6q0 52 -16 77q-20 30 -59 30q-38 0 -59 -29t-21 -82v-2h155zM460 690l-180 -135l-184 135
l45 73l139 -76l135 76z" />
    <glyph glyph-name="Gcircumflex" unicode="&#x11c;" horiz-adv-x="652" 
d="M592 54q-105 -62 -231 -62q-155 0 -237 106q-74 94 -74 243q0 219 145 316q73 49 169 49q129 0 221 -80l-74 -87q-66 54 -145 54q-63 0 -100 -35q-59 -56 -59 -224q0 -146 52 -198q41 -39 109 -39q46 0 79 17v158h-106l-18 114h269v-332zM548 785l-45 -73l-139 76
l-135 -76l-45 73l180 135z" />
    <glyph glyph-name="gcircumflex" unicode="&#x11d;" horiz-adv-x="563" 
d="M587 456q-41 -38 -94 -38q-11 0 -35 3q30 -36 30 -84q0 -66 -53.5 -109t-135.5 -43q-10 0 -20 1q-53 -25 -53 -42q0 -12 22 -12l72 -1q106 -1 155 -46q44 -41 44 -109q0 -62 -41 -106q-62 -66 -202 -66q-135 0 -194 55q-42 39 -42 91q0 28 12 52h124q-6 -14 -6 -33
q0 -63 96 -63q57 0 84 17q33 20 33 52q0 59 -94 61l-57 1q-88 1 -123 16q-39 15 -39 67q0 30 18.5 50.5t75.5 35.5q-110 28 -110 142q0 79 59 126t157 47q39 0 92 -13q44 -11 63 -11q57 0 106 44zM350 347q0 36 -21.5 56t-59.5 20t-59 -20t-21 -56q0 -73 79 -73q82 0 82 73z
M463 625l-45 -73l-139 76l-135 -76l-45 73l180 135z" />
    <glyph glyph-name="Gbreve" unicode="&#x11e;" horiz-adv-x="652" 
d="M544 843q-10 -12 -24 -26.5t-41 -39t-59.5 -40t-62.5 -15.5q-54 0 -108.5 43.5t-81.5 80.5l43 54q71 -68 151 -68q61 0 147 68zM592 54q-105 -62 -231 -62q-155 0 -237 106q-74 94 -74 243q0 219 145 316q73 49 169 49q129 0 221 -80l-74 -87q-66 54 -145 54
q-63 0 -100 -35q-59 -56 -59 -224q0 -146 52 -198q41 -39 109 -39q46 0 79 17v158h-106l-18 114h269v-332z" />
    <glyph glyph-name="gbreve" unicode="&#x11f;" horiz-adv-x="563" 
d="M587 456q-41 -38 -94 -38q-11 0 -35 3q30 -36 30 -84q0 -66 -53.5 -109t-135.5 -43q-10 0 -20 1q-53 -25 -53 -42q0 -12 22 -12l72 -1q106 -1 155 -46q44 -41 44 -109q0 -62 -41 -106q-62 -66 -202 -66q-135 0 -194 55q-42 39 -42 91q0 28 12 52h124q-6 -14 -6 -33
q0 -63 96 -63q57 0 84 17q33 20 33 52q0 59 -94 61l-57 1q-88 1 -123 16q-39 15 -39 67q0 30 18.5 50.5t75.5 35.5q-110 28 -110 142q0 79 59 126t157 47q39 0 92 -13q44 -11 63 -11q57 0 106 44zM350 347q0 36 -21.5 56t-59.5 20t-59 -20t-21 -56q0 -73 79 -73q82 0 82 73z
M469 676q-10 -12 -24 -26.5t-41 -39t-59.5 -40t-62.5 -15.5q-54 0 -108.5 43.5t-81.5 80.5l43 54q71 -68 151 -68q61 0 147 68z" />
    <glyph glyph-name="Gdotaccent" unicode="&#x120;" horiz-adv-x="652" 
d="M592 54q-105 -62 -231 -62q-155 0 -237 106q-74 94 -74 243q0 219 145 316q73 49 169 49q129 0 221 -80l-74 -87q-66 54 -145 54q-63 0 -100 -35q-59 -56 -59 -224q0 -146 52 -198q41 -39 109 -39q46 0 79 17v158h-106l-18 114h269v-332zM447 801q0 -35 -24.5 -59
t-58.5 -24t-58 24.5t-24 58.5t24.5 58.5t59.5 24.5q34 0 57.5 -24t23.5 -59z" />
    <glyph glyph-name="gdotaccent" unicode="&#x121;" horiz-adv-x="563" 
d="M587 456q-41 -38 -94 -38q-11 0 -35 3q30 -36 30 -84q0 -66 -53.5 -109t-135.5 -43q-10 0 -20 1q-53 -25 -53 -42q0 -12 22 -12l72 -1q106 -1 155 -46q44 -41 44 -109q0 -62 -41 -106q-62 -66 -202 -66q-135 0 -194 55q-42 39 -42 91q0 28 12 52h124q-6 -14 -6 -33
q0 -63 96 -63q57 0 84 17q33 20 33 52q0 59 -94 61l-57 1q-88 1 -123 16q-39 15 -39 67q0 30 18.5 50.5t75.5 35.5q-110 28 -110 142q0 79 59 126t157 47q39 0 92 -13q44 -11 63 -11q57 0 106 44zM350 347q0 36 -21.5 56t-59.5 20t-59 -20t-21 -56q0 -73 79 -73q82 0 82 73z
M354 653q0 -35 -24 -59t-59 -24q-34 0 -58 24.5t-24 58.5t24.5 58.5t59.5 24.5q34 0 57.5 -24t23.5 -59z" />
    <glyph glyph-name="Gcommaaccent" unicode="&#x122;" horiz-adv-x="652" 
d="M592 54q-105 -62 -231 -62q-155 0 -237 106q-74 94 -74 243q0 219 145 316q73 49 169 49q129 0 221 -80l-74 -87q-66 54 -145 54q-63 0 -100 -35q-59 -56 -59 -224q0 -146 52 -198q41 -39 109 -39q46 0 79 17v158h-106l-18 114h269v-332zM440 -141q0 -53 -35 -94
q-33 -41 -90 -56l-43 46q27 8 43 23t17 31v2q0 5 -2.5 7t-9 5t-10.5 6q-33 19 -33 58q0 29 21.5 49t53.5 20q40 0 64 -26.5t24 -70.5z" />
    <glyph glyph-name="gcommaaccent" unicode="&#x123;" horiz-adv-x="563" 
d="M587 456q-41 -38 -94 -38q-11 0 -35 3q30 -36 30 -84q0 -66 -53.5 -109t-135.5 -43q-10 0 -20 1q-53 -25 -53 -42q0 -12 22 -12l72 -1q106 -1 155 -46q44 -41 44 -109q0 -62 -41 -106q-62 -66 -202 -66q-135 0 -194 55q-42 39 -42 91q0 28 12 52h124q-6 -14 -6 -33
q0 -63 96 -63q57 0 84 17q33 20 33 52q0 59 -94 61l-57 1q-88 1 -123 16q-39 15 -39 67q0 30 18.5 50.5t75.5 35.5q-110 28 -110 142q0 79 59 126t157 47q39 0 92 -13q44 -11 63 -11q57 0 106 44zM350 347q0 36 -21.5 56t-59.5 20t-59 -20t-21 -56q0 -73 79 -73q82 0 82 73z
M188 657q0 53 35 94q33 41 90 56l43 -46q-27 -8 -43 -23t-17 -31v-2q0 -5 2.5 -7t9 -5t10.5 -6q33 -19 33 -58q0 -29 -21.5 -49t-53.5 -20q-40 0 -64 26.5t-24 70.5z" />
    <glyph glyph-name="Hcircumflex" unicode="&#x124;" horiz-adv-x="631" 
d="M561 0h-142v310h-200v-310h-139v695h139v-270h200v270h142v-695zM504 785l-45 -73l-139 76l-135 -76l-45 73l180 135z" />
    <glyph glyph-name="hcircumflex" unicode="&#x125;" horiz-adv-x="575" 
d="M505 0h-131v344q0 38 -12 54t-40 16q-54 0 -106 -47v-367h-136v592q0 82 -10 117l137 32q9 -42 9 -125v-102q0 -9 -1 -25t-1 -18q26 25 66 40t79 15q49 0 85 -19.5t48 -53.5q13 -38 13 -95v-358zM329 794l-45 -73l-139 76l-135 -76l-45 73l180 135z" />
    <glyph glyph-name="Hbar" unicode="&#x126;" horiz-adv-x="631" 
d="M556 0h-142v310h-200v-310h-139v494h-70v113h70v88h139v-88h200v88h142v-88h70v-113h-70v-494zM214 425h200v69h-200v-69z" />
    <glyph glyph-name="hbar" unicode="&#x127;" horiz-adv-x="575" 
d="M500 0h-131v344q0 38 -12 54t-40 16q-54 0 -106 -47v-367h-136v551h-46v84h45q-3 53 -9 74l137 32q7 -37 9 -106h154v-84h-154v-37q0 -9 -1 -25t-1 -18q26 25 66 40t79 15q49 0 85 -19.5t48 -53.5q13 -38 13 -95v-358z" />
    <glyph glyph-name="Imacron" unicode="&#x12a;" horiz-adv-x="296" 
d="M226 0h-146v695h146v-695zM312 748h-314v92h314v-92z" />
    <glyph glyph-name="imacron" unicode="&#x12b;" horiz-adv-x="284" 
d="M214 0h-134v503l134 21v-524zM315 589h-314v78h314v-78z" />
    <glyph glyph-name="Iogonek" unicode="&#x12e;" horiz-adv-x="296" 
d="M237 -174q-62 -27 -111 -27q-47 0 -75 25.5t-28 66.5q0 59 52 109v695h146v-695h-10q-39 0 -64 -26.5t-25 -57.5q0 -6 2 -14q7 -24 32 -24q23 0 53 15z" />
    <glyph glyph-name="iogonek" unicode="&#x12f;" horiz-adv-x="284" 
d="M237 -174q-62 -27 -111 -27q-47 0 -75 25.5t-28 66.5q0 59 52 109v503l134 21v-524q-37 0 -62 -27t-25 -57q0 -6 2 -14q7 -24 32 -24q23 0 53 15zM225 653q0 -35 -24.5 -59t-58.5 -24t-58 24.5t-24 58.5t24.5 58.5t59.5 24.5q34 0 57.5 -24t23.5 -59z" />
    <glyph glyph-name="Idotaccent" unicode="&#x130;" horiz-adv-x="296" 
d="M226 0h-146v695h146v-695zM236 800q0 -34 -24 -58.5t-59 -24.5q-34 0 -58 24.5t-24 58.5t24.5 58.5t59.5 24.5q34 0 57.5 -24t23.5 -59z" />
    <glyph glyph-name="dotlessi" unicode="&#x131;" horiz-adv-x="284" 
d="M209 0h-134v503l134 21v-524z" />
    <glyph glyph-name="Jcircumflex" unicode="&#x134;" horiz-adv-x="297" 
d="M227 135q0 -96 -10 -136q-14 -58 -60.5 -100t-101.5 -63l-65 72q61 37 81 84q14 32 14 128v575h142v-560zM340 785l-45 -73l-139 76l-135 -76l-45 73l180 135z" />
    <glyph glyph-name="jcircumflex" unicode="&#x135;" horiz-adv-x="283" 
d="M213 14q0 -110 -38 -159q-36 -47 -104 -75l-56 74q30 25 49 58q16 29 16 98v481l133 32v-509zM332 625l-45 -73l-139 76l-135 -76l-45 73l180 135z" />
    <glyph glyph-name="Kcommaaccent" unicode="&#x136;" horiz-adv-x="598" 
d="M618 0h-184l-211 363v-363h-143v695h143v-317l198 317h172l-222 -322zM398 -141q0 -53 -35 -94q-33 -41 -90 -56l-43 46q27 8 43 23t17 31v2q0 5 -2.5 7t-9 5t-10.5 6q-33 19 -33 58q0 29 21.5 49t53.5 20q40 0 64 -26.5t24 -70.5z" />
    <glyph glyph-name="kcommaaccent" unicode="&#x137;" horiz-adv-x="527" 
d="M214 0h-134v577q0 73 -9 133l135 33q8 -51 8 -166v-577zM547 0h-158l-172 290l131 222h161l-163 -214zM373 -141q0 -53 -35 -94q-33 -41 -90 -56l-43 46q27 8 43 23t17 31v2q0 5 -2.5 7t-9 5t-10.5 6q-33 19 -33 58q0 29 21.5 49t53.5 20q40 0 64 -26.5t24 -70.5z" />
    <glyph glyph-name="Lacute" unicode="&#x139;" horiz-adv-x="477" 
d="M472 116l-25 -116h-367v695h143v-579h249zM306 817l-224 -100l-41 74l207 130z" />
    <glyph glyph-name="lacute" unicode="&#x13a;" horiz-adv-x="291" 
d="M291 2q-36 -14 -80 -14q-43 0 -75 19t-44 51q-12 31 -12 115v382q0 90 -7 154l137 31q7 -39 7 -133v-399q0 -98 9 -114q8 -14 27 -14q8 0 15 2zM290 831l-224 -100l-41 74l207 130z" />
    <glyph glyph-name="Lcommaaccent" unicode="&#x13b;" horiz-adv-x="477" 
d="M472 116l-25 -116h-367v695h143v-579h249zM347 -141q0 -53 -35 -94q-33 -41 -90 -56l-43 46q27 8 43 23t17 31v2q0 5 -2.5 7t-9 5t-10.5 6q-33 19 -33 58q0 29 21.5 49t53.5 20q40 0 64 -26.5t24 -70.5z" />
    <glyph glyph-name="lcommaaccent" unicode="&#x13c;" horiz-adv-x="291" 
d="M291 2q-36 -14 -80 -14q-43 0 -75 19t-44 51q-12 31 -12 115v382q0 90 -7 154l137 31q7 -39 7 -133v-399q0 -98 9 -114q8 -14 27 -14q8 0 15 2zM268 -141q0 -53 -35 -94q-33 -41 -90 -56l-43 46q27 8 43 23t17 31v2q0 5 -2.5 7t-9 5t-10.5 6q-33 19 -33 58q0 29 21.5 49
t53.5 20q40 0 64 -26.5t24 -70.5z" />
    <glyph glyph-name="Lcaron" unicode="&#x13d;" horiz-adv-x="477" 
d="M472 116l-25 -116h-367v695h143v-579h249zM461 606q0 -53 -35 -94q-33 -41 -90 -56l-43 46q27 8 43 23t17 31v2q0 5 -2.5 7t-9 5t-10.5 6q-33 20 -33 58q0 29 21.5 49t53.5 20q40 0 64 -26.5t24 -70.5z" />
    <glyph glyph-name="lcaron" unicode="&#x13e;" horiz-adv-x="291" 
d="M291 2q-36 -14 -80 -14q-43 0 -75 19t-44 51q-12 31 -12 115v382q0 90 -7 154l137 31q7 -39 7 -133v-399q0 -98 9 -114q8 -14 27 -14q8 0 15 2zM425 647q0 -53 -35 -94q-33 -41 -90 -56l-43 46q27 8 43 23t17 31v2q0 5 -2.5 7t-9 5t-10.5 6q-33 19 -33 58q0 29 21.5 49
t53.5 20q40 0 64 -26.5t24 -70.5z" />
    <glyph glyph-name="Lslash" unicode="&#x141;" horiz-adv-x="477" 
d="M467 116l-25 -116h-367v294l-56 -18v92l56 18v309h143v-262l148 48v-92l-148 -48v-225h249z" />
    <glyph glyph-name="lslash" unicode="&#x142;" horiz-adv-x="291" 
d="M286 2q-36 -14 -80 -14q-43 0 -75 19t-44 51q-12 31 -12 115v113l-40 -13v92l40 13v177q0 90 -7 154l137 31q7 -39 7 -133v-182l54 18v-92l-54 -18v-125q0 -98 9 -114q8 -14 27 -14q8 0 15 2z" />
    <glyph glyph-name="Nacute" unicode="&#x143;" horiz-adv-x="633" 
d="M563 0h-146l-119 266q-77 172 -94 228q4 -51 7 -197l4 -297h-135v695h155l133 -278q51 -108 76 -197q-9 98 -11 191l-3 284h133v-695zM472 817l-224 -100l-41 74l207 130z" />
    <glyph glyph-name="nacute" unicode="&#x144;" horiz-adv-x="554" 
d="M484 0h-132v333q0 44 -9.5 59.5t-35.5 15.5q-42 0 -93 -46v-362h-134v371q0 69 -18 120l119 34q19 -33 19 -64q38 26 59 38q42 22 92 22q43 0 77 -20.5t46 -53.5q10 -27 10 -73v-374zM419 655l-224 -100l-41 74l207 130z" />
    <glyph glyph-name="Ncommaaccent" unicode="&#x145;" horiz-adv-x="633" 
d="M563 0h-146l-119 266q-77 172 -94 228q4 -51 7 -197l4 -297h-135v695h155l133 -278q51 -108 76 -197q-9 98 -11 191l-3 284h133v-695zM402 -141q0 -53 -35 -94q-33 -41 -90 -56l-43 46q27 8 43 23t17 31v2q0 5 -2.5 7t-9 5t-10.5 6q-33 19 -33 58q0 29 21.5 49t53.5 20
q40 0 64 -26.5t24 -70.5z" />
    <glyph glyph-name="ncommaaccent" unicode="&#x146;" horiz-adv-x="554" 
d="M484 0h-132v333q0 44 -9.5 59.5t-35.5 15.5q-42 0 -93 -46v-362h-134v371q0 69 -18 120l119 34q19 -33 19 -64q38 26 59 38q42 22 92 22q43 0 77 -20.5t46 -53.5q10 -27 10 -73v-374zM368 -141q0 -53 -35 -94q-33 -41 -90 -56l-43 46q27 8 43 23t17 31v2q0 5 -2.5 7t-9 5
t-10.5 6q-33 19 -33 58q0 29 21.5 49t53.5 20q40 0 64 -26.5t24 -70.5z" />
    <glyph glyph-name="Ncaron" unicode="&#x147;" horiz-adv-x="633" 
d="M563 0h-146l-119 266q-77 172 -94 228q4 -51 7 -197l4 -297h-135v695h155l133 -278q51 -108 76 -197q-9 98 -11 191l-3 284h133v-695zM503 852l-180 -135l-184 135l45 73l139 -76l135 76z" />
    <glyph glyph-name="ncaron" unicode="&#x148;" horiz-adv-x="554" 
d="M484 0h-132v333q0 44 -9.5 59.5t-35.5 15.5q-42 0 -93 -46v-362h-134v371q0 69 -18 120l119 34q19 -33 19 -64q38 26 59 38q42 22 92 22q43 0 77 -20.5t46 -53.5q10 -27 10 -73v-374zM462 690l-180 -135l-184 135l45 73l139 -76l135 76z" />
    <glyph glyph-name="Omacron" unicode="&#x14c;" horiz-adv-x="690" 
d="M650 351q0 -118 -40 -203.5t-115 -126.5q-58 -32 -139 -32q-79 0 -132.5 23t-93.5 75q-80 103 -80 258q0 113 41 198.5t116 126.5q63 34 144 34q139 0 219 -94.5t80 -258.5zM489 347q0 103 -18 161q-10 33 -41 60.5t-81 27.5q-35 0 -64 -16.5t-44 -44.5q-35 -66 -35 -190
q0 -181 62 -225q33 -24 83 -24q73 0 105.5 59t32.5 192zM508 748h-314v92h314v-92z" />
    <glyph glyph-name="omacron" unicode="&#x14d;" horiz-adv-x="543" 
d="M508 258q0 -125 -64 -198q-63 -71 -169 -71q-104 0 -167 72t-63 193t63 194.5t167 73.5q109 0 174 -77q59 -69 59 -187zM362 259q0 103 -27 137q-21 27 -58 27q-51 0 -69 -52q-14 -42 -14 -114q0 -89 17 -129q9 -20 28 -31t40 -11q44 0 63.5 41t19.5 132zM439 589h-314
v78h314v-78z" />
    <glyph glyph-name="Ohungarumlaut" unicode="&#x150;" horiz-adv-x="690" 
d="M650 351q0 -118 -40 -203.5t-115 -126.5q-58 -32 -139 -32q-79 0 -132.5 23t-93.5 75q-80 103 -80 258q0 113 41 198.5t116 126.5q63 34 144 34q139 0 219 -94.5t80 -258.5zM489 347q0 103 -18 161q-10 33 -41 60.5t-81 27.5q-35 0 -64 -16.5t-44 -44.5q-35 -66 -35 -190
q0 -181 62 -225q33 -24 83 -24q73 0 105.5 59t32.5 192zM649 902l-176 -171l-65 57l149 192zM412 913l-149 -196l-72 46l118 213z" />
    <glyph glyph-name="ohungarumlaut" unicode="&#x151;" horiz-adv-x="543" 
d="M508 258q0 -125 -64 -198q-63 -71 -169 -71q-104 0 -167 72t-63 193t63 194.5t167 73.5q109 0 174 -77q59 -69 59 -187zM362 259q0 103 -27 137q-21 27 -58 27q-51 0 -69 -52q-14 -42 -14 -114q0 -89 17 -129q9 -20 28 -31t40 -11q44 0 63.5 41t19.5 132zM329 772
l-116 -217l-78 34l83 229zM556 754l-147 -196l-72 46l117 213z" />
    <glyph glyph-name="OE" unicode="&#x152;" horiz-adv-x="846" 
d="M821 0h-408q-118 0 -171.5 12.5t-101.5 59.5q-95 92 -95 277q0 143 70 237q57 78 169 100q47 9 127 9h397l-18 -114h-237v-161h198v-114h-198v-186h268v-120zM421 119v447q-38 10 -75 10q-69 0 -101.5 -52t-32.5 -162q0 -138 35 -195q35 -58 110 -58q21 0 43 5z" />
    <glyph glyph-name="oe" unicode="&#x153;" horiz-adv-x="812" 
d="M782 213h-296v-4q0 -59 28 -91.5t80 -32.5q68 0 130 51l52 -80q-87 -71 -193 -71q-98 0 -161 57q-59 -53 -152 -53q-104 0 -167 72t-63 193t63 194.5t167 73.5q91 0 150 -53q57 53 146 53q96 0 148 -54q68 -69 68 -224v-31zM357 259q0 103 -27 137q-21 27 -58 27
q-51 0 -69 -52q-14 -42 -14 -114q0 -89 17 -129q9 -20 28 -31t40 -11q44 0 63.5 41t19.5 132zM643 311q0 58 -16 83q-19 30 -59 30q-38 0 -59 -29t-21 -84h155z" />
    <glyph glyph-name="Racute" unicode="&#x154;" horiz-adv-x="594" 
d="M584 0h-165l-65 114q-54 97 -75.5 129.5t-39.5 40.5q-11 5 -22 6v-290h-137v695h259q92 0 148 -56t56 -148q0 -78 -45.5 -134.5t-109.5 -57.5q18 -14 29 -29q25 -31 96 -150zM396 488q0 67 -50 85q-27 10 -79 10h-50v-188h47q79 0 105 23q27 25 27 70zM425 817l-224 -100
l-41 74l207 130z" />
    <glyph glyph-name="racute" unicode="&#x155;" horiz-adv-x="357" 
d="M372 513l-37 -118q-19 10 -39 10q-45 0 -82 -43v-362h-134v342q0 100 -19 150l120 32q18 -32 21 -73q54 73 120 73q24 0 50 -11zM347 655l-224 -100l-41 74l207 130z" />
    <glyph glyph-name="Rcommaaccent" unicode="&#x156;" horiz-adv-x="594" 
d="M584 0h-165l-65 114q-54 97 -75.5 129.5t-39.5 40.5q-11 5 -22 6v-290h-137v695h259q92 0 148 -56t56 -148q0 -78 -45.5 -134.5t-109.5 -57.5q18 -14 29 -29q25 -31 96 -150zM396 488q0 67 -50 85q-27 10 -79 10h-50v-188h47q79 0 105 23q27 25 27 70zM395 -141
q0 -53 -35 -94q-33 -41 -90 -56l-43 46q27 8 43 23t17 31v2q0 5 -2.5 7t-9 5t-10.5 6q-33 19 -33 58q0 29 21.5 49t53.5 20q40 0 64 -26.5t24 -70.5z" />
    <glyph glyph-name="rcommaaccent" unicode="&#x157;" horiz-adv-x="357" 
d="M372 513l-37 -118q-19 10 -39 10q-45 0 -82 -43v-362h-134v342q0 100 -19 150l120 32q18 -32 21 -73q54 73 120 73q24 0 50 -11zM233 -141q0 -53 -35 -94q-33 -41 -90 -56l-43 46q27 8 43 23t17 31v2q0 5 -2.5 7t-9 5t-10.5 6q-33 19 -33 58q0 29 21.5 49t53.5 20
q40 0 64 -26.5t24 -70.5z" />
    <glyph glyph-name="Rcaron" unicode="&#x158;" horiz-adv-x="594" 
d="M584 0h-165l-65 114q-54 97 -75.5 129.5t-39.5 40.5q-11 5 -22 6v-290h-137v695h259q92 0 148 -56t56 -148q0 -78 -45.5 -134.5t-109.5 -57.5q18 -14 29 -29q25 -31 96 -150zM396 488q0 67 -50 85q-27 10 -79 10h-50v-188h47q79 0 105 23q27 25 27 70zM473 852l-180 -135
l-184 135l45 73l139 -76l135 76z" />
    <glyph glyph-name="rcaron" unicode="&#x159;" horiz-adv-x="357" 
d="M372 513l-37 -118q-19 10 -39 10q-45 0 -82 -43v-362h-134v342q0 100 -19 150l120 32q18 -32 21 -73q54 73 120 73q24 0 50 -11zM396 690l-180 -135l-184 135l45 73l139 -76l135 76z" />
    <glyph glyph-name="Sacute" unicode="&#x15a;" horiz-adv-x="594" 
d="M564 219q0 -106 -78.5 -170t-208.5 -64q-127 0 -237 63l52 109q107 -56 191 -56q122 0 122 95q0 65 -91 90l-77 21q-101 28 -137 88q-29 47 -29 106q0 95 69.5 155t179.5 60q135 0 232 -70l-66 -100q-88 53 -162 53q-43 0 -70 -22.5t-27 -57.5q0 -27 17 -42.5t60 -27.5
l84 -23q85 -23 130.5 -76.5t45.5 -130.5zM466 817l-224 -100l-41 74l207 130z" />
    <glyph glyph-name="sacute" unicode="&#x15b;" horiz-adv-x="491" 
d="M461 162q0 -80 -60.5 -129t-158.5 -49q-94 0 -207 59l48 98q95 -58 170 -58q29 0 48.5 16.5t19.5 41.5q0 26 -19 40.5t-60 22.5l-60 11q-25 4 -52.5 19.5t-41.5 32.5q-29 35 -29 92q0 75 54.5 121t143.5 46q85 0 183 -48l-44 -90q-73 37 -126 37q-29 0 -47 -13.5
t-18 -36.5q0 -20 14.5 -31.5t49.5 -20.5l62 -16q71 -18 102 -58q28 -35 28 -87zM400 655l-224 -100l-41 74l207 130z" />
    <glyph glyph-name="Scircumflex" unicode="&#x15c;" horiz-adv-x="594" 
d="M564 219q0 -106 -78.5 -170t-208.5 -64q-127 0 -237 63l52 109q107 -56 191 -56q122 0 122 95q0 65 -91 90l-77 21q-101 28 -137 88q-29 47 -29 106q0 95 69.5 155t179.5 60q135 0 232 -70l-66 -100q-88 53 -162 53q-43 0 -70 -22.5t-27 -57.5q0 -27 17 -42.5t60 -27.5
l84 -23q85 -23 130.5 -76.5t45.5 -130.5zM501 785l-45 -73l-139 76l-135 -76l-45 73l180 135z" />
    <glyph glyph-name="scircumflex" unicode="&#x15d;" horiz-adv-x="491" 
d="M461 162q0 -80 -60.5 -129t-158.5 -49q-94 0 -207 59l48 98q95 -58 170 -58q29 0 48.5 16.5t19.5 41.5q0 26 -19 40.5t-60 22.5l-60 11q-25 4 -52.5 19.5t-41.5 32.5q-29 35 -29 92q0 75 54.5 121t143.5 46q85 0 183 -48l-44 -90q-73 37 -126 37q-29 0 -47 -13.5
t-18 -36.5q0 -20 14.5 -31.5t49.5 -20.5l62 -16q71 -18 102 -58q28 -35 28 -87zM441 625l-45 -73l-139 76l-135 -76l-45 73l180 135z" />
    <glyph glyph-name="Scedilla" unicode="&#x15e;" horiz-adv-x="594" 
d="M559 219q0 -96 -66.5 -158.5t-179.5 -73.5l-7 -19q36 -4 54 -25.5t18 -53.5q0 -38 -29 -63t-80 -25q-43 0 -87 24l30 63q34 -15 52 -15q10 0 17.5 6t7.5 12q0 20 -25 20l-27 -6l-13 20l17 61q-112 8 -206 62l52 109q107 -56 191 -56q122 0 122 95q0 65 -91 90l-77 21
q-101 28 -137 88q-29 47 -29 106q0 95 69.5 155t179.5 60q135 0 232 -70l-66 -100q-88 53 -162 53q-43 0 -70 -22.5t-27 -57.5q0 -27 17 -42.5t60 -27.5l84 -23q85 -23 130.5 -76.5t45.5 -130.5z" />
    <glyph glyph-name="scedilla" unicode="&#x15f;" horiz-adv-x="491" 
d="M456 162q0 -74 -53 -122t-141 -55l-6 -17q36 -4 54 -25.5t18 -53.5q0 -38 -29 -63t-80 -25q-43 0 -87 24l30 63q34 -15 52 -15q10 0 17.5 6t7.5 12q0 20 -25 20l-27 -6l-13 20l17 62q-74 10 -161 56l48 98q95 -58 170 -58q29 0 48.5 16.5t19.5 41.5q0 26 -19 40.5
t-60 22.5l-60 11q-25 4 -52.5 19.5t-41.5 32.5q-29 35 -29 92q0 75 54.5 121t143.5 46q85 0 183 -48l-44 -90q-73 37 -126 37q-29 0 -47 -13.5t-18 -36.5q0 -20 14.5 -31.5t49.5 -20.5l62 -16q71 -18 102 -58q28 -35 28 -87z" />
    <glyph glyph-name="Scaron" unicode="&#x160;" horiz-adv-x="594" 
d="M564 219q0 -106 -78.5 -170t-208.5 -64q-127 0 -237 63l52 109q107 -56 191 -56q122 0 122 95q0 65 -91 90l-77 21q-101 28 -137 88q-29 47 -29 106q0 95 69.5 155t179.5 60q135 0 232 -70l-66 -100q-88 53 -162 53q-43 0 -70 -22.5t-27 -57.5q0 -27 17 -42.5t60 -27.5
l84 -23q85 -23 130.5 -76.5t45.5 -130.5zM491 869l-180 -135l-184 135l45 73l139 -76l135 76z" />
    <glyph glyph-name="scaron" unicode="&#x161;" horiz-adv-x="491" 
d="M461 162q0 -80 -60.5 -129t-158.5 -49q-94 0 -207 59l48 98q95 -58 170 -58q29 0 48.5 16.5t19.5 41.5q0 26 -19 40.5t-60 22.5l-60 11q-25 4 -52.5 19.5t-41.5 32.5q-29 35 -29 92q0 75 54.5 121t143.5 46q85 0 183 -48l-44 -90q-73 37 -126 37q-29 0 -47 -13.5
t-18 -36.5q0 -20 14.5 -31.5t49.5 -20.5l62 -16q71 -18 102 -58q28 -35 28 -87zM427 689l-180 -135l-184 135l45 73l139 -76l135 76z" />
    <glyph glyph-name="Tcommaaccent" unicode="&#x162;" horiz-adv-x="501" 
d="M521 695l-23 -116h-166v-579h-142v579h-170v116h501zM345 -141q0 -53 -35 -94q-33 -41 -90 -56l-43 46q27 8 43 23t17 31v2q0 5 -2.5 7t-9 5t-10.5 6q-33 19 -33 58q0 29 21.5 49t53.5 20q40 0 64 -26.5t24 -70.5z" />
    <glyph glyph-name="tcommaaccent" unicode="&#x163;" horiz-adv-x="351" 
d="M336 11q-56 -23 -109 -23q-51 0 -88.5 20.5t-49.5 54.5q-9 25 -9 79v278h-51v92h51q0 83 5 121l136 34q-8 -75 -8 -155h120l-34 -92h-86v-257q0 -49 12 -65.5t46 -16.5q14 0 48 10zM281 -140q0 -53 -35 -94q-33 -41 -90 -56l-43 46q27 8 43 23t17 31v2q0 5 -2.5 7t-9 5
t-10.5 6q-33 20 -33 58q0 29 21.5 49t53.5 20q40 0 64 -26.5t24 -70.5z" />
    <glyph glyph-name="Tcaron" unicode="&#x164;" horiz-adv-x="501" 
d="M521 695l-23 -116h-166v-579h-142v579h-170v116h501zM440 852l-180 -135l-184 135l45 73l139 -76l135 76z" />
    <glyph glyph-name="tcaron" unicode="&#x165;" horiz-adv-x="351" 
d="M336 11q-56 -23 -109 -23q-51 0 -88.5 20.5t-49.5 54.5q-9 25 -9 79v278h-51v92h51q0 83 5 121l136 34q-8 -75 -8 -155h120l-34 -92h-86v-257q0 -49 12 -65.5t46 -16.5q14 0 48 10zM430 697q0 -53 -35 -94q-33 -41 -90 -56l-43 46q27 8 43 23t17 31v2q0 5 -2.5 7t-9 5
t-10.5 6q-33 19 -33 58q0 29 21.5 49t53.5 20q40 0 64 -26.5t24 -70.5z" />
    <glyph glyph-name="Umacron" unicode="&#x16a;" horiz-adv-x="646" 
d="M578 227q0 -76 -11 -109q-17 -51 -75.5 -91t-160.5 -40q-164 0 -223 93q-17 27 -23.5 54t-6.5 77v484h143v-457q0 -60 12 -83q25 -48 95 -48q46 0 73.5 21.5t32.5 59.5q2 15 2 62v445h142v-468zM485 748h-314v92h314v-92z" />
    <glyph glyph-name="umacron" unicode="&#x16b;" horiz-adv-x="546" 
d="M507 40l-95 -54q-27 19 -40 50q-51 -49 -135 -49q-54 0 -96 23t-55 60q-11 32 -11 102v328l132 25v-329q0 -62 11 -84q12 -24 47 -24q25 0 50 15t33 34v360l128 27v-391q0 -56 31 -93zM436 589h-314v78h314v-78z" />
    <glyph glyph-name="Ubreve" unicode="&#x16c;" horiz-adv-x="646" 
d="M578 227q0 -76 -11 -109q-17 -51 -75.5 -91t-160.5 -40q-164 0 -223 93q-17 27 -23.5 54t-6.5 77v484h143v-457q0 -60 12 -83q25 -48 95 -48q46 0 73.5 21.5t32.5 59.5q2 15 2 62v445h142v-468zM518 843q-10 -12 -24 -26.5t-41 -39t-59.5 -40t-62.5 -15.5
q-54 0 -108.5 43.5t-81.5 80.5l43 54q71 -68 151 -68q61 0 147 68z" />
    <glyph glyph-name="ubreve" unicode="&#x16d;" horiz-adv-x="546" 
d="M443 718q-21 -31 -71 -73t-99 -42q-35 0 -76 27t-61.5 49t-33.5 39l36 44q69 -65 139 -65q55 0 135 65zM507 40l-95 -54q-27 19 -40 50q-51 -49 -135 -49q-54 0 -96 23t-55 60q-11 32 -11 102v328l132 25v-329q0 -62 11 -84q12 -24 47 -24q25 0 50 15t33 34v360l128 27
v-391q0 -56 31 -93z" />
    <glyph glyph-name="Uring" unicode="&#x16e;" horiz-adv-x="646" 
d="M578 227q0 -76 -11 -109q-17 -51 -75.5 -91t-160.5 -40q-164 0 -223 93q-17 27 -23.5 54t-6.5 77v484h143v-457q0 -60 12 -83q25 -48 95 -48q46 0 73.5 21.5t32.5 59.5q2 15 2 62v445h142v-468zM434 820q0 -44 -31 -75t-75 -31q-43 0 -73.5 31t-30.5 75q0 43 31.5 74.5
t74.5 31.5t73.5 -31t30.5 -75zM379 820q0 21 -14.5 36t-34.5 15q-22 0 -37 -15t-15 -36t15 -36t35 -15q21 0 36 15t15 36z" />
    <glyph glyph-name="uring" unicode="&#x16f;" horiz-adv-x="546" 
d="M507 40l-95 -54q-27 19 -40 50q-51 -49 -135 -49q-54 0 -96 23t-55 60q-11 32 -11 102v328l132 25v-329q0 -62 11 -84q12 -24 47 -24q25 0 50 15t33 34v360l128 27v-391q0 -56 31 -93zM391 661q0 -43 -31.5 -74.5t-74.5 -31.5t-73.5 31t-30.5 75q0 43 31.5 74.5
t74.5 31.5t73.5 -31t30.5 -75zM336 661q0 21 -14.5 36t-34.5 15q-22 0 -37 -15t-15 -36t15 -36t35 -15q21 0 36 15t15 36z" />
    <glyph glyph-name="Uhungarumlaut" unicode="&#x170;" horiz-adv-x="646" 
d="M578 227q0 -76 -11 -109q-17 -51 -75.5 -91t-160.5 -40q-164 0 -223 93q-17 27 -23.5 54t-6.5 77v484h143v-457q0 -60 12 -83q25 -48 95 -48q46 0 73.5 21.5t32.5 59.5q2 15 2 62v445h142v-468zM626 902l-176 -171l-65 57l149 192zM389 913l-149 -196l-72 46l118 213z
" />
    <glyph glyph-name="uhungarumlaut" unicode="&#x171;" horiz-adv-x="546" 
d="M507 40l-95 -54q-27 19 -40 50q-51 -49 -135 -49q-54 0 -96 23t-55 60q-11 32 -11 102v328l132 25v-329q0 -62 11 -84q12 -24 47 -24q25 0 50 15t33 34v360l128 27v-391q0 -56 31 -93zM335 772l-116 -217l-78 34l83 229zM562 754l-147 -196l-72 46l117 213z" />
    <glyph glyph-name="Uogonek" unicode="&#x172;" horiz-adv-x="646" 
d="M573 227q0 -76 -11 -109q-14 -44 -57 -77.5t-90 -43.5q-34 -7 -57.5 -32.5t-23.5 -51.5q0 -1 0.5 -4t0.5 -4q4 -27 32 -27q23 0 53 15l28 -67q-62 -27 -111 -27q-46 0 -74.5 25t-28.5 67q0 48 46 98q-127 12 -177 91q-17 27 -23.5 54t-6.5 77v484h143v-457q0 -60 12 -83
q25 -48 95 -48q46 0 73.5 21.5t32.5 59.5q2 15 2 62v445h142v-468z" />
    <glyph glyph-name="uogonek" unicode="&#x173;" horiz-adv-x="546" 
d="M524 -174q-62 -27 -111 -27q-46 0 -74.5 25t-28.5 67q0 59 73 118q-11 15 -16 27q-51 -49 -135 -49q-54 0 -96 23t-55 60q-11 32 -11 102v328l132 25v-329q0 -62 11 -84q12 -24 47 -24q25 0 50 15t33 34v360l128 27v-391q0 -57 34 -98q-95 -68 -95 -121q0 -2 0.5 -5
t0.5 -4q4 -27 32 -27q23 0 53 15z" />
    <glyph glyph-name="Ydieresis" unicode="&#x178;" horiz-adv-x="544" 
d="M569 695l-222 -409v-286h-146v286l-216 409h168l89 -190q22 -46 35 -89q19 47 37 87l90 192h165zM245 795q0 -31 -22.5 -54t-54.5 -23q-31 0 -53.5 23t-22.5 54t23 54t55 23q31 0 53 -22.5t22 -54.5zM456 795q0 -31 -23 -54t-54 -23t-53.5 23t-22.5 54t23 54t55 23
q31 0 53 -22.5t22 -54.5z" />
    <glyph glyph-name="Zacute" unicode="&#x179;" horiz-adv-x="540" 
d="M510 114l-36 -114h-434v98l256 423l43 63q-29 -5 -71 -5h-214l31 116h416v-101l-258 -435l-36 -49q41 4 69 4h234zM429 817l-224 -100l-41 74l207 130z" />
    <glyph glyph-name="zacute" unicode="&#x17a;" horiz-adv-x="479" 
d="M449 93l-32 -93h-377v83l241 335h-221v94h380v-92l-226 -327h235zM385 655l-224 -100l-41 74l207 130z" />
    <glyph glyph-name="Zdotaccent" unicode="&#x17b;" horiz-adv-x="540" 
d="M510 114l-36 -114h-434v98l256 423l43 63q-29 -5 -71 -5h-214l31 116h416v-101l-258 -435l-36 -49q41 4 69 4h234zM372 800q0 -34 -24 -58.5t-59 -24.5q-34 0 -58 24.5t-24 58.5t24.5 58.5t59.5 24.5q34 0 57.5 -24t23.5 -59z" />
    <glyph glyph-name="zdotaccent" unicode="&#x17c;" horiz-adv-x="479" 
d="M449 93l-32 -93h-377v83l241 335h-221v94h380v-92l-226 -327h235zM337 653q0 -35 -24.5 -59t-58.5 -24t-58 24.5t-24 58.5t24.5 58.5t59.5 24.5q34 0 57.5 -24t23.5 -59z" />
    <glyph glyph-name="Zcaron" unicode="&#x17d;" horiz-adv-x="540" 
d="M510 114l-36 -114h-434v98l256 423l43 63q-29 -5 -71 -5h-214l31 116h416v-101l-258 -435l-36 -49q41 4 69 4h234zM455 869l-180 -135l-184 135l45 73l139 -76l135 76z" />
    <glyph glyph-name="zcaron" unicode="&#x17e;" horiz-adv-x="479" 
d="M449 93l-32 -93h-377v83l241 335h-221v94h380v-92l-226 -327h235zM430 689l-180 -135l-184 135l45 73l139 -76l135 76z" />
    <glyph glyph-name="longs" unicode="&#x17f;" horiz-adv-x="362" 
d="M299 741q47 0 114 -31l-55 -92q-33 20 -60 20q-26 0 -45 -16.5t-24 -42.5q-3 -15 -3 -70v-509h-136v408h-82v104h82v32q0 51 9 81.5t41 59.5q42 39 104 51q28 5 55 5z" />
    <glyph glyph-name="florin" unicode="&#x192;" horiz-adv-x="322" 
d="M385 709l-41 -83q-32 17 -51 17q-24 0 -39.5 -15.5t-17.5 -42.5l-5 -73h118l-32 -94h-90l-27 -384q-3 -43 -6.5 -71.5t-13.5 -53t-16.5 -38t-27 -31.5t-34 -27.5l-47.5 -32.5l-62 91q50 39 65 62.5t19 76.5l27 408h-43v94h52q0 1 3 70q5 76 46.5 117.5t114.5 41.5
q58 0 108 -32z" />
    <glyph glyph-name="Scommaaccent" unicode="&#x218;" horiz-adv-x="594" 
d="M564 219q0 -106 -78.5 -170t-208.5 -64q-127 0 -237 63l52 109q107 -56 191 -56q122 0 122 95q0 65 -91 90l-77 21q-101 28 -137 88q-29 47 -29 106q0 95 69.5 155t179.5 60q135 0 232 -70l-66 -100q-88 53 -162 53q-43 0 -70 -22.5t-27 -57.5q0 -27 17 -42.5t60 -27.5
l84 -23q85 -23 130.5 -76.5t45.5 -130.5zM383 -141q0 -53 -35 -94q-33 -41 -90 -56l-43 46q27 8 43 23t17 31v2q0 5 -2.5 7t-9 5t-10.5 6q-33 19 -33 58q0 29 21.5 49t53.5 20q40 0 64 -26.5t24 -70.5z" />
    <glyph glyph-name="scommaaccent" unicode="&#x219;" horiz-adv-x="491" 
d="M461 162q0 -80 -60.5 -129t-158.5 -49q-94 0 -207 59l48 98q95 -58 170 -58q29 0 48.5 16.5t19.5 41.5q0 26 -19 40.5t-60 22.5l-60 11q-25 4 -52.5 19.5t-41.5 32.5q-29 35 -29 92q0 75 54.5 121t143.5 46q85 0 183 -48l-44 -90q-73 37 -126 37q-29 0 -47 -13.5
t-18 -36.5q0 -20 14.5 -31.5t49.5 -20.5l62 -16q71 -18 102 -58q28 -35 28 -87zM334 -141q0 -53 -35 -94q-33 -41 -90 -56l-43 46q27 8 43 23t17 31v2q0 5 -2.5 7t-9 5t-10.5 6q-33 19 -33 58q0 29 21.5 49t53.5 20q40 0 64 -26.5t24 -70.5z" />
    <glyph glyph-name="uni021B" unicode="&#x21b;" horiz-adv-x="351" 
d="M331 11q-56 -23 -109 -23q-51 0 -88.5 20.5t-49.5 54.5q-9 25 -9 79v278h-51v92h51q0 83 5 121l136 34q-8 -75 -8 -155h120l-34 -92h-86v-257q0 -49 12 -65.5t46 -16.5q14 0 48 10zM308 -141q0 -53 -35 -94q-33 -41 -90 -56l-43 46q27 8 43 23t17 31v2q0 5 -2.5 7t-9 5
t-10.5 6q-33 19 -33 58q0 29 21.5 49t53.5 20q40 0 64 -26.5t24 -70.5z" />
    <glyph glyph-name="dotlessj" unicode="&#x237;" horiz-adv-x="283" 
d="M208 14q0 -110 -38 -159q-36 -47 -104 -75l-56 74q30 25 49 58q16 29 16 98v481l133 32v-509z" />
    <glyph glyph-name="circumflex" unicode="&#x2c6;" horiz-adv-x="414" 
d="M389 625l-45 -73l-139 76l-135 -76l-45 73l180 135z" />
    <glyph glyph-name="caron" unicode="&#x2c7;" horiz-adv-x="414" 
d="M389 689l-180 -135l-184 135l45 73l139 -76l135 76z" />
    <glyph glyph-name="breve" unicode="&#x2d8;" horiz-adv-x="391" 
d="M366 693q-21 -31 -71 -73t-99 -42q-35 0 -76 27t-61.5 49t-33.5 39l36 44q69 -65 139 -65q55 0 135 65z" />
    <glyph glyph-name="dotaccent" unicode="&#x2d9;" horiz-adv-x="215" 
d="M190 653q0 -35 -24 -59t-59 -24q-34 0 -58 24.5t-24 58.5t24.5 58.5t59.5 24.5q34 0 57.5 -24t23.5 -59z" />
    <glyph glyph-name="ring" unicode="&#x2da;" horiz-adv-x="260" 
d="M235 659q0 -43 -31.5 -74.5t-74.5 -31.5t-73.5 31t-30.5 75q0 43 31.5 74.5t74.5 31.5t73.5 -31t30.5 -75zM180 659q0 21 -14.5 36t-34.5 15q-22 0 -37 -15t-15 -36t15 -36t35 -15q21 0 36 15t15 36z" />
    <glyph glyph-name="ogonek" unicode="&#x2db;" horiz-adv-x="306" 
d="M251 -175q-44 -24 -87 -24q-51 0 -80 25t-29 63q0 46 25 83t48 54l71 -40q-17 -16 -25.5 -25.5t-18.5 -27t-10 -34.5q0 -11 7 -18.5t17 -7.5q18 0 52 15z" />
    <glyph glyph-name="tilde" unicode="&#x2dc;" horiz-adv-x="414" 
d="M389 639q-45 -58 -124 -58q-31 0 -66.5 17t-64.5 17q-41 0 -68 -29l-41 75q46 58 124 58q30 0 66 -17t65 -17q41 0 68 30z" />
    <glyph glyph-name="hungarumlaut" unicode="&#x2dd;" horiz-adv-x="471" 
d="M219 741l-116 -217l-78 34l83 229zM446 723l-147 -196l-72 46l117 213z" />
    <glyph glyph-name="uni037E" unicode="&#x37e;" horiz-adv-x="324" 
d="M259 35q0 -64 -40 -114.5t-102 -65.5l-52 56q32 8 51.5 23.5t19.5 33.5q0 16 -23 30q-42 25 -42 70q0 38 25.5 63t62.5 25q43 0 71.5 -34t28.5 -87zM246 369q0 -35 -25 -60.5t-60 -25.5q-36 0 -61.5 25t-25.5 60q0 36 24.5 62t59.5 26q36 0 62 -25.5t26 -61.5z" />
    <glyph glyph-name="tonos" unicode="&#x384;" horiz-adv-x="297" 
d="M242 754l-110 -200l-77 34l77 210z" />
    <glyph glyph-name="dieresistonos" unicode="&#x385;" horiz-adv-x="524" 
d="M399 809l-110 -200l-77 34l77 210zM484 635q0 -31 -23 -54t-54 -23t-53.5 22.5t-22.5 54.5t23 54.5t55 22.5q31 0 53 -22.5t22 -54.5zM193 635q0 -31 -22.5 -54t-54.5 -23q-31 0 -53.5 23t-22.5 54t23 54t55 23q31 0 53 -22.5t22 -54.5z" />
    <glyph glyph-name="Alphatonos" unicode="&#x386;" horiz-adv-x="592" 
d="M600 0h-150l-49 165h-204l-49 -165h-146l228 697h151zM367 281q-23 73 -38 140l-28 123l-33 -134q-20 -77 -37 -129h136zM93 660l-110 -200l-77 34l77 210z" />
    <glyph glyph-name="anoteleia" unicode="&#x387;" horiz-adv-x="268" 
d="M223 273q0 -36 -26.5 -62t-63.5 -26t-62.5 26t-25.5 63t26.5 63.5t63.5 26.5t62.5 -26.5t25.5 -64.5z" />
    <glyph glyph-name="Epsilontonos" unicode="&#x388;" horiz-adv-x="505" 
d="M485 0h-405v695h396l-18 -114h-238v-161h199v-114h-197v-186h263v-120zM23 660l-110 -200l-77 34l77 210z" />
    <glyph glyph-name="Etatonos" unicode="&#x389;" horiz-adv-x="631" 
d="M561 0h-142v310h-200v-310h-139v695h139v-270h200v270h142v-695zM23 660l-110 -200l-77 34l77 210z" />
    <glyph glyph-name="Iotatonos" unicode="&#x38a;" horiz-adv-x="296" 
d="M226 0h-146v695h146v-695zM23 660l-110 -200l-77 34l77 210z" />
    <glyph glyph-name="Omicrontonos" unicode="&#x38c;" horiz-adv-x="690" 
d="M650 351q0 -118 -40 -203.5t-115 -126.5q-58 -32 -139 -32q-79 0 -132.5 23t-93.5 75q-80 103 -80 258q0 113 41 198.5t116 126.5q63 34 144 34q139 0 219 -94.5t80 -258.5zM489 347q0 103 -18 161q-10 33 -41 60.5t-81 27.5q-35 0 -64 -16.5t-44 -44.5q-35 -66 -35 -190
q0 -181 62 -225q33 -24 83 -24q73 0 105.5 59t32.5 192zM52 660l-110 -200l-77 34l77 210z" />
    <glyph glyph-name="Upsilontonos" unicode="&#x38e;" horiz-adv-x="544" 
d="M569 695l-222 -409v-286h-146v286l-216 409h168l89 -190q22 -46 35 -89q19 47 37 87l90 192h165zM-17 660l-110 -200l-77 34l77 210z" />
    <glyph glyph-name="Omegatonos" unicode="&#x38f;" horiz-adv-x="716" 
d="M672 366q0 -69 -37.5 -140.5t-87.5 -111.5h119l-25 -114h-250v100q53 50 87.5 129t34.5 145q0 222 -150 222q-45 0 -77 -21t-47.5 -56.5t-22 -71.5t-6.5 -77q0 -67 33.5 -143t88.5 -127v-100h-272l25 114h91q-50 41 -86 112.5t-36 139.5q0 149 81.5 243.5t229.5 94.5
q139 0 223 -90t84 -248zM53 660l-110 -200l-77 34l77 210z" />
    <glyph glyph-name="iotadieresistonos" unicode="&#x390;" horiz-adv-x="288" 
d="M288 2q-36 -14 -80 -14q-43 0 -75 17.5t-44 49.5q-3 8 -5 15.5t-2.5 16.5t-1 20.5t-0.5 27.5v38v200q0 85 -9 117l134 32q9 -42 9 -125v-189q0 -98 9 -114q8 -14 27 -14q8 0 15 2zM294 809l-110 -200l-77 34l77 210zM379 635q0 -31 -22.5 -54t-54.5 -23q-31 0 -53.5 22.5
t-22.5 54.5t23 54.5t55 22.5q31 0 53 -22.5t22 -54.5zM88 635q0 -31 -23 -54t-54 -23t-53.5 23t-22.5 54t23 54t55 23q31 0 53 -22.5t22 -54.5z" />
    <glyph glyph-name="Alpha" unicode="&#x391;" horiz-adv-x="592" 
d="M595 0h-150l-49 165h-204l-49 -165h-146l228 697h151zM362 281q-23 73 -38 140l-28 123l-33 -134q-20 -77 -37 -129h136z" />
    <glyph glyph-name="Beta" unicode="&#x392;" horiz-adv-x="610" 
d="M565 194q0 -77 -47.5 -132.5t-134.5 -59.5q-44 -2 -89 -2h-219v695h235q64 0 101.5 -11t69.5 -39q57 -50 57 -124q0 -72 -47 -116q-25 -24 -64 -36q66 -19 102 -63.5t36 -111.5zM407 211q0 30 -14 54t-37 31q-20 6 -54 6h-87v-188h91q45 0 65 16q36 27 36 81zM392 497
q0 23 -11 43t-29 27q-22 9 -58 9h-81v-159h83q42 0 60 9q14 8 25 29t11 42z" />
    <glyph glyph-name="Gamma" unicode="&#x393;" horiz-adv-x="444" 
d="M454 695l-18 -115h-218v-580h-143v695h379z" />
    <glyph glyph-name="uni0394" unicode="&#x394;" horiz-adv-x="599" 
d="M579 98l-21 -98h-533v106l215 591h124zM424 120l-85 250q-34 107 -38 140q-3 -27 -41 -140l-89 -250h253z" />
    <glyph glyph-name="Epsilon" unicode="&#x395;" horiz-adv-x="505" 
d="M480 0h-405v695h396l-18 -114h-238v-161h199v-114h-197v-186h263v-120z" />
    <glyph glyph-name="Zeta" unicode="&#x396;" horiz-adv-x="540" 
d="M505 114l-36 -114h-434v98l256 423l43 63q-29 -5 -71 -5h-214l31 116h416v-101l-258 -435l-36 -49q41 4 69 4h234z" />
    <glyph glyph-name="Eta" unicode="&#x397;" horiz-adv-x="631" 
d="M556 0h-142v310h-200v-310h-139v695h139v-270h200v270h142v-695z" />
    <glyph glyph-name="Theta" unicode="&#x398;" horiz-adv-x="702" 
d="M657 351q0 -101 -30.5 -180.5t-100 -130.5t-169.5 -51q-151 0 -231.5 100.5t-80.5 255.5q0 154 80 256.5t227 102.5q139 0 222 -95t83 -258zM495 306h-293q2 -43 8.5 -76t22 -65.5t45.5 -50.5t74 -18q68 0 103 50t40 160zM493 418q-16 178 -143 178q-125 0 -145 -178h288
z" />
    <glyph glyph-name="Iota" unicode="&#x399;" horiz-adv-x="296" 
d="M221 0h-146v695h146v-695z" />
    <glyph glyph-name="Kappa" unicode="&#x39a;" horiz-adv-x="598" 
d="M613 0h-184l-211 363v-363h-143v695h143v-317l198 317h172l-222 -322z" />
    <glyph glyph-name="Lambda" unicode="&#x39b;" horiz-adv-x="576" 
d="M574 0h-149l-81 281q-24 83 -56 251q-29 -145 -60 -251l-80 -281h-146l215 697h151z" />
    <glyph glyph-name="Mu" unicode="&#x39c;" horiz-adv-x="828" 
d="M773 0h-137l-26 371q-5 73 -5 116q-11 -53 -26 -107l-110 -380h-119l-99 365q-19 72 -28 123q0 -53 -5 -125l-24 -363h-139l65 695h179l91 -348q16 -61 24 -110q9 52 25 113l94 345h178z" />
    <glyph glyph-name="Nu" unicode="&#x39d;" horiz-adv-x="633" 
d="M558 0h-146l-119 266q-77 172 -94 228q4 -51 7 -197l4 -297h-135v695h155l133 -278q51 -108 76 -197q-9 98 -11 191l-3 284h133v-695z" />
    <glyph glyph-name="Xi" unicode="&#x39e;" horiz-adv-x="516" 
d="M491 0h-472l21 130h451v-130zM482 695l-20 -124h-423v124h443zM439 426l-20 -124h-352l20 124h352z" />
    <glyph glyph-name="Omicron" unicode="&#x39f;" horiz-adv-x="690" 
d="M645 351q0 -118 -40 -203.5t-115 -126.5q-58 -32 -139 -32q-79 0 -132.5 23t-93.5 75q-80 103 -80 258q0 113 41 198.5t116 126.5q63 34 144 34q139 0 219 -94.5t80 -258.5zM484 347q0 103 -18 161q-10 33 -41 60.5t-81 27.5q-35 0 -64 -16.5t-44 -44.5q-35 -66 -35 -190
q0 -181 62 -225q33 -24 83 -24q73 0 105.5 59t32.5 192z" />
    <glyph glyph-name="Pi" unicode="&#x3a0;" horiz-adv-x="625" 
d="M550 0h-142v580h-194v-580h-139v695h475v-695z" />
    <glyph glyph-name="Rho" unicode="&#x3a1;" horiz-adv-x="576" 
d="M551 481q0 -69 -31.5 -122t-88.5 -80q-49 -23 -139 -23h-77v-256h-140v695h183q83 0 121.5 -8t71.5 -26q100 -55 100 -180zM398 478q0 49 -25 76.5t-69 27.5h-89v-212h73q43 0 61 7t32 29q17 27 17 72z" />
    <glyph glyph-name="Sigma" unicode="&#x3a3;" horiz-adv-x="512" 
d="M492 114l-36 -114h-421v91l186 277l-179 235l32 92h414l-37 -116h-155l-81 5q30 -31 53 -63l110 -151l-136 -211l-36 -49q41 4 69 4h217z" />
    <glyph glyph-name="Tau" unicode="&#x3a4;" horiz-adv-x="501" 
d="M516 695l-23 -116h-166v-579h-142v579h-170v116h501z" />
    <glyph glyph-name="Upsilon" unicode="&#x3a5;" horiz-adv-x="544" 
d="M564 695l-222 -409v-286h-146v286l-216 409h168l89 -190q22 -46 35 -89q19 47 37 87l90 192h165z" />
    <glyph glyph-name="Phi" unicode="&#x3a6;" horiz-adv-x="817" 
d="M778 351q0 -48 -15.5 -92t-48.5 -84t-93.5 -67.5t-142.5 -35.5v-72h-141v72q-81 8 -141 35t-93 67.5t-48 84.5t-15 92t15 92t48 84.5t93 67.5t141 33v67h141v-66q81 -6 141.5 -33t94 -67.5t49 -85t15.5 -92.5zM337 182v334q-141 -24 -141 -166q0 -21 2 -37.5t10.5 -39.5
t22.5 -39.5t41.5 -31t64.5 -20.5zM617 350q0 21 -1.5 37.5t-9.5 39t-22 38.5t-41 30.5t-65 20.5v-334q47 8 77 26.5t42.5 45.5t16 47.5t3.5 48.5z" />
    <glyph glyph-name="Chi" unicode="&#x3a7;" horiz-adv-x="572" 
d="M582 0h-169l-125 245l-124 -245h-174l218 372l-188 323h171l94 -187l95 187h167l-181 -314z" />
    <glyph glyph-name="Psi" unicode="&#x3a8;" horiz-adv-x="748" 
d="M708 431q0 -49 -14 -94.5t-43.5 -87t-83 -67t-124.5 -25.5v-157h-138v157q-58 0 -105 17t-76 44.5t-48.5 64t-27.5 73.5t-8 75v264h136v-265q0 -25 1 -38.5t7.5 -38.5t19 -40.5t38.5 -30t63 -20.5v433h138v-433q38 6 64 21t38.5 29.5t19 40.5t7 38.5t0.5 38.5v265h136
v-264z" />
    <glyph glyph-name="uni03A9" unicode="&#x3a9;" horiz-adv-x="716" 
d="M667 366q0 -69 -37.5 -140.5t-87.5 -111.5h119l-25 -114h-250v100q53 50 87.5 129t34.5 145q0 222 -150 222q-45 0 -77 -21t-47.5 -56.5t-22 -71.5t-6.5 -77q0 -67 33.5 -143t88.5 -127v-100h-272l25 114h91q-50 41 -86 112.5t-36 139.5q0 149 81.5 243.5t229.5 94.5
q139 0 223 -90t84 -248z" />
    <glyph glyph-name="Iotadieresis" unicode="&#x3aa;" horiz-adv-x="296" 
d="M221 0h-146v695h146v-695zM330 795q0 -31 -23 -54t-54 -23t-53.5 22.5t-22.5 54.5t23 54.5t55 22.5q31 0 53 -22.5t22 -54.5zM119 795q0 -31 -22.5 -54t-54.5 -23q-31 0 -53.5 23t-22.5 54t23 54t55 23q31 0 53 -22.5t22 -54.5z" />
    <glyph glyph-name="Upsilondieresis" unicode="&#x3ab;" horiz-adv-x="544" 
d="M569 695l-222 -409v-286h-146v286l-216 409h168l89 -190q22 -46 35 -89q19 47 37 87l90 192h165zM456 795q0 -31 -23 -54t-54 -23t-53.5 22.5t-22.5 54.5t23 54.5t55 22.5q31 0 53 -22.5t22 -54.5zM245 795q0 -31 -22.5 -54t-54.5 -23q-31 0 -53.5 23t-22.5 54t23 54
t55 23q31 0 53 -22.5t22 -54.5z" />
    <glyph glyph-name="alphatonos" unicode="&#x3ac;" horiz-adv-x="563" 
d="M539 56l-71 -82q-24 10 -45.5 29t-31.5 38q-18 -18 -28 -25q-39 -28 -98 -28q-109 0 -168 83q-26 37 -36.5 76.5t-10.5 100.5q0 129 52 196q24 30 50 47q53 34 110 34q37 0 69 -14t46 -38q1 21 10 40h111q-12 -52 -12 -151v-192q0 -45 9.5 -67t43.5 -47zM359 137v241
q-33 35 -72 35q-35 0 -58 -23q-32 -32 -32 -125q0 -111 28 -141q24 -26 62 -26q39 0 72 39zM442 754l-110 -200l-77 34l77 210z" />
    <glyph glyph-name="epsilontonos" unicode="&#x3ad;" horiz-adv-x="502" 
d="M492 56q-101 -74 -224 -74q-104 0 -161 40.5t-57 119.5q0 50 31.5 83t67.5 40v2q-35 9 -57.5 37.5t-22.5 66.5q0 67 53 111.5t142 44.5q92 0 202 -60l-47 -91q-63 41 -137 41q-37 0 -55.5 -13.5t-18.5 -33.5q0 -34 19.5 -44t73.5 -10h54v-91h-47q-52 0 -76.5 -15
t-24.5 -51q0 -27 22.5 -42t63.5 -15q70 0 140 52zM427 754l-110 -200l-77 34l77 210z" />
    <glyph glyph-name="etatonos" unicode="&#x3ae;" horiz-adv-x="559" 
d="M537 56l-71 -82q-54 20 -84 61.5t-30 98.5v199q0 44 -9.5 59.5t-35.5 15.5q-42 0 -93 -46v-362h-134v371q0 69 -18 120l119 34q19 -33 19 -64q38 26 59 38q42 22 92 22q43 0 77 -20.5t46 -53.5q10 -27 10 -73v-218q0 -42 8.5 -57.5t44.5 -42.5zM432 754l-110 -200l-77 34
l77 210z" />
    <glyph glyph-name="iotatonos" unicode="&#x3af;" horiz-adv-x="288" 
d="M288 2q-36 -14 -80 -14q-43 0 -75 17.5t-44 49.5q-3 8 -5 15.5t-2.5 16.5t-1 20.5t-0.5 27.5v38v200q0 85 -9 117l134 32q9 -42 9 -125v-189q0 -98 9 -114q8 -14 27 -14q8 0 15 2zM316 754l-110 -200l-77 34l77 210z" />
    <glyph glyph-name="upsilondieresistonos" unicode="&#x3b0;" horiz-adv-x="541" 
d="M476 159q0 -82 -53.5 -126.5t-153.5 -44.5q-194 0 -194 164v348l132 25v-374q0 -63 70 -63q35 0 53 19t18 47v343l128 27v-365zM412 809l-110 -200l-77 34l77 210zM497 635q0 -31 -22.5 -54t-54.5 -23q-31 0 -53.5 22.5t-22.5 54.5t23 54.5t55 22.5q31 0 53 -22.5
t22 -54.5zM206 635q0 -31 -23 -54t-54 -23t-53.5 23t-22.5 54t23 54t55 23q31 0 53 -22.5t22 -54.5z" />
    <glyph glyph-name="alpha" unicode="&#x3b1;" horiz-adv-x="563" 
d="M534 56l-71 -82q-24 10 -45.5 29t-31.5 38q-18 -18 -28 -25q-39 -28 -98 -28q-109 0 -168 83q-26 37 -36.5 76.5t-10.5 100.5q0 129 52 196q24 30 50 47q53 34 110 34q37 0 69 -14t46 -38q1 21 10 40h111q-12 -52 -12 -151v-192q0 -45 9.5 -67t43.5 -47zM354 137v241
q-33 35 -72 35q-35 0 -58 -23q-32 -32 -32 -125q0 -111 28 -141q24 -26 62 -26q39 0 72 39z" />
    <glyph glyph-name="beta" unicode="&#x3b2;" horiz-adv-x="592" 
d="M557 194q0 -86 -58.5 -146t-176.5 -60q-52 0 -118 37v-211l-129 -34v653q0 281 225 281q94 0 151 -49.5t57 -128.5q0 -112 -98 -149q68 -18 107.5 -68.5t39.5 -124.5zM411 192q0 66 -29.5 98t-112.5 32h-18l19 100h7q61 0 80 26.5t19 77.5q0 89 -76 89q-57 0 -76.5 -43
t-19.5 -122v-312q16 -19 49.5 -36.5t57.5 -17.5q100 0 100 108z" />
    <glyph glyph-name="gamma" unicode="&#x3b3;" horiz-adv-x="514" 
d="M519 512l-183 -504v-194l-137 -34v228l-114 346q-20 62 -48 62q-5 0 -15 -2l-27 84q46 24 92 24q83 0 110 -93l45 -156q18 -64 29 -125q5 51 30 131l70 233h148z" />
    <glyph glyph-name="delta" unicode="&#x3b4;" horiz-adv-x="543" 
d="M503 258q0 -118 -59 -193.5t-174 -75.5q-104 0 -167 72t-63 193q0 101 51.5 169.5t135.5 76.5q-73 63 -130 87l17 108h357l-17 -106h-150q199 -146 199 -331zM357 259q0 30 -2 49t-9 44t-26 38t-48 13q-19 0 -34 -6.5t-23.5 -19t-14 -25.5t-8 -32.5t-3 -31.5t-0.5 -31
q0 -24 0.5 -35t2.5 -36t7 -38.5t14 -30t24.5 -24t36.5 -7.5q44 0 63.5 41t19.5 132z" />
    <glyph glyph-name="epsilon" unicode="&#x3b5;" horiz-adv-x="502" 
d="M487 56q-101 -74 -224 -74q-104 0 -161 40.5t-57 119.5q0 50 31.5 83t67.5 40v2q-35 9 -57.5 37.5t-22.5 66.5q0 67 53 111.5t142 44.5q92 0 202 -60l-47 -91q-63 41 -137 41q-37 0 -55.5 -13.5t-18.5 -33.5q0 -34 19.5 -44t73.5 -10h54v-91h-47q-52 0 -76.5 -15
t-24.5 -51q0 -27 22.5 -42t63.5 -15q70 0 140 52z" />
    <glyph glyph-name="zeta" unicode="&#x3b6;" horiz-adv-x="483" 
d="M488 695l-17 -111q-86 -40 -149.5 -108t-93 -138.5t-29.5 -134.5q0 -37 21.5 -51.5t69.5 -14.5h36q146 0 146 -147q0 -34 -16.5 -74.5t-33 -65t-46.5 -64.5l-73 50q38 47 38 105q0 59 -66 59h-25q-91 0 -145.5 43t-54.5 128q0 120 73.5 238t172.5 168h-212l18 118h386z
" />
    <glyph glyph-name="eta" unicode="&#x3b7;" horiz-adv-x="559" 
d="M532 56l-71 -82q-54 20 -84 61.5t-30 98.5v199q0 44 -9.5 59.5t-35.5 15.5q-42 0 -93 -46v-362h-134v371q0 69 -18 120l119 34q19 -33 19 -64q38 26 59 38q42 22 92 22q43 0 77 -20.5t46 -53.5q10 -27 10 -73v-218q0 -42 8.5 -57.5t44.5 -42.5z" />
    <glyph glyph-name="theta" unicode="&#x3b8;" horiz-adv-x="543" 
d="M501 348q0 -359 -231 -359q-65 0 -110 25t-70.5 73.5t-36.5 110.5t-11 146q0 360 231 360q65 0 110.5 -25t71 -74t36 -111t10.5 -146zM350 307h-157q2 -122 17 -172.5t61 -50.5q21 0 36 13t23 31.5t12.5 51t6 59.5t1.5 68zM350 402q-2 113 -17 160t-59 47
q-25 0 -41.5 -16t-24.5 -47.5t-11 -63.5t-4 -80h157z" />
    <glyph glyph-name="iota" unicode="&#x3b9;" horiz-adv-x="288" 
d="M283 2q-36 -14 -80 -14q-43 0 -75 17.5t-44 49.5q-3 8 -5 15.5t-2.5 16.5t-1 20.5t-0.5 27.5v38v200q0 85 -9 117l134 32q9 -42 9 -125v-189q0 -98 9 -114q8 -14 27 -14q8 0 15 2z" />
    <glyph glyph-name="kappa" unicode="&#x3ba;" horiz-adv-x="527" 
d="M533 0h-157l-164 277l139 235h163l-173 -227zM209 0h-134v373q0 85 -9 117l134 32q9 -42 9 -125v-397z" />
    <glyph glyph-name="lambda" unicode="&#x3bb;" horiz-adv-x="520" 
d="M524 2q-49 -19 -75 -19q-53 0 -78 22.5t-37 66.5l-56 221q-14 47 -19 90q-1 -2 -10 -39l-13 -53l-92 -299l-137 16l124 360q3 8 22 64t28 80h40q-9 27 -15.5 58t-26.5 56.5t-50 25.5q-20 0 -52 -12l-12 82q51 18 86 18q42 0 72.5 -13t47.5 -37t24.5 -40t14.5 -41
l149 -505q5 -15 9.5 -19.5t13.5 -4.5q8 0 18 3z" />
    <glyph glyph-name="uni03BC" unicode="&#x3bc;" horiz-adv-x="551" 
d="M507 40l-95 -54q-27 19 -40 50q-51 -49 -135 -49q-19 0 -35 14q2 -20 2 -31v-156l-129 -34v720l132 25v-329q0 -62 11 -84q12 -24 47 -24q25 0 50 15t33 34v360l128 27v-391q0 -56 31 -93z" />
    <glyph glyph-name="nu" unicode="&#x3bd;" horiz-adv-x="474" 
d="M479 512l-187 -512h-111l-186 504l137 17l74 -231q20 -62 33 -123q7 54 31 130l69 215h140z" />
    <glyph glyph-name="xi" unicode="&#x3be;" horiz-adv-x="498" 
d="M493 695l-18 -118h-164q-36 0 -63 -24.5t-27 -58.5q0 -36 25 -53.5t62 -17.5h118l-18 -112h-93q-58 0 -89.5 -31t-31.5 -77q0 -37 21.5 -51.5t69.5 -14.5h49q146 0 146 -147q0 -34 -16.5 -74.5t-33 -65t-46.5 -64.5l-73 50q38 47 38 105q0 59 -66 59h-38q-91 0 -145.5 43
t-54.5 128q0 67 36.5 122.5t87.5 69.5v2q-88 34 -88 118q0 27 17.5 56t37.5 37h-75l19 119h413z" />
    <glyph glyph-name="omicron" unicode="&#x3bf;" horiz-adv-x="543" 
d="M503 258q0 -125 -64 -198q-63 -71 -169 -71q-104 0 -167 72t-63 193t63 194.5t167 73.5q109 0 174 -77q59 -69 59 -187zM357 259q0 103 -27 137q-21 27 -58 27q-51 0 -69 -52q-14 -42 -14 -114q0 -89 17 -129q9 -20 28 -31t40 -11q44 0 63.5 41t19.5 132z" />
    <glyph glyph-name="pi" unicode="&#x3c0;" horiz-adv-x="559" 
d="M542 512l-35 -96h-40v-260q0 -42 8.5 -57.5t44.5 -42.5l-71 -82q-54 20 -84 61.5t-30 98.5v282h-126v-416h-134v416h-55v96h522z" />
    <glyph glyph-name="rho" unicode="&#x3c1;" horiz-adv-x="527" 
d="M487 258q0 -68 -14.5 -117t-56.5 -94q-53 -58 -137 -58q-61 0 -107 27q2 -12 2 -42v-160l-134 -34v491q0 114 53.5 182.5t170.5 68.5q93 0 158 -64.5t65 -199.5zM341 259q0 164 -80 164q-38 0 -62 -25.5t-24 -76.5v-196q36 -30 74 -30q49 0 70.5 38t21.5 126z" />
    <glyph glyph-name="sigma1" unicode="&#x3c2;" horiz-adv-x="457" 
d="M437 -24q0 -48 -31 -100q-8 -15 -65 -89l-73 50q38 47 38 100q0 25 -33 41l-39 15l-38 14q-54 23 -87 56q-74 74 -74 189q0 166 105 237q56 38 127 38q55 0 99 -23q21 -11 50 -36l-65 -88q-43 40 -81 40q-87 0 -87 -172q0 -49 29 -84q24 -28 86 -52q73 -30 95 -46
q44 -35 44 -90z" />
    <glyph glyph-name="sigma" unicode="&#x3c3;" horiz-adv-x="558" 
d="M558 512l-34 -94h-75q54 -58 54 -160q0 -118 -59 -193.5t-174 -75.5q-104 0 -167 72t-63 193q0 120 62.5 189t167.5 69h288zM357 259q0 31 -2 51.5t-9 49t-26 43.5t-48 15q-28 0 -46.5 -15.5t-25.5 -45t-9 -50t-2 -50.5q0 -24 0.5 -35t2.5 -36t7 -38.5t14 -30t24.5 -24
t36.5 -7.5q44 0 63.5 41t19.5 132z" />
    <glyph glyph-name="tau" unicode="&#x3c4;" horiz-adv-x="415" 
d="M410 512l-34 -97h-111v-252q0 -49 12 -65.5t46 -16.5q14 0 48 10l17 -80q-56 -23 -109 -23q-51 0 -88.5 20.5t-49.5 54.5q-9 25 -9 79v273h-123v97h401z" />
    <glyph glyph-name="upsilon" unicode="&#x3c5;" horiz-adv-x="541" 
d="M471 159q0 -82 -53.5 -126.5t-153.5 -44.5q-194 0 -194 164v348l132 25v-374q0 -63 70 -63q35 0 53 19t18 47v343l128 27v-365z" />
    <glyph glyph-name="phi" unicode="&#x3c6;" horiz-adv-x="699" 
d="M659 258q0 -46 -10.5 -86t-36 -79t-75.5 -66t-121 -36v-177l-133 -34v211q-112 15 -177.5 86t-65.5 180q0 95 55 165.5t152 91.5v-99q-61 -35 -61 -156q0 -137 97 -167v426q27 4 80 4q126 0 211 -69.5t85 -194.5zM513 259q0 129 -97 159v-326q46 15 71.5 59t25.5 108z
" />
    <glyph glyph-name="chi" unicode="&#x3c7;" horiz-adv-x="510" 
d="M520 0h-170l-54 94q-5 9 -21.5 41t-18.5 35q-12 -35 -51 -99l-43 -71h-172l189 273l-142 215l139 39q45 -75 69 -125q8 -16 16 -34q11 30 45 100q13 27 24 44h158l-152 -236z" />
    <glyph glyph-name="psi" unicode="&#x3c8;" horiz-adv-x="681" 
d="M621 257q0 -115 -53.5 -182.5t-160.5 -75.5v-185l-133 -34v219q-214 16 -214 269v232l132 25v-264q0 -34 2 -53.5t9 -44.5t24.5 -40.5t46.5 -23.5v484q0 89 -9 126l137 32q5 -44 5 -91v-550q45 14 63.5 49t18.5 97v251l132 27v-267z" />
    <glyph glyph-name="omega" unicode="&#x3c9;" horiz-adv-x="709" 
d="M669 198q0 -82 -47 -146.5t-132 -64.5q-50 0 -81.5 20t-53.5 64q-23 -45 -54 -64.5t-83 -19.5q-84 0 -131 64.5t-47 146.5q0 193 148 328l86 -45q-85 -111 -85 -251q0 -65 17.5 -93.5t38.5 -28.5q14 0 28.5 18.5t14.5 59.5v194h133v-194q0 -42 13.5 -60t29.5 -18
q21 0 38.5 28.5t17.5 93.5q0 140 -85 251l86 45q148 -135 148 -328z" />
    <glyph glyph-name="iotadieresis" unicode="&#x3ca;" horiz-adv-x="288" 
d="M288 2q-36 -14 -80 -14q-43 0 -75 17.5t-44 49.5q-3 8 -5 15.5t-2.5 16.5t-1 20.5t-0.5 27.5v38v200q0 85 -9 117l134 32q9 -42 9 -125v-189q0 -98 9 -114q8 -14 27 -14q8 0 15 2zM329 635q0 -31 -22.5 -54t-54.5 -23q-31 0 -53.5 22.5t-22.5 54.5t23 54.5t55 22.5
q31 0 53 -22.5t22 -54.5zM118 635q0 -31 -23 -54t-54 -23t-53.5 23t-22.5 54t23 54t55 23q31 0 53 -22.5t22 -54.5z" />
    <glyph glyph-name="upsilondieresis" unicode="&#x3cb;" horiz-adv-x="541" 
d="M476 159q0 -82 -53.5 -126.5t-153.5 -44.5q-194 0 -194 164v348l132 25v-374q0 -63 70 -63q35 0 53 19t18 47v343l128 27v-365zM457 635q0 -31 -22.5 -54t-54.5 -23q-31 0 -53.5 22.5t-22.5 54.5t23 54.5t55 22.5q31 0 53 -22.5t22 -54.5zM246 635q0 -31 -23 -54t-54 -23
t-53.5 23t-22.5 54t23 54t55 23q31 0 53 -22.5t22 -54.5z" />
    <glyph glyph-name="omicrontonos" unicode="&#x3cc;" horiz-adv-x="543" 
d="M508 258q0 -125 -64 -198q-63 -71 -169 -71q-104 0 -167 72t-63 193t63 194.5t167 73.5q109 0 174 -77q59 -69 59 -187zM362 259q0 103 -27 137q-21 27 -58 27q-51 0 -69 -52q-14 -42 -14 -114q0 -89 17 -129q9 -20 28 -31t40 -11q44 0 63.5 41t19.5 132zM422 754
l-110 -200l-77 34l77 210z" />
    <glyph glyph-name="upsilontonos" unicode="&#x3cd;" horiz-adv-x="541" 
d="M476 159q0 -82 -53.5 -126.5t-153.5 -44.5q-194 0 -194 164v348l132 25v-374q0 -63 70 -63q35 0 53 19t18 47v343l128 27v-365zM427 754l-110 -200l-77 34l77 210z" />
    <glyph glyph-name="omegatonos" unicode="&#x3ce;" horiz-adv-x="709" 
d="M674 198q0 -82 -47 -146.5t-132 -64.5q-50 0 -81.5 20t-53.5 64q-23 -45 -54 -64.5t-83 -19.5q-84 0 -131 64.5t-47 146.5q0 193 148 328l86 -45q-85 -111 -85 -251q0 -65 17.5 -93.5t38.5 -28.5q14 0 28.5 18.5t14.5 59.5v194h133v-194q0 -42 13.5 -60t29.5 -18
q21 0 38.5 28.5t17.5 93.5q0 140 -85 251l86 45q148 -135 148 -328zM504 754l-110 -200l-77 34l77 210z" />
    <glyph glyph-name="beta1" unicode="&#x3d0;" horiz-adv-x="592" 
d="M557 194q0 -86 -58.5 -146t-176.5 -60q-82 0 -126 49q-5 -23 -14 -37h-120q13 30 13 109v324q0 281 225 281q94 0 151 -49.5t57 -128.5q0 -112 -98 -149q68 -18 107.5 -68.5t39.5 -124.5zM411 192q0 66 -29.5 98t-112.5 32h-18l19 100h7q61 0 80 26.5t19 77.5
q0 89 -76 89q-24 0 -41 -9t-26.5 -22.5t-14.5 -37t-6.5 -44.5t-1.5 -52v-313q17 -20 47 -36.5t54 -16.5q100 0 100 108z" />
    <glyph glyph-name="phi1" unicode="&#x3d5;" horiz-adv-x="686" 
d="M646 258q0 -45 -10.5 -84.5t-35 -78.5t-73.5 -66.5t-118 -36.5v-186l-133 -30v217q-109 16 -172.5 86t-63.5 178q0 110 65.5 176.5t170.5 83.5v66q0 89 -9 126l137 32q5 -44 5 -91v-133q105 -17 171 -83t66 -176zM276 97v317q-91 -30 -91 -155q0 -131 91 -162zM500 259
q0 127 -91 156v-318q91 33 91 162z" />
    <glyph glyph-name="uni03DC" unicode="&#x3dc;" horiz-adv-x="551" 
d="M507 40l-95 -54q-27 19 -40 50q-51 -49 -135 -49q-19 0 -35 14q2 -20 2 -31v-156l-129 -34v720l132 25v-329q0 -62 11 -84q12 -24 47 -24q25 0 50 15t33 34v360l128 27v-391q0 -56 31 -93z" />
    <glyph glyph-name="afii10023" unicode="&#x401;" horiz-adv-x="505" 
d="M480 0h-405v695h396l-18 -114h-238v-161h199v-114h-197v-186h263v-120zM446 810q0 -31 -23 -54t-54 -23t-53.5 23t-22.5 54t23 54t55 23q31 0 53 -22.5t22 -54.5zM235 810q0 -31 -23 -54t-54 -23q-30 0 -53 23t-23 54t23.5 54t54.5 23t53 -23t22 -54z" />
    <glyph glyph-name="afii10051" unicode="&#x402;" horiz-adv-x="703" 
d="M516 695l-23 -116h-179v-170q75 31 141 31q74 0 123 -45q65 -59 65 -178q0 -124 -55 -181q-46 -48 -121 -48q-48 0 -89 15l-14 5l22 99q8 -4 23 -9t29 -5q25 0 38 15.5t15 31t2 40.5v37q0 67 -24 91q-21 21 -62 21q-47 0 -93 -21v-308h-142v579h-157v116h501z" />
    <glyph glyph-name="afii10052" unicode="&#x403;" horiz-adv-x="464" 
d="M454 695l-16 -113h-221v-582h-142v695h379zM384 833l-224 -100l-41 74l207 130z" />
    <glyph glyph-name="afii10053" unicode="&#x404;" horiz-adv-x="575" 
d="M538 652l-63 -94q-52 39 -118 39q-80 0 -119 -54q-27 -37 -31 -99l-1 -22h199v-112h-202v-33q0 -77 31 -121q40 -58 131 -58q66 0 124 45l64 -90q-83 -65 -198 -65q-144 0 -228 96q-82 94 -82 266q0 165 78 258q83 99 228 99q108 0 187 -55z" />
    <glyph glyph-name="afii10054" unicode="&#x405;" horiz-adv-x="594" 
d="M547 646l-66 -100q-81 53 -161 53q-38 0 -64 -17q-34 -22 -34 -66q0 -22 13 -36q15 -18 64 -31l84 -23q84 -23 129 -74q47 -53 47 -133q0 -96 -67 -159q-79 -75 -220 -75q-122 0 -237 63l52 109q99 -56 191 -56q64 0 97 30q25 23 25 65q0 32 -21 55q-19 21 -70 35l-77 21
q-96 26 -137 88q-29 43 -29 106q0 96 72 157q68 58 177 58q133 0 232 -70z" />
    <glyph glyph-name="afii10055" unicode="&#x406;" horiz-adv-x="292" 
d="M217 0h-142v695h142v-695z" />
    <glyph glyph-name="afii10056" unicode="&#x407;" horiz-adv-x="292" 
d="M217 0h-142v695h142v-695zM328 810q0 -31 -23 -54t-54 -23t-53.5 23t-22.5 54t23 54t55 23q31 0 53 -22.5t22 -54.5zM117 810q0 -31 -23 -54t-54 -23q-30 0 -53 23t-23 54t23.5 54t54.5 23t53 -23t22 -54z" />
    <glyph glyph-name="afii10057" unicode="&#x408;" horiz-adv-x="297" 
d="M222 695v-601q0 -59 -10 -95q-32 -113 -162 -163l-65 72q56 34 81 84q14 38 14 88v615h142z" />
    <glyph glyph-name="afii10058" unicode="&#x409;" horiz-adv-x="926" 
d="M544 436h87q54 0 95.5 -9.5t79.5 -40.5q70 -59 70 -166q0 -120 -86 -179q-60 -41 -153 -41h-235v585h-129l-4 -108q-6 -177 -23 -288q-13 -94 -54 -137q-40 -42 -127 -55l-44 -7l-26 101l17 5q34 9 52 23q29 22 41 54q13 31 22 116q15 132 17 283l2 123h398v-259z
M544 112h75q56 0 83 34q22 28 22 76q0 49 -28 76q-26 26 -77 26h-75v-212z" />
    <glyph glyph-name="afii10059" unicode="&#x40a;" horiz-adv-x="934" 
d="M410 695h142v-263h87q54 0 95.5 -9.5t79.5 -40.5q70 -59 70 -162q0 -119 -86 -179q-60 -41 -153 -41h-235v318h-193v-318h-142v695h142v-262h193v262zM552 112h75q55 0 83 34q22 27 22 72q0 49 -28 76q-26 26 -77 26h-75v-208z" />
    <glyph glyph-name="afii10060" unicode="&#x40b;" horiz-adv-x="705" 
d="M516 695l-23 -116h-179v-170q76 31 141 31q88 0 136 -48q44 -44 44 -118v-274h-142v217q0 67 -24 91q-21 21 -62 21q-47 0 -93 -21v-308h-142v579h-157v116h501z" />
    <glyph glyph-name="afii10061" unicode="&#x40c;" horiz-adv-x="639" 
d="M573 705l27 -93l-32 -8q-19 -5 -32 -14q-17 -13 -27 -46l-19 -66q-16 -54 -37 -76q-25 -25 -57 -33q32 -10 54 -32q24 -24 40 -74l30 -103q12 -39 33 -51q17 -10 40 -16l21 -6l-26 -97l-79 9q-54 6 -84 40q-19 23 -33 86l-23 101q-10 43 -33 64q-22 20 -67 20h-52v-310
h-142v695h142v-270h62q46 0 69 20q18 16 29 63l22 87q12 49 33 70q23 24 74 31zM472 833l-224 -100l-41 74l207 130z" />
    <glyph glyph-name="afii10062" unicode="&#x40e;" horiz-adv-x="551" 
d="M148 695l96 -259q28 -78 44 -140q17 73 50 169l81 230h147l-182 -489l-31.5 -85.5t-23.5 -54.5t-23 -35q-37 -40 -123 -55l-44 -7l-26 101l17 5q33 9 52 22q38 25 60 85l12 32l-68 -9l-191 490h153zM370 887l70 -29q-13 -49 -55 -80t-110 -31t-110 31t-55 80l70 29
q8 -20 34 -34q22 -13 61 -13t61 13q26 14 34 34z" />
    <glyph glyph-name="afii10145" unicode="&#x40f;" horiz-adv-x="617" 
d="M217 695v-580h183v580h142v-695h-165v-172h-134v172h-168v695h142z" />
    <glyph glyph-name="afii10017" unicode="&#x410;" horiz-adv-x="592" 
d="M595 0h-150l-49 165h-204l-49 -165h-146l228 697h151zM226 280h136q-22 71 -38 141q-21 86 -28 122l-33 -133q-26 -98 -37 -130z" />
    <glyph glyph-name="afii10018" unicode="&#x411;" horiz-adv-x="614" 
d="M75 695h440l-18 -114h-280v-157h109q108 0 169 -49q69 -56 69 -161q0 -118 -82 -174q-58 -40 -150 -40h-257v695zM217 114h94q50 0 75 31q20 25 20 69q0 54 -36 79q-24 17 -64 17h-89v-196z" />
    <glyph glyph-name="afii10019" unicode="&#x412;" horiz-adv-x="610" 
d="M75 695h235q59 0 99 -10t73 -40q56 -51 56 -124q0 -72 -47 -116q-28 -25 -64 -36q42 -10 77 -39q61 -51 61 -136t-54.5 -139.5t-156.5 -54.5h-279v695zM215 114h99q49 0 74 34q19 27 19 63q0 46 -26 70q-22 21 -67 21h-99v-188zM213 576v-159h94q44 0 65 23q20 22 20 57
q0 53 -40 70q-21 9 -58 9h-81z" />
    <glyph glyph-name="afii10020" unicode="&#x413;" horiz-adv-x="464" 
d="M454 695l-16 -113h-221v-582h-142v695h379z" />
    <glyph glyph-name="afii10021" unicode="&#x414;" horiz-adv-x="660" 
d="M565 695v-585h72v-278h-135v168h-362v-168h-135v278h45q66 131 90 261q20 113 24 234l3 90h398zM282 585l-4 -71q-5 -79 -13 -129t-30 -124q-28 -94 -62 -151h250v475h-141z" />
    <glyph glyph-name="afii10022" unicode="&#x415;" horiz-adv-x="505" 
d="M480 0h-405v695h396l-18 -115h-238v-160h199v-115h-197v-185h263v-120z" />
    <glyph glyph-name="afii10024" unicode="&#x416;" horiz-adv-x="939" 
d="M872 707l27 -93l-32 -8q-22 -6 -32 -14q-18 -13 -26 -46l-19 -68q-17 -57 -37 -78q-20 -22 -54 -33q31 -11 52 -32q29 -32 40 -72l29 -103q12 -39 33 -51q17 -10 40 -16l21 -6l-26 -97l-79 9q-56 5 -84 40q-19 22 -33 86l-23 101q-10 42 -33 62q-24 22 -67 22h-30v-310
h-139v310h-30q-43 0 -67 -22q-23 -20 -33 -62l-23 -101q-14 -64 -33 -86q-28 -35 -84 -40l-79 -9l-26 97l21 6q23 6 40 16q21 12 33 51l29 103q11 40 40 72q21 21 52 32q-34 11 -54 33q-20 21 -37 78l-19 68q-8 33 -26 46q-10 8 -32 14l-32 8l27 93l67 -9q51 -7 74 -31
q21 -22 33 -70l21 -89q13 -49 29 -63q24 -20 62 -20h47v270h139v-270h47q38 0 62 20q16 14 29 63l21 89q12 48 33 70q23 24 74 31z" />
    <glyph glyph-name="afii10025" unicode="&#x417;" horiz-adv-x="545" 
d="M233 306h-82v105h69q54 0 79 23t25 69t-22 68q-26 28 -81 28q-73 0 -120 -38l-66 89q91 57 208 57q99 0 160 -44q72 -52 72 -144q0 -58 -32 -99q-31 -39 -80 -55q49 -7 85 -37q52 -46 52 -128q0 -101 -83 -162q-68 -50 -190 -50q-130 0 -212 65l64 91q62 -48 142 -48
q66 0 96 32q25 26 25 77q0 48 -23 72q-27 29 -86 29z" />
    <glyph glyph-name="afii10026" unicode="&#x418;" horiz-adv-x="650" 
d="M575 0h-142v344q0 59 6 147q-13 -43 -48 -121l-169 -370h-147v695h142v-344q0 -59 -6 -147q13 43 48 121l169 370h147v-695z" />
    <glyph glyph-name="afii10027" unicode="&#x419;" horiz-adv-x="650" 
d="M575 0h-142v344q0 59 6 147q-13 -43 -48 -121l-169 -370h-147v695h142v-344q0 -59 -6 -147q13 43 48 121l169 370h147v-695zM420 883l70 -29q-13 -49 -55 -80t-110 -31t-110 31t-55 80l70 29q12 -21 34 -34q23 -13 61 -13t61 13q22 13 34 34z" />
    <glyph glyph-name="afii10028" unicode="&#x41a;" horiz-adv-x="639" 
d="M573 705l27 -93l-32 -8q-19 -5 -32 -14q-17 -13 -27 -46l-19 -66q-16 -54 -37 -76q-25 -25 -57 -33q32 -10 54 -32q24 -24 40 -74l30 -103q12 -39 33 -51q17 -10 40 -16l21 -6l-26 -97l-79 9q-54 6 -84 40q-19 23 -33 86l-23 101q-10 43 -33 64q-22 20 -67 20h-52v-310
h-142v695h142v-270h62q46 0 69 20q18 16 29 63l22 87q12 49 33 70q23 24 74 31z" />
    <glyph glyph-name="afii10029" unicode="&#x41b;" horiz-adv-x="619" 
d="M544 0h-142v580h-129l-4 -103q-7 -177 -23 -288q-13 -94 -54 -137q-40 -42 -127 -55l-44 -7l-26 101l17 5q34 9 52 23q29 22 41 54q13 31 22 116q15 132 17 283l2 123h398v-695z" />
    <glyph glyph-name="afii10030" unicode="&#x41c;" horiz-adv-x="828" 
d="M773 0h-137l-26 379q-3 36 -5 116q-9 -49 -26 -107l-110 -388h-119l-99 373q-19 71 -28 123q-2 -88 -5 -125l-24 -371h-139l65 695h179l91 -353q13 -50 16 -65q1 -5 2.5 -14.5t2.5 -14.5q1 -2 2 -8t1 -8q16 79 25 113l94 350h178z" />
    <glyph glyph-name="afii10031" unicode="&#x41d;" horiz-adv-x="633" 
d="M558 0h-142v310h-199v-310h-142v695h142v-270h199v270h142v-695z" />
    <glyph glyph-name="afii10032" unicode="&#x41e;" horiz-adv-x="692" 
d="M346 707q136 0 216 -92q85 -96 85 -268q0 -170 -85 -267q-80 -92 -216 -92t-216 92q-85 97 -85 267q0 172 85 268q80 92 216 92zM346 600q-77 0 -114 -74q-29 -58 -29 -179q0 -120 29 -178q37 -74 114 -74t114 74q29 58 29 178q0 121 -29 179q-37 74 -114 74z" />
    <glyph glyph-name="afii10033" unicode="&#x41f;" horiz-adv-x="621" 
d="M546 0h-140v580h-191v-580h-140v695h471v-695z" />
    <glyph glyph-name="afii10034" unicode="&#x420;" horiz-adv-x="578" 
d="M75 695h218q100 0 160 -34q100 -55 100 -180q0 -24 -5 -48.5t-16.5 -53.5t-37 -55.5t-61.5 -44.5q-49 -23 -139 -23h-77v-256h-142v695zM217 370h73q45 0 63 8t30 28q17 29 17 71q0 49 -22 75q-25 30 -72 30h-89v-212z" />
    <glyph glyph-name="afii10035" unicode="&#x421;" horiz-adv-x="572" 
d="M483 140l64 -87q-79 -65 -192 -65q-142 0 -226 96q-84 95 -84 248q0 127 47 215q40 74 111 117t154 43q105 0 175 -55l-63 -94q-48 39 -108 39q-38 0 -69.5 -16.5t-50.5 -43.5q-39 -57 -39 -191q0 -120 29 -173q42 -77 134 -77q66 0 118 44z" />
    <glyph glyph-name="afii10036" unicode="&#x422;" horiz-adv-x="501" 
d="M516 695l-23 -115h-166v-580h-142v580h-170v115h501z" />
    <glyph glyph-name="afii10037" unicode="&#x423;" horiz-adv-x="551" 
d="M148 695l96 -259q28 -78 44 -140q17 73 50 169l81 230h147l-182 -489l-31.5 -85.5t-23.5 -54.5t-23 -35q-37 -40 -123 -55l-44 -7l-26 101l17 5q33 9 52 22q38 25 60 85l12 32l-68 -9l-191 490h153z" />
    <glyph glyph-name="afii10038" unicode="&#x424;" horiz-adv-x="796" 
d="M469 0h-142v102h-24q-127 0 -197 81q-61 71 -61 185q0 137 77 205q68 60 181 60h24v97h142v-97h24q113 0 181 -60q77 -68 77 -205q0 -114 -61 -185q-70 -81 -197 -81h-24v-102zM334 538h-12q-52 0 -85 -30q-39 -38 -39 -134v-11q0 -29 1 -46t10 -43t26 -44q32 -33 87 -33
h12v341zM462 538v-341h12q55 0 87 33q17 18 26 44t10 43t1 46v11q0 96 -39 134q-33 30 -85 30h-12z" />
    <glyph glyph-name="afii10039" unicode="&#x425;" horiz-adv-x="572" 
d="M582 0h-169l-125 245l-124 -245h-174l218 372l-188 323h171l94 -187l95 187h167l-181 -314z" />
    <glyph glyph-name="afii10040" unicode="&#x426;" horiz-adv-x="637" 
d="M217 695v-580h183v580h142v-581h72v-286h-135v172h-404v695h142z" />
    <glyph glyph-name="afii10041" unicode="&#x427;" horiz-adv-x="593" 
d="M518 0h-142v289q-66 -31 -146 -31q-89 0 -137 48q-43 43 -43 118v271h142v-218q0 -58 18 -82q22 -30 70 -30q41 0 96 21v309h142v-695z" />
    <glyph glyph-name="afii10042" unicode="&#x428;" horiz-adv-x="926" 
d="M215 695v-584h178v584h140v-584h178v584h140v-695h-776v695h140z" />
    <glyph glyph-name="afii10043" unicode="&#x429;" horiz-adv-x="946" 
d="M215 695v-584h178v584h140v-584h178v584h140v-581h72v-286h-135v172h-713v695h140z" />
    <glyph glyph-name="afii10044" unicode="&#x42a;" horiz-adv-x="706" 
d="M322 695v-259h91q118 0 178 -50q70 -58 70 -166q0 -121 -86 -179q-61 -41 -156 -41h-239v580h-170v115h312zM322 112h79q55 0 83 35q22 28 22 74q0 52 -28 78q-27 25 -77 25h-79v-212z" />
    <glyph glyph-name="afii10045" unicode="&#x42b;" horiz-adv-x="866" 
d="M75 695h142v-259h87q54 0 95.5 -9.5t79.5 -40.5q70 -59 70 -166q0 -120 -86 -179q-60 -41 -153 -41h-235v695zM649 695h142v-695h-142v695zM217 112h75q54 0 83 34q22 26 22 76t-28 76q-29 26 -77 26h-75v-212z" />
    <glyph glyph-name="afii10046" unicode="&#x42c;" horiz-adv-x="601" 
d="M75 695h142v-259h91q30 0 56.5 -3t64 -16t63.5 -34.5t45 -63.5t19 -99q0 -110 -68 -165t-174 -55h-239v695zM217 112h79q105 0 105 107q0 30 -9 51t-20 31.5t-28 16t-26 6t-22 0.5h-79v-212z" />
    <glyph glyph-name="afii10047" unicode="&#x42d;" horiz-adv-x="575" 
d="M100 558l-63 94q79 55 187 55q145 0 228 -99q78 -93 78 -258q0 -172 -82 -266q-84 -96 -228 -96q-115 0 -198 65l64 90q58 -45 124 -45q91 0 131 58q31 44 31 121v33h-202v112h199l-1 22q-4 62 -31 99q-39 54 -119 54q-66 0 -118 -39z" />
    <glyph glyph-name="afii10048" unicode="&#x42e;" horiz-adv-x="951" 
d="M75 695h139v-270h112q12 119 74 192q76 90 211 90q131 0 211 -93q84 -98 84 -266q0 -166 -84 -266q-80 -94 -211 -94q-149 0 -229 115q-60 89 -60 207h-108v-310h-139v695zM611 600q-77 0 -110 -74q-27 -61 -27 -178t27 -178q34 -75 110 -75t110 75q27 61 27 178t-27 178
q-33 74 -110 74z" />
    <glyph glyph-name="afii10049" unicode="&#x42f;" horiz-adv-x="624" 
d="M549 695v-695h-142v283h-59q-40 0 -67 -25q-24 -22 -33 -62l-16 -71q-14 -64 -33 -86q-28 -35 -84 -40l-79 -9l-26 97l21 6q23 6 40 16q21 12 33 51l23 79q14 46 40 71q22 21 56 32q-64 10 -102 53q-40 44 -40 118q0 86 66 138q55 44 163 44h239zM407 583h-77
q-42 0 -63 -12q-39 -23 -39 -77q0 -46 21 -71q23 -28 71 -28h87v188z" />
    <glyph glyph-name="afii10065" unicode="&#x430;" horiz-adv-x="522" 
d="M493 56l-71 -82q-49 21 -72 62q-23 -21 -31 -27q-38 -28 -103 -28q-83 0 -128 40q-48 44 -48 120q0 108 89 149q58 27 155 27q22 0 32 -1v21q0 45 -12 61t-47 16q-70 0 -149 -59l-57 96q34 22 82 42q76 31 137 31q135 0 169 -90q9 -25 9 -83v-9l-3 -172q0 -4 -0.5 -11
t-0.5 -11q0 -57 49 -92zM314 224h-6q-77 0 -102 -19q-23 -18 -23 -56q0 -32 16.5 -51t42.5 -19q40 0 70 35z" />
    <glyph glyph-name="afii10066" unicode="&#x431;" horiz-adv-x="551" 
d="M154 425h4q20 34 49 54q45 33 111 33q78 0 134 -66q59 -70 59 -190q0 -123 -62 -195q-64 -73 -170 -73q-107 0 -171 72q-28 32 -43 77.5t-17.5 79t-2.5 87.5q0 138 26 218q21 65 62 101.5t115 67.5l87 36q84 36 108 48l45 -105q-41 -25 -114 -51q-119 -41 -140 -52
q-52 -27 -68 -68q-12 -29 -12 -74zM278 414q-37 0 -58 -27q-27 -36 -27 -136q0 -101 27 -137q20 -28 58 -28t58 28q27 36 27 137q0 100 -27 136q-21 27 -58 27z" />
    <glyph glyph-name="afii10067" unicode="&#x432;" horiz-adv-x="539" 
d="M75 512h237q68 0 103 -24q52 -37 52 -108q0 -44 -29 -76q-20 -22 -50 -33q37 -6 66 -33q35 -33 35 -90q0 -68 -42 -107q-44 -41 -130 -41h-242v512zM203 225v-140h53q54 0 74 18q19 17 19 53q0 37 -22 55q-17 14 -54 14h-70zM203 427v-120h60q41 0 58 18q14 16 14 45
q0 31 -18 45q-15 12 -47 12h-67z" />
    <glyph glyph-name="afii10068" unicode="&#x433;" horiz-adv-x="413" 
d="M207 0h-132v512h338l-14 -94h-192v-418z" />
    <glyph glyph-name="afii10069" unicode="&#x434;" horiz-adv-x="543" 
d="M523 94v-234h-125v140h-273v-140h-125v234h41q43 79 61 153q24 95 28 203l2 62h327v-418h64zM327 418h-97l-5 -70q-5 -65 -19 -124q-18 -78 -50 -130h171v324z" />
    <glyph glyph-name="afii10070" unicode="&#x435;" horiz-adv-x="516" 
d="M486 214h-296v-11q0 -57 33 -88q28 -27 77 -27q66 0 128 51l52 -80q-85 -71 -193 -71q-107 0 -173 68q-69 73 -69 201q0 125 64 197q63 70 161 70q93 0 148 -55q68 -69 68 -224v-31zM347 312v6q0 57 -19 82q-21 26 -56 26q-36 0 -56 -25q-24 -29 -24 -87v-2h155z" />
    <glyph glyph-name="afii10072" unicode="&#x436;" horiz-adv-x="770" 
d="M321 500l128 25v-208h20q35 0 52 15q13 12 21 47l11 50q10 44 31 63q24 21 79 26l48 4l24 -91l-22 -5q-19 -5 -26 -10q-13 -10 -21 -34l-17 -46q-19 -56 -69 -64q23 -6 38.5 -19.5t21 -24t12.5 -29.5l25 -63q12 -29 25 -38q12 -9 30 -12l18 -4l-24 -92l-44 3
q-77 5 -102 33q-20 23 -29 64l-17 71q-8 35 -25 49q-16 13 -49 13h-11v-223h-128v223h-11q-33 0 -49 -13q-17 -14 -25 -49l-17 -71q-9 -41 -29 -64q-25 -28 -102 -33l-44 -3l-24 92l18 4q18 3 30 12q13 9 25 38l25 63q7 19 12.5 29.5t21 24t38.5 19.5q-50 8 -69 64l-17 46
q-8 24 -21 34q-7 5 -26 10l-22 5l24 91l48 -4q55 -5 79 -26q21 -19 31 -63l11 -50q8 -35 21 -47q17 -15 52 -15h20v183z" />
    <glyph glyph-name="afii10073" unicode="&#x437;" horiz-adv-x="460" 
d="M148 314h52q34 0 50 19q12 14 12 38q0 28 -17 41q-17 14 -49 14q-39 0 -69 -15q-19 -9 -40 -27l-54 78q24 22 64 40q53 22 115 22q82 0 133 -35q56 -39 56 -112q0 -37 -15 -62q-20 -34 -56 -47q42 -12 63 -42q22 -30 22 -76q0 -80 -69 -125q-56 -37 -148 -37
q-80 0 -131 33q-19 11 -47 37l60 80q19 -20 45 -35q31 -17 64 -17q43 0 61 16q21 17 21 53q0 40 -26 56q-18 11 -59 11h-38v92z" />
    <glyph glyph-name="afii10074" unicode="&#x438;" horiz-adv-x="574" 
d="M212 0h-137v500l132 25v-236q0 -55 -6 -117q44 103 57 128l104 200l137 25v-525h-132v186q0 77 6 147q-21 -64 -51 -121z" />
    <glyph glyph-name="afii10075" unicode="&#x439;" horiz-adv-x="574" 
d="M212 0h-137v500l132 25v-236q0 -55 -6 -117q44 103 57 128l104 200l137 25v-525h-132v186q0 77 6 147q-21 -64 -51 -121zM384 742l71 -29q-15 -57 -56 -88q-43 -33 -112 -33q-70 0 -112 33q-38 30 -56 88l71 29q13 -22 36 -36t61 -14q40 0 62 14q23 13 35 36z" />
    <glyph glyph-name="afii10076" unicode="&#x43a;" horiz-adv-x="551" 
d="M75 500l132 25v-208h33q35 0 52 15q13 12 21 47l11 50q10 44 31 63q24 21 79 26l48 4l24 -91l-22 -5q-19 -5 -26 -10q-13 -10 -21 -34l-17 -46q-19 -56 -69 -64q23 -6 38.5 -19.5t21 -24t12.5 -29.5l25 -63q12 -29 25 -38q12 -9 30 -12l18 -4l-24 -92l-44 3
q-77 5 -102 33q-20 23 -29 64l-17 71q-8 35 -25 49q-16 13 -49 13h-24v-223h-132v500z" />
    <glyph glyph-name="afii10077" unicode="&#x43b;" horiz-adv-x="532" 
d="M325 0v418h-91l-2 -43q-5 -96 -6 -117q-9 -111 -19 -152q-14 -54 -42 -78q-32 -28 -93 -33l-50 -5l-24 92l25 7q35 9 52 35q12 19 20 61q9 45 15 134q4 57 6 129l2 64h339v-512h-132z" />
    <glyph glyph-name="afii10078" unicode="&#x43c;" horiz-adv-x="706" 
d="M658 0h-119l-21 266q-3 42 -3 86q-12 -54 -22 -79l-94 -273h-102l-84 261q-15 45 -24 91q0 -48 -3 -93l-19 -259h-119l53 512h156l74 -253q17 -56 21 -81q7 37 21 83l76 251h156z" />
    <glyph glyph-name="afii10079" unicode="&#x43d;" horiz-adv-x="552" 
d="M207 0h-132v500l132 25v-208h138v183l132 25v-525h-132v223h-138v-223z" />
    <glyph glyph-name="afii10080" unicode="&#x43e;" horiz-adv-x="546" 
d="M273 524q105 0 170 -73q63 -71 63 -195t-63 -195q-65 -73 -170 -73t-170 73q-63 71 -63 195t63 195q65 73 170 73zM273 426q-38 0 -58 -28q-27 -36 -27 -142t27 -142q20 -28 58 -28t58 28q27 36 27 142t-27 142q-20 28 -58 28z" />
    <glyph glyph-name="afii10081" unicode="&#x43f;" horiz-adv-x="544" 
d="M207 0h-132v512h394v-512h-132v418h-130v-418z" />
    <glyph glyph-name="afii10082" unicode="&#x440;" horiz-adv-x="565" 
d="M67 501l122 21q4 -10 9 -48q45 50 126 50q52 0 101 -32q95 -64 95 -232q0 -141 -71 -213q-59 -59 -137 -59q-61 0 -107 28q2 -20 2 -31v-171l-132 -35v593q0 95 -8 129zM207 374v-249q38 -30 77 -30q51 0 73 44q17 36 17 118q0 81 -13 113q-16 43 -63 43q-50 0 -91 -39z
" />
    <glyph glyph-name="afii10083" unicode="&#x441;" horiz-adv-x="465" 
d="M379 139l61 -81q-25 -26 -47 -38q-55 -32 -125 -32q-99 0 -158 63q-65 70 -65 201q0 57 12.5 103t33 73t33.5 40t26 21q53 35 130 35q53 0 96 -23q32 -17 50 -36l-65 -88q-43 40 -84 40q-45 0 -67 -48q-17 -36 -17 -127q0 -89 26 -123q23 -29 60 -29q23 0 49 12
q15 7 43 30z" />
    <glyph glyph-name="afii10084" unicode="&#x442;" horiz-adv-x="401" 
d="M277 0h-132v418h-130v94h401l-18 -94h-121v-418z" />
    <glyph glyph-name="afii10085" unicode="&#x443;" horiz-adv-x="507" 
d="M366 512h141l-186 -520q-47 -132 -98 -169q-48 -37 -124 -47l-46 88q52 12 83 35q25 19 37 38q14 22 30 63h-34l-18 55l-14 40q-4 11 -16 49l-121 360l137 16l89 -299q20 -73 27 -105q1 4 4.5 23l6.5 35t5 23q14 52 20 71z" />
    <glyph glyph-name="afii10086" unicode="&#x444;" horiz-adv-x="762" 
d="M447 16v-218h-132v218q-38 -28 -81 -28q-81 0 -134 63q-60 72 -60 208q0 137 61 209q48 56 119 56q52 0 95 -33v218l132 32v-250q43 33 95 33q71 0 119 -56q61 -72 61 -209q0 -136 -60 -208q-53 -63 -134 -63q-43 0 -81 28zM315 121v268q-31 28 -64 28q-32 0 -50 -28
q-21 -34 -21 -124q0 -102 19 -136t59 -34q29 0 57 26zM447 389v-268q28 -26 57 -26q40 0 59 34t19 136q0 90 -21 124q-18 28 -50 28q-33 0 -64 -28z" />
    <glyph glyph-name="afii10087" unicode="&#x445;" horiz-adv-x="510" 
d="M520 0h-170l-54 94q-5 9 -21.5 41t-18.5 35q-12 -35 -51 -99l-43 -71h-172l189 273l-142 215l139 39q45 -75 69 -125q8 -16 16 -34q11 30 45 100q13 27 24 44h158l-152 -236z" />
    <glyph glyph-name="afii10088" unicode="&#x446;" horiz-adv-x="559" 
d="M333 500l132 25v-431h64v-234h-125v140h-329v500l132 25v-431h126v406z" />
    <glyph glyph-name="afii10089" unicode="&#x447;" horiz-adv-x="497" 
d="M290 500l132 25v-525h-132v198q-52 -20 -100 -20q-83 0 -121 46q-29 34 -29 100v176l132 25v-188q0 -35 16 -51q14 -14 41 -14q31 0 61 15v213z" />
    <glyph glyph-name="afii10090" unicode="&#x448;" horiz-adv-x="782" 
d="M326 500l130 25v-435h121v410l130 25v-525h-632v500l130 25v-435h121v410z" />
    <glyph glyph-name="afii10091" unicode="&#x449;" horiz-adv-x="801" 
d="M326 500l130 25v-435h121v410l130 25v-431h64v-234h-125v140h-571v500l130 25v-435h121v410z" />
    <glyph glyph-name="afii10092" unicode="&#x44a;" 
d="M268 331h85q82 0 131 -41q51 -43 51 -131q0 -79 -52 -122q-44 -37 -120 -37h-227v418h-121l-10 94h263v-181zM268 239v-147h53q34 0 53 16q21 19 21 56q0 39 -20 57t-58 18h-49z" />
    <glyph glyph-name="afii10093" unicode="&#x44b;" horiz-adv-x="755" 
d="M75 500l132 25v-194h75q82 0 131 -41q51 -43 51 -131q0 -79 -52 -122q-44 -37 -120 -37h-217v500zM548 500l132 25v-525h-132v500zM207 239v-147h49q34 0 53 16q21 19 21 56q0 39 -20 57t-58 18h-45z" />
    <glyph glyph-name="afii10094" unicode="&#x44c;" horiz-adv-x="509" 
d="M75 500l132 25v-194h85q82 0 131 -41q51 -43 51 -131q0 -79 -52 -122q-44 -37 -120 -37h-227v500zM207 239v-147h53q34 0 53 16q21 19 21 56q0 39 -20 57t-58 18h-49z" />
    <glyph glyph-name="afii10095" unicode="&#x44d;" horiz-adv-x="484" 
d="M168 223v94h128v13q0 51 -23 75q-21 24 -63 24q-34 0 -64 -15q-21 -10 -36 -25l-61 79q29 25 62 39q47 20 110 20q105 0 160 -65q32 -37 47.5 -94.5t15.5 -112.5q0 -161 -98 -229q-56 -38 -139 -38q-70 0 -123 32q-22 13 -49 38l61 77q10 -12 31 -26q35 -23 79 -23
q49 0 72 29q18 22 18 81v27h-128z" />
    <glyph glyph-name="afii10096" unicode="&#x44e;" horiz-adv-x="770" 
d="M207 525v-208h79q11 81 47 127q23 30 66.5 54t103.5 24q104 0 166 -71q61 -69 61 -195q0 -124 -61 -194q-65 -72 -166 -72q-114 0 -171 78q-42 55 -49 155h-76v-223h-132v500zM502 424q-35 0 -55 -28q-25 -35 -25 -140t25 -140q20 -28 55 -28t55 28q25 35 25 140t-25 140
q-20 28 -55 28z" />
    <glyph glyph-name="afii10097" unicode="&#x44f;" horiz-adv-x="511" 
d="M461 512v-512h-132v195h-31q-31 0 -49 -15q-17 -15 -25 -47l-10 -43q-10 -43 -29 -64q-25 -28 -102 -33l-44 -3l-24 92l18 4q18 3 30 12q13 9 25 38l15 37q12 28 27 42q19 17 44 24q-47 5 -77 39t-30 88q0 74 52 112q45 34 129 34h213zM329 418h-49q-40 0 -58 -17
t-18 -45q0 -40 14 -56q17 -20 58 -20h53v138z" />
    <glyph glyph-name="afii10071" unicode="&#x451;" horiz-adv-x="516" 
d="M486 214h-296v-11q0 -57 33 -88q28 -27 77 -27q66 0 128 51l52 -80q-85 -71 -193 -71q-107 0 -173 68q-69 73 -69 201q0 125 64 197q63 70 161 70q93 0 148 -55q68 -69 68 -224v-31zM450 635q0 -31 -23 -54t-54 -23t-53.5 23t-22.5 54t23 54t55 23q31 0 53 -22.5
t22 -54.5zM239 635q0 -31 -23 -54t-54 -23q-30 0 -53 23t-23 54t23.5 54t54.5 23t53 -23t22 -54zM347 312v6q0 57 -19 82q-21 26 -56 26q-36 0 -56 -25q-24 -29 -24 -87v-2h155z" />
    <glyph glyph-name="afii10099" unicode="&#x452;" horiz-adv-x="568" 
d="M76 718l132 32v-117h195l-23 -68h-172v-66l-2 -43q63 55 145 55q147 0 147 -156v-301q0 -136 -63 -206q-36 -41 -98 -68l-56 74q31 29 49 55q36 51 36 141v279q0 38 -11.5 54t-38.5 16q-56 0 -108 -47v-352h-132v565h-51v68h51v85z" />
    <glyph glyph-name="afii10100" unicode="&#x453;" horiz-adv-x="413" 
d="M207 0h-132v512h338l-14 -94h-192v-418zM382 658l-224 -100l-41 74l207 130z" />
    <glyph glyph-name="afii10101" unicode="&#x454;" horiz-adv-x="479" 
d="M316 223h-128v-27q0 -59 18 -81q23 -29 72 -29q44 0 79 23q21 14 31 26l61 -77q-27 -25 -49 -38q-53 -32 -123 -32q-83 0 -139 38q-98 68 -98 229q0 55 15.5 112.5t47.5 94.5q55 65 160 65q63 0 110 -20q33 -14 62 -39l-61 -79q-15 15 -36 25q-30 15 -64 15
q-42 0 -63 -24q-23 -24 -23 -75v-13h128v-94z" />
    <glyph glyph-name="afii10102" unicode="&#x455;" horiz-adv-x="487" 
d="M30 47l48 96q38 -23 86.5 -40t81.5 -17t52 20q15 15 15 37q0 23 -14 37q-17 17 -64 26l-59 11q-62 11 -93 51q-29 38 -29 91q0 83 68 130q52 35 125 35q86 0 169 -40l15 -7l-44 -89q-68 36 -124 36q-31 0 -48 -14t-17 -35q0 -17 13 -30q15 -14 51 -22l61 -15
q69 -16 101 -58q28 -37 28 -86q0 -77 -56 -124q-62 -52 -161 -52q-96 0 -205 59z" />
    <glyph glyph-name="afii10103" unicode="&#x456;" horiz-adv-x="284" 
d="M208 0h-132v503l132 21v-524zM225 653q0 -35 -24.5 -59t-58.5 -24t-58 24t-24 59q0 34 24.5 58.5t59.5 24.5q34 0 57.5 -24t23.5 -59z" />
    <glyph glyph-name="afii10104" unicode="&#x457;" horiz-adv-x="284" 
d="M209 0h-134v503l134 21v-524zM324 635q0 -31 -23 -54t-54 -23t-53.5 23t-22.5 54t23 54t55 23q31 0 53 -22.5t22 -54.5zM113 635q0 -31 -23 -54t-54 -23q-30 0 -53 23t-23 54t23.5 54t54.5 23t53 -23t22 -54z" />
    <glyph glyph-name="afii10105" unicode="&#x458;" horiz-adv-x="283" 
d="M207 523v-509q0 -109 -37 -159q-36 -48 -104 -75l-56 74q30 25 49 58q16 29 16 98v481zM226 655q0 -35 -24.5 -59.5t-59.5 -24.5q-34 0 -58 23.5t-24 58.5t24.5 59.5t58.5 24.5q35 0 59 -24t24 -58z" />
    <glyph glyph-name="afii10106" unicode="&#x459;" horiz-adv-x="744" 
d="M452 331h75q82 0 131 -41q51 -43 51 -131q0 -79 -52 -122q-44 -37 -120 -37h-217v416h-86l-2 -41q-3 -73 -6 -117q-9 -111 -19 -152q-14 -54 -42 -78q-32 -28 -93 -33l-50 -5l-24 92l25 7q35 9 52 35q12 19 20 61q9 45 15 134q4 57 6 129l2 64h334v-181zM452 239v-147h49
q34 0 53 16q21 19 21 56q0 39 -20 57t-58 18h-45z" />
    <glyph glyph-name="afii10107" unicode="&#x45a;" horiz-adv-x="762" 
d="M470 323h75q83 0 131 -39q51 -41 51 -125q0 -79 -52 -122q-44 -37 -120 -37h-217v231h-131v-231h-132v500l132 25v-200h131v175l132 25v-202zM470 231v-139h49q34 0 53 16q21 18 21 53q0 38 -20 54q-18 16 -58 16h-45z" />
    <glyph glyph-name="afii10108" unicode="&#x45b;" horiz-adv-x="568" 
d="M498 0h-132v329q0 39 -14 57q-11 13 -36 13q-56 0 -108 -47v-352h-132v565h-51v68h51v85l132 32v-117h195l-23 -68h-172v-66l-2 -43q63 55 145 55q69 0 108 -36t39 -120v-355z" />
    <glyph glyph-name="afii10109" unicode="&#x45c;" horiz-adv-x="551" 
d="M75 500l132 25v-208h33q35 0 52 15q13 12 21 47l11 50q10 44 31 63q24 21 79 26l48 4l24 -91l-22 -5q-19 -5 -26 -10q-13 -10 -21 -34l-17 -46q-19 -56 -69 -64q23 -6 38.5 -19.5t21 -24t12.5 -29.5l25 -63q12 -29 25 -38q12 -9 30 -12l18 -4l-24 -92l-44 3
q-77 5 -102 33q-20 23 -29 64l-17 71q-8 35 -25 49q-16 13 -49 13h-24v-223h-132v500zM408 657l-224 -100l-41 74l207 130z" />
    <glyph glyph-name="afii10110" unicode="&#x45e;" horiz-adv-x="507" 
d="M366 512h141l-186 -520q-47 -132 -98 -169q-48 -37 -124 -47l-46 88q52 12 83 35q25 19 37 38q14 22 30 63h-34l-18 55l-14 40q-4 11 -16 49l-121 360l137 16l89 -299q20 -73 27 -105q1 4 4.5 23l6.5 35t5 23q14 52 20 71zM331 745l71 -29q-15 -57 -56 -88
q-43 -33 -112 -33q-70 0 -112 33q-38 30 -56 88l71 29q13 -23 36 -36q23 -14 61 -14q40 0 62 14q23 13 35 36z" />
    <glyph glyph-name="afii10193" unicode="&#x45f;" horiz-adv-x="540" 
d="M333 500l132 25v-525h-133v-140h-124v140h-133v500l132 25v-431h126v406z" />
    <glyph glyph-name="afii10050" unicode="&#x490;" horiz-adv-x="474" 
d="M75 695h254v87h135v-202h-247v-580h-142v695z" />
    <glyph glyph-name="afii10098" unicode="&#x491;" horiz-adv-x="428" 
d="M207 0h-132v512h222v97h121v-191h-211v-418z" />
    <glyph glyph-name="endash" unicode="&#x2013;" horiz-adv-x="577" 
d="M532 223h-487v103h487v-103z" />
    <glyph glyph-name="emdash" unicode="&#x2014;" horiz-adv-x="803" 
d="M758 223h-713v103h713v-103z" />
    <glyph glyph-name="afii00208" unicode="&#x2015;" horiz-adv-x="803" 
d="M758 223h-713v103h713v-103z" />
    <glyph glyph-name="quoteleft" unicode="&#x2018;" horiz-adv-x="269" 
d="M234 661q-33 -8 -52.5 -23t-19.5 -34q0 -18 26 -32q39 -22 39 -70q0 -36 -25.5 -61t-61.5 -25q-43 0 -71.5 34t-28.5 86q0 65 39 115t102 66z" />
    <glyph glyph-name="quoteright" unicode="&#x2019;" horiz-adv-x="269" 
d="M229 591q0 -65 -39 -114.5t-102 -65.5l-53 55q33 8 52.5 23.5t19.5 33.5q0 16 -26 32q-39 23 -39 70q0 36 25 61t62 25q44 0 72 -34t28 -86z" />
    <glyph glyph-name="quotesinglbase" unicode="&#x201a;" horiz-adv-x="269" 
d="M229 36q0 -65 -39 -115t-102 -66l-53 56q33 7 52.5 23t19.5 34q0 16 -26 32q-39 23 -39 70q0 36 25.5 61t61.5 25q44 0 72 -34t28 -86z" />
    <glyph glyph-name="quotedblleft" unicode="&#x201c;" horiz-adv-x="494" 
d="M234 662q-33 -8 -52.5 -23t-19.5 -34q0 -16 26 -32q39 -23 39 -70q0 -36 -25.5 -61t-62.5 -25q-43 0 -71 34t-28 86q0 65 39 115t102 66zM459 662q-32 -8 -51.5 -23t-19.5 -34q0 -16 26 -32q39 -24 39 -70q0 -36 -25.5 -61t-62.5 -25q-43 0 -71 33.5t-28 86.5
q0 65 39 115t101 66z" />
    <glyph glyph-name="quotedblright" unicode="&#x201d;" horiz-adv-x="494" 
d="M229 591q0 -65 -39 -114.5t-102 -65.5l-53 55q33 8 52.5 23.5t19.5 33.5q0 16 -26 32q-39 23 -39 70q0 36 25 61t62 25q44 0 72 -34t28 -86zM454 591q0 -65 -38.5 -114.5t-101.5 -65.5l-53 55q32 8 51.5 23.5t19.5 33.5q0 17 -25 32q-39 23 -39 70q0 36 25 61t62 25
q43 0 71 -33.5t28 -86.5z" />
    <glyph glyph-name="quotedblbase" unicode="&#x201e;" horiz-adv-x="495" 
d="M455 36q0 -65 -39 -115t-102 -66l-53 56q32 7 51.5 23t19.5 34q0 17 -25 32q-39 23 -39 70q0 36 25 61t62 25q44 0 72 -34t28 -86zM229 36q0 -65 -39 -115t-102 -66l-53 56q33 7 52.5 23t19.5 34q0 16 -26 32q-39 23 -39 70q0 36 25.5 61t61.5 25q44 0 72 -34t28 -86z
" />
    <glyph glyph-name="dagger" unicode="&#x2020;" horiz-adv-x="494" 
d="M469 545l-23 -121h-139v-424h-132v424h-150v121h150v150h132v-150h162z" />
    <glyph glyph-name="daggerdbl" unicode="&#x2021;" horiz-adv-x="506" 
d="M481 545l-23 -121h-139v-153h150v-121h-150v-150h-132v150h-162l23 121h139v153h-150v121h150v150h132v-150h162z" />
    <glyph glyph-name="bullet" unicode="&#x2022;" horiz-adv-x="484" 
d="M419 354q0 -74 -51.5 -125.5t-125.5 -51.5t-125.5 51.5t-51.5 125.5t51.5 125.5t125.5 51.5t125.5 -51.5t51.5 -125.5z" />
    <glyph glyph-name="ellipsis" unicode="&#x2026;" horiz-adv-x="786" 
d="M731 73q0 -37 -26 -63t-62 -26q-37 0 -62.5 26t-25.5 63q0 36 25.5 61.5t61.5 25.5q37 0 63 -25.5t26 -61.5zM481 73q0 -37 -26 -63t-62 -26q-37 0 -62.5 26t-25.5 63q0 36 25.5 61.5t61.5 25.5q37 0 63 -25.5t26 -61.5zM231 73q0 -37 -26 -63t-62 -26q-37 0 -62.5 26
t-25.5 63q0 36 25.5 61.5t61.5 25.5q37 0 63 -25.5t26 -61.5z" />
    <glyph glyph-name="perthousand" unicode="&#x2030;" horiz-adv-x="1220" 
d="M815 164q0 -82 -47 -128q-48 -46 -125 -46t-123 46.5t-46 125.5q0 78 46.5 126t122.5 48q79 0 127 -48q45 -45 45 -124zM1185 164q0 -82 -47 -128q-48 -46 -125 -46t-123 46.5t-46 125.5q0 78 46.5 126t122.5 48q79 0 128 -49q44 -44 44 -123zM376 533q0 -82 -47 -128
q-48 -46 -125 -46t-123 46.5t-46 125.5q0 78 46.5 126t122.5 48q78 0 125 -47t47 -125zM655 695l-364 -695h-95l364 695h95zM704 166q0 60 -20 80q-16 16 -42 16q-37 0 -50 -30q-9 -22 -9 -67q0 -58 11 -75q16 -25 50 -25q32 0 46 24t14 77zM1074 166q0 60 -20 80
q-16 16 -42 16q-37 0 -50 -30q-9 -22 -9 -67q0 -58 11 -75q16 -25 50 -25q32 0 46 24t14 77zM265 535q0 60 -20 80q-16 16 -42 16q-37 0 -50 -30q-9 -22 -9 -67q0 -58 11 -75q16 -25 50 -25q32 0 46 24t14 77z" />
    <glyph glyph-name="guilsinglleft" unicode="&#x2039;" horiz-adv-x="310" 
d="M280 76l-91 -61l-159 234l159 234l91 -61l-116 -173z" />
    <glyph glyph-name="guilsinglright" unicode="&#x203a;" horiz-adv-x="310" 
d="M280 249l-159 -234l-91 61l116 173l-116 173l91 61z" />
    <glyph glyph-name="fraction" unicode="&#x2044;" horiz-adv-x="266" 
d="M451 764l-528 -918h-108l528 918h108z" />
    <glyph glyph-name="uni2070" unicode="&#x2070;" horiz-adv-x="345" 
d="M325 460q0 -92 -42 -150t-111 -58q-71 0 -111.5 57t-40.5 149q0 93 41.5 150.5t110.5 57.5q71 0 112 -57t41 -149zM215 457q0 134 -43 134q-26 0 -34.5 -32.5t-8.5 -97.5q0 -134 43 -134q26 0 34.5 32.5t8.5 97.5z" />
    <glyph glyph-name="uni2074" unicode="&#x2074;" horiz-adv-x="356" 
d="M336 321h-37l-7 1q0 -1 0.5 -5t0.5 -6v-75l-96 -11v91l1 5h-178v63l109 267h105l-84 -207q-6 -15 -19 -38h69q0 31 11 141l82 18v-104v-49l-1 -7q2 0 5 0.5t4 0.5h35v-85z" />
    <glyph glyph-name="uni2075" unicode="&#x2075;" horiz-adv-x="316" 
d="M296 387q0 -68 -56.5 -111.5t-142.5 -43.5q-27 0 -53 5l-24 79q47 -12 71 -12q44 0 71 21t27 53q0 24 -15 38.5t-40 14.5q-40 0 -98 -18l20 236h226l-15 -84h-117l-7 -58q5 1 17 1q59 0 97.5 -34t38.5 -87z" />
    <glyph glyph-name="uni2076" unicode="&#x2076;" horiz-adv-x="351" 
d="M331 382q0 -60 -43.5 -100t-106.5 -40q-70 0 -115.5 48.5t-45.5 122.5q0 85 52 146.5t137 100.5q28 13 65 24l23 -73q-41 -16 -62.5 -26t-47.5 -31.5t-42 -51.5q29 11 48 11q58 0 98 -37.5t40 -93.5zM227 381q0 24 -12 38t-33 14q-27 0 -53 -14q-1 -9 -1 -31
q0 -34 13.5 -51.5t35.5 -17.5t36 16.5t14 45.5z" />
    <glyph glyph-name="uni2077" unicode="&#x2077;" horiz-adv-x="341" 
d="M321 649l-16 -80q-31 -42 -60 -93q-57 -104 -72 -173l-12 -58l-110 -26q40 157 101 270q21 40 45 73l-10 -1h-167l23 88h278z" />
    <glyph glyph-name="uni2078" unicode="&#x2078;" horiz-adv-x="369" 
d="M349 364q0 -42 -29 -75t-76 -44q-28 -7 -66 -7q-60 0 -100 23q-58 34 -58 96q0 30 16 56.5t42 41.5q-47 31 -47 86q0 52 43 83.5t111 31.5q64 0 106 -30t42 -79q0 -57 -59 -85q75 -35 75 -98zM238 353q0 26 -18 37q-16 11 -61 26q-30 -18 -30 -53q0 -23 15.5 -37
t42.5 -14q23 0 37 12t14 29zM224 549q0 33 -45 33q-21 0 -33 -9.5t-12 -24.5q0 -27 51 -47q39 18 39 48z" />
    <glyph glyph-name="uni2079" unicode="&#x2079;" horiz-adv-x="349" 
d="M329 490q0 -118 -102 -201q-60 -49 -137 -75l-59 64q48 12 92.5 42t65.5 61q-27 -6 -30 -6q-59 0 -99 39.5t-40 97.5q0 62 44 103t111 41q72 0 113 -44.5t41 -121.5zM222 511q0 33 -13 50.5t-35 17.5q-20 0 -33.5 -17t-13.5 -47q0 -28 14 -45t37 -17q20 0 39 11
q5 20 5 47z" />
    <glyph glyph-name="uni2080" unicode="&#x2080;" horiz-adv-x="345" 
d="M325 -50q0 -92 -42 -150t-111 -58q-71 0 -111.5 57t-40.5 149q0 93 41.5 150.5t110.5 57.5q71 0 112 -57t41 -149zM215 -53q0 134 -43 134q-26 0 -34.5 -32.5t-8.5 -97.5q0 -134 43 -134q26 0 34.5 32.5t8.5 97.5z" />
    <glyph glyph-name="uni2081" unicode="&#x2081;" horiz-adv-x="294" 
d="M274 -250h-215v81h64v208q-47 -25 -75 -34l-28 56l134 89h68v-319h52v-81z" />
    <glyph glyph-name="uni2082" unicode="&#x2082;" horiz-adv-x="354" 
d="M334 -167l-23 -83h-275v67q70 65 103 100q62 64 62 111q0 42 -39 42q-32 0 -86 -42l-56 63q77 65 165 65q57 0 92 -33t35 -86q0 -27 -13 -55.5t-41 -59t-43.5 -46t-48.5 -44.5q6 0 18 0.5t17 0.5h133z" />
    <glyph glyph-name="uni2083" unicode="&#x2083;" horiz-adv-x="346" 
d="M326 -124q0 -65 -63 -104.5t-159 -39.5q-27 0 -57 4l-27 74q41 -7 61 -7q60 0 95 22.5t35 56.5q0 12 -5 20t-11 12t-17.5 6t-18.5 2.5t-20 0.5h-40v81q34 -4 51 -4q57 0 57 39q0 33 -41 33q-46 0 -91 -36l-54 64q76 56 155 56q59 0 99.5 -31t40.5 -78q0 -53 -47 -84
q57 -29 57 -87z" />
    <glyph glyph-name="uni2084" unicode="&#x2084;" horiz-adv-x="356" 
d="M336 -179h-37l-7 1q0 -1 0.5 -5t0.5 -6v-75l-96 -11v91l1 5h-178v63l109 267h105l-84 -207q-6 -15 -19 -38h69q0 31 11 141l82 18v-104v-49l-1 -7q2 0 5 0.5t4 0.5h35v-85z" />
    <glyph glyph-name="uni2085" unicode="&#x2085;" horiz-adv-x="316" 
d="M296 -113q0 -68 -56.5 -111.5t-142.5 -43.5q-27 0 -53 5l-24 79q47 -12 71 -12q44 0 71 21t27 53q0 24 -15 38.5t-40 14.5q-40 0 -98 -18l20 236h226l-15 -84h-117l-7 -58q5 1 17 1q59 0 97.5 -34t38.5 -87z" />
    <glyph glyph-name="uni2086" unicode="&#x2086;" horiz-adv-x="351" 
d="M331 -118q0 -60 -43.5 -100t-106.5 -40q-70 0 -115.5 48.5t-45.5 122.5q0 85 52 146.5t137 100.5q28 13 65 24l23 -73q-41 -16 -62.5 -26t-47.5 -31.5t-42 -51.5q29 11 48 11q58 0 98 -37.5t40 -93.5zM227 -119q0 24 -12 38t-33 14q-27 0 -53 -14q-1 -9 -1 -31
q0 -34 13.5 -51.5t35.5 -17.5t36 16.5t14 45.5z" />
    <glyph glyph-name="uni2087" unicode="&#x2087;" horiz-adv-x="341" 
d="M321 149l-16 -80q-31 -42 -60 -93q-57 -104 -72 -173l-12 -58l-110 -26q40 157 101 270q21 40 45 73l-10 -1h-167l23 88h278z" />
    <glyph glyph-name="uni2088" unicode="&#x2088;" horiz-adv-x="369" 
d="M349 -136q0 -42 -29 -75t-76 -44q-28 -7 -66 -7q-60 0 -100 23q-58 34 -58 96q0 30 16 56.5t42 41.5q-47 31 -47 86q0 52 43 83.5t111 31.5q64 0 106 -30t42 -79q0 -57 -59 -85q75 -35 75 -98zM238 -147q0 26 -18 37q-16 11 -61 26q-30 -18 -30 -53q0 -23 15.5 -37
t42.5 -14q23 0 37 12t14 29zM224 49q0 33 -45 33q-21 0 -33 -9.5t-12 -24.5q0 -27 51 -47q39 18 39 48z" />
    <glyph glyph-name="uni2089" unicode="&#x2089;" horiz-adv-x="349" 
d="M329 -10q0 -118 -102 -201q-60 -49 -137 -75l-59 64q48 12 92.5 42t65.5 61q-27 -6 -30 -6q-59 0 -99 39.5t-40 97.5q0 62 44 103t111 41q72 0 113 -44.5t41 -121.5zM222 11q0 33 -13 50.5t-35 17.5q-20 0 -33.5 -17t-13.5 -47q0 -28 14 -45t37 -17q20 0 39 11q5 20 5 47
z" />
    <glyph glyph-name="Euro" unicode="&#x20ac;" horiz-adv-x="634" 
d="M609 33q-39 -25 -73 -35t-90 -10q-143 0 -227 96q-49 55 -70 132h-114v98h100v19q0 40 2 58h-102v98h122q11 34 25 60q40 76 111 118.5t155 42.5q86 0 146 -35l-33 -115q-53 39 -111 39q-35 0 -67 -16t-51 -44q-13 -18 -23 -50h193v-98h-208q0 -5 -0.5 -15t-0.5 -16
q0 -32 1 -46h208v-98h-196q6 -26 16 -42q43 -78 134 -78q63 0 119 45z" />
    <glyph glyph-name="afii61352" unicode="&#x2116;" horiz-adv-x="992" 
d="M544 0h-137l-117 274q-63 133 -96 228q7 -84 7 -182v-320h-126v695h144l130 -289q64 -132 81 -197q-3 44 -12 191v295h126v-695zM922 530q0 -79 -40 -124q-40 -44 -106 -44q-62 0 -102.5 43t-40.5 122q0 80 45 129q36 39 98 39q68 0 109 -47q37 -42 37 -118zM832 531
q0 67 -17 87q-15 15 -36 15q-33 0 -46 -33q-9 -21 -9 -70q0 -52 11 -78q13 -30 44 -30q21 0 35 17q18 23 18 92zM916 201h-277v61h277v-61z" />
    <glyph glyph-name="uni2117" unicode="&#x2117;" horiz-adv-x="834" 
d="M789 354q0 -154 -109 -263t-263 -109t-263 109t-109 263t109 263t263 109t263 -109t109 -263zM687 354q0 116 -79 199t-191 83t-191 -83t-79 -199t79 -199t191 -83t191 83t79 199zM586 431q0 -39 -19 -69t-53 -45q-27 -13 -80 -13h-32v-133h-97v382h110q73 0 111 -20
q60 -32 60 -102zM482 429q0 46 -42 46h-38v-92h30q22 0 30 2.5t13 11.5q7 11 7 32z" />
    <glyph glyph-name="trademark" unicode="&#x2122;" horiz-adv-x="1030" 
d="M965 296h-108v268h-2l-98 -268h-70l-98 268h-2v-268h-108v412h145l98 -268l98 268h145v-412zM391 612h-119v-316h-108v316h-119v96h346v-96z" />
    <glyph glyph-name="Omega" unicode="&#x2126;" horiz-adv-x="704" 
d="M659 0h-258v83q62 25 93.5 76t31.5 157q0 115 -36 192q-17 36 -53.5 59.5t-86.5 23.5q-43 0 -80 -19t-54 -52q-20 -37 -30 -71.5t-10 -89.5q0 -128 33 -189.5t94 -87.5v-82h-258v89h95q-91 88 -91 253q0 88 23 148.5t70 111.5q76 87 210 87q154 0 232 -116
q36 -55 53 -109.5t17 -135.5q0 -153 -91 -239h96v-89z" />
    <glyph glyph-name="arrowleft" unicode="&#x2190;" horiz-adv-x="1211" 
d="M1186 274q0 -35 -24.5 -60t-59.5 -25t-60 25t-25 60t25 59.5t60 24.5t59.5 -24.5t24.5 -59.5zM458 -97q0 -35 -24.5 -59.5t-59.5 -24.5t-60 24.5t-25 59.5t25 60t60 25t59.5 -25t24.5 -60zM326 88q0 -35 -24.5 -59.5t-59.5 -24.5t-60 24.5t-25 59.5t25 60t60 25t59.5 -25
t24.5 -60zM194 274q0 -35 -24.5 -60t-59.5 -25t-60 25t-25 60t25 59.5t60 24.5t59.5 -24.5t24.5 -59.5zM442 274q0 -35 -24.5 -60t-59.5 -25t-60 25t-25 60t25 59.5t60 24.5t59.5 -24.5t24.5 -59.5zM326 459q0 -35 -24.5 -60t-59.5 -25t-60 25t-25 60t25 59.5t60 24.5
t59.5 -24.5t24.5 -59.5zM690 274q0 -35 -24.5 -60t-59.5 -25t-60 25t-25 60t25 59.5t60 24.5t59.5 -24.5t24.5 -59.5zM458 644q0 -35 -24.5 -60t-59.5 -25t-60 25t-25 60t25 59.5t60 24.5t59.5 -24.5t24.5 -59.5zM938 274q0 -35 -24.5 -60t-59.5 -25t-60 25t-25 60t25 59.5
t60 24.5t59.5 -24.5t24.5 -59.5z" />
    <glyph glyph-name="arrowup" unicode="&#x2191;" horiz-adv-x="1211" 
d="M1060 505q0 -35 -24.5 -59.5t-59.5 -24.5t-60 24.5t-25 59.5t25 60t60 25t59.5 -25t24.5 -60zM690 -223q0 -35 -25 -59.5t-60 -24.5t-59.5 24.5t-24.5 59.5t24.5 60t59.5 25t60 -25t25 -60zM690 25q0 -35 -25 -59.5t-60 -24.5t-59.5 24.5t-24.5 59.5t24.5 60t59.5 25
t60 -25t25 -60zM320 505q0 -35 -25 -59.5t-60 -24.5t-59.5 24.5t-24.5 59.5t24.5 60t59.5 25t60 -25t25 -60zM690 273q0 -35 -25 -59.5t-60 -24.5t-59.5 24.5t-24.5 59.5t24.5 60t59.5 25t60 -25t25 -60zM505 637q0 -35 -25 -59.5t-60 -24.5t-59.5 24.5t-24.5 59.5t24.5 60
t59.5 25t60 -25t25 -60zM690 521q0 -35 -25 -59.5t-60 -24.5t-59.5 24.5t-24.5 59.5t24.5 60t59.5 25t60 -25t25 -60zM690 769q0 -35 -25 -59.5t-60 -24.5t-59.5 24.5t-24.5 59.5t24.5 60t59.5 25t60 -25t25 -60zM875 637q0 -35 -24.5 -59.5t-59.5 -24.5t-60 24.5t-25 59.5
t25 60t60 25t59.5 -25t24.5 -60z" />
    <glyph glyph-name="arrowright" unicode="&#x2192;" horiz-adv-x="1211" 
d="M922 644q0 -35 -25 -60t-60 -25t-59.5 25t-24.5 60t24.5 59.5t59.5 24.5t60 -24.5t25 -59.5zM194 274q0 -35 -25 -60t-60 -25t-59.5 25t-24.5 60t24.5 59.5t59.5 24.5t60 -24.5t25 -59.5zM442 274q0 -35 -25 -60t-60 -25t-59.5 25t-24.5 60t24.5 59.5t59.5 24.5t60 -24.5
t25 -59.5zM922 -97q0 -35 -25 -59.5t-60 -24.5t-59.5 24.5t-24.5 59.5t24.5 60t59.5 25t60 -25t25 -60zM690 274q0 -35 -25 -60t-60 -25t-59.5 25t-24.5 60t24.5 59.5t59.5 24.5t60 -24.5t25 -59.5zM1054 88q0 -35 -25 -59.5t-60 -24.5t-59.5 24.5t-24.5 59.5t24.5 60
t59.5 25t60 -25t25 -60zM938 274q0 -35 -25 -60t-60 -25t-59.5 25t-24.5 60t24.5 59.5t59.5 24.5t60 -24.5t25 -59.5zM1186 274q0 -35 -25 -60t-60 -25t-59.5 25t-24.5 60t24.5 59.5t59.5 24.5t60 -24.5t25 -59.5zM1054 459q0 -35 -25 -60t-60 -25t-59.5 25t-24.5 60
t24.5 59.5t59.5 24.5t60 -24.5t25 -59.5z" />
    <glyph glyph-name="arrowdown" unicode="&#x2193;" horiz-adv-x="1211" 
d="M690 770q0 -35 -25 -60t-60 -25t-59.5 25t-24.5 60t24.5 59.5t59.5 24.5t60 -24.5t25 -59.5zM320 42q0 -35 -25 -60t-60 -25t-59.5 25t-24.5 60t24.5 59.5t59.5 24.5t60 -24.5t25 -59.5zM505 -90q0 -35 -25 -60t-60 -25t-59.5 25t-24.5 60t24.5 59.5t59.5 24.5t60 -24.5
t25 -59.5zM690 -222q0 -35 -25 -60t-60 -25t-59.5 25t-24.5 60t24.5 59.5t59.5 24.5t60 -24.5t25 -59.5zM690 26q0 -35 -25 -60t-60 -25t-59.5 25t-24.5 60t24.5 59.5t59.5 24.5t60 -24.5t25 -59.5zM875 -90q0 -35 -24.5 -60t-59.5 -25t-60 25t-25 60t25 59.5t60 24.5
t59.5 -24.5t24.5 -59.5zM690 274q0 -35 -25 -60t-60 -25t-59.5 25t-24.5 60t24.5 59.5t59.5 24.5t60 -24.5t25 -59.5zM1060 42q0 -35 -24.5 -60t-59.5 -25t-60 25t-25 60t25 59.5t60 24.5t59.5 -24.5t24.5 -59.5zM690 522q0 -35 -25 -60t-60 -25t-59.5 25t-24.5 60
t24.5 59.5t59.5 24.5t60 -24.5t25 -59.5z" />
    <glyph glyph-name="uni2196" unicode="&#x2196;" horiz-adv-x="1211" 
d="M841 83q24 -24 24 -59q0 -36 -25 -61t-60 -25t-59 25q-25 24 -25 60q0 35 25 60t60 25q33 0 60 -25zM240 161q24 -24 24 -59q0 -36 -25 -61t-60 -25t-59 25q-25 24 -25 60q0 35 25 60t60 25q33 0 60 -25zM490 314q-25 -25 -60 -25t-59 25q-25 25 -25 61q0 35 24 59
q25 25 60 25q33 0 60 -25q25 -27 25 -60q0 -35 -25 -60zM277 265q-25 -25 -60 -25t-59 25q-25 25 -25 61q0 35 24 59q25 25 60 25q33 0 60 -25q25 -27 25 -60q0 -35 -25 -60zM1016 -212q-25 -25 -60 -25t-59 25q-25 25 -25 61q0 35 24 59q25 25 60 25q33 0 60 -25
q25 -27 25 -60q0 -35 -25 -60zM763 565q-25 -25 -60 -25t-59 24q-25 24 -25 60t25 61q24 24 59 24t60 -25q25 -27 25 -60q0 -34 -25 -59zM666 258q24 -24 24 -59t-25 -60t-60 -25t-59 25q-25 25 -25 60t24 59q25 25 60 25q34 0 61 -25zM315 609q24 -24 24 -59t-25 -60
t-60 -25t-59 25q-25 24 -25 59t25 60t60 25q33 0 60 -25zM539 528q-25 -25 -60 -25t-59 24q-25 24 -25 60q0 35 25 60q24 24 59 24t60 -25q25 -27 25 -59q0 -34 -25 -59z" />
    <glyph glyph-name="uni2197" unicode="&#x2197;" horiz-adv-x="1211" 
d="M979 385q24 -24 24 -59q0 -36 -25 -61t-60 -25t-59 25q-25 24 -25 60q0 35 25 60t60 25q33 0 60 -25zM240 -92q24 -24 24 -59q0 -36 -25 -61t-60 -25t-59 25q-25 24 -25 60q0 35 25 60t60 25q33 0 60 -25zM415 -37q-25 -25 -60 -25t-59 25q-25 25 -25 61q0 35 24 59
q25 25 60 25q33 0 60 -25q25 -27 25 -60q0 -35 -25 -60zM1016 41q-25 -25 -60 -25t-59 25q-25 25 -25 61q0 35 24 59q25 25 60 25q33 0 60 -25q25 -27 25 -60q0 -35 -25 -60zM591 258q24 -24 24 -59t-25 -60t-60 -25t-59 25q-25 25 -25 60t24 59q25 25 60 25q34 0 61 -25z
M492 564q-24 -24 -59 -24t-60 25q-25 24 -25 59t25 60t60 25t59 -24q25 -27 25 -61q0 -35 -25 -60zM717 527q-24 -24 -59 -24q-36 0 -61 25q-25 24 -25 59q0 34 25 59t61 25q35 0 59 -24q25 -27 25 -60q0 -35 -25 -60zM766 434q24 -24 24 -59q0 -36 -25 -61t-59 -25
q-35 0 -59 25q-25 25 -25 61q0 35 24 59q25 25 60 25q33 0 60 -25zM941 490q-25 -25 -60 -25t-59 25q-25 25 -25 60t24 59q25 25 60 25q33 0 60 -25q25 -27 25 -60q0 -34 -25 -59z" />
    <glyph glyph-name="uni2198" unicode="&#x2198;" horiz-adv-x="1211" 
d="M591 214q-25 -25 -61 -25t-60 25q-24 24 -24 59q0 36 25 61t59 25q33 0 60 -25q25 -25 25 -61q0 -35 -24 -59zM717 -175q-24 -24 -59 -24q-36 0 -61 25q-25 24 -25 59t25 60t60 25q33 0 60 -25q25 -27 25 -60q0 -35 -25 -60zM415 389q-25 -25 -60 -25q-36 0 -60 25
q-24 24 -24 59q0 36 25 61t59 25q33 0 60 -25q25 -27 25 -60q0 -35 -25 -60zM941 -137q-25 -25 -60 -25q-36 0 -60 25q-24 24 -24 59q0 36 25 61t59 25q33 0 60 -25q25 -27 25 -60q0 -35 -25 -60zM492 -212q-25 -25 -60 -25t-59 25q-25 24 -25 59t25 60t60 25t59 -24
q25 -27 25 -60q0 -35 -25 -60zM240 565q-25 -25 -60 -25q-36 0 -60 25q-25 24 -25 59t25 60t59 25q33 0 60 -25q25 -25 25 -60t-24 -59zM979 88q-25 -25 -60 -25q-36 0 -60 25q-25 24 -25 59t25 60t59 25q33 0 60 -25q25 -25 25 -60t-24 -59zM1016 312q-25 -25 -60 -25
q-36 0 -60 25q-24 24 -24 59t25 60t59 25q33 0 60 -25q25 -27 25 -60q0 -34 -25 -59zM766 39q-25 -25 -60 -25q-36 0 -60 25q-24 24 -24 59t25 60t59 25q32 0 59 -25q25 -25 25 -60t-24 -59z" />
    <glyph glyph-name="uni2199" unicode="&#x2199;" horiz-adv-x="1211" 
d="M666 214q-25 -25 -61 -25t-60 25q-24 24 -24 59q0 36 25 61t59 25q33 0 60 -25q25 -25 25 -61q0 -35 -24 -59zM315 -137q-25 -25 -60 -25q-36 0 -60 25q-25 24 -25 60q0 35 25 60t59 25q33 0 60 -25q25 -25 25 -61q0 -35 -24 -59zM841 389q-25 -25 -60 -25q-36 0 -60 25
q-25 24 -25 60q0 35 25 60t59 25q33 0 60 -25q25 -25 25 -61q0 -35 -24 -59zM240 312q-25 -25 -60 -25q-36 0 -60 25q-25 24 -25 59t25 60t59 25q33 0 60 -25q25 -25 25 -60t-24 -59zM763 -212q-25 -25 -60 -25t-59 25q-25 24 -25 60q0 35 25 60q24 24 59 24t60 -25
q25 -27 25 -60q0 -34 -25 -59zM490 39q-25 -25 -60 -25q-36 0 -60 25q-24 24 -24 59t25 60t59 25q33 0 60 -25q25 -27 25 -60q0 -34 -25 -59zM539 -174q-25 -25 -60 -25t-59 24q-25 24 -25 60q0 35 25 60t59 25q33 0 60 -25q25 -27 25 -60q0 -34 -25 -59zM277 88
q-25 -25 -60 -25q-36 0 -60 25q-24 24 -24 59t25 60t59 25q33 0 60 -25q25 -27 25 -60q0 -34 -25 -59zM1016 565q-25 -25 -60 -25q-36 0 -60 25q-24 24 -24 59t25 60t59 25q33 0 60 -25q25 -27 25 -60q0 -34 -25 -59z" />
    <glyph glyph-name="partialdiff" unicode="&#x2202;" horiz-adv-x="535" 
d="M490 241q0 -121 -62.5 -187t-162.5 -66q-97 0 -159 61t-62 165q0 95 59.5 152t152.5 57q7 0 52 -3q-28 39 -66 72q-96 85 -242 102l80 95q75 -8 157.5 -49t138.5 -105q114 -134 114 -294zM357 233q0 14 -6 65q-30 19 -89 19q-39 0 -61 -27t-22 -78q0 -52 24.5 -83.5
t67.5 -31.5t64.5 37t21.5 99z" />
    <glyph glyph-name="Delta" unicode="&#x2206;" horiz-adv-x="678" 
d="M643 0h-608l244 638h124zM461 115l-126 347l-132 -347h258z" />
    <glyph glyph-name="product" unicode="&#x220f;" horiz-adv-x="717" 
d="M682 0h-273v100h69v439h-238v-439h69v-100h-274v100h73v439h-73v114h647v-114h-72v-439h72v-100z" />
    <glyph glyph-name="summation" unicode="&#x2211;" horiz-adv-x="507" 
d="M472 114l-36 -113h-401l1 90l240 252l-237 252l32 92h397l-39 -112h-208l221 -229l-230 -232h260z" />
    <glyph glyph-name="minus" unicode="&#x2212;" horiz-adv-x="577" 
d="M532 223h-487v103h487v-103z" />
    <glyph glyph-name="uni2219" unicode="&#x2219;" horiz-adv-x="268" 
d="M223 273q0 -36 -26.5 -62t-63.5 -26t-62.5 26t-25.5 63t26.5 63.5t63.5 26.5t62.5 -26.5t25.5 -64.5z" />
    <glyph glyph-name="radical" unicode="&#x221a;" horiz-adv-x="600" 
d="M595 722l-266 -730h-109l-149 426h-66v94h166l87 -239q5 -12 11 -39t8 -34q2 7 8 30t9 33l165 459h136z" />
    <glyph glyph-name="infinity" unicode="&#x221e;" horiz-adv-x="958" 
d="M923 262q0 -89 -62 -137t-141 -48q-92 0 -172 57l-73 51l-66 -48q-84 -61 -176 -61q-26 0 -51.5 5t-52.5 17.5t-47.5 32t-33.5 51.5t-13 72q0 92 61.5 139t143.5 47q89 0 179 -62l66 -46l67 50q80 59 175 59q33 0 65 -8.5t62.5 -27.5t49.5 -56t19 -87zM792 261
q0 28 -20 46t-53 18q-51 0 -102 -39l-33 -25l50 -33q49 -32 85 -32q38 0 55.5 19t17.5 46zM374 255l-49 35q-42 30 -85 30q-38 0 -55.5 -19t-17.5 -46q0 -28 20 -46t53 -18q46 0 102 41z" />
    <glyph glyph-name="uni2224" unicode="&#x2224;" horiz-adv-x="268" 
d="M223 273q0 -36 -26.5 -62t-63.5 -26t-62.5 26t-25.5 63t26.5 63.5t63.5 26.5t62.5 -26.5t25.5 -64.5z" />
    <glyph glyph-name="logicaland" unicode="&#x2227;" horiz-adv-x="268" 
d="M223 273q0 -36 -26.5 -62t-63.5 -26t-62.5 26t-25.5 63t26.5 63.5t63.5 26.5t62.5 -26.5t25.5 -64.5z" />
    <glyph glyph-name="integral" unicode="&#x222b;" horiz-adv-x="242" 
d="M397 692l-53 -109q-45 31 -66 31q-41 0 -46 -65l-42 -574q-4 -55 -22.5 -86t-50.5 -54q-43 -31 -101 -31q-57 0 -121 35l53 110q45 -31 66 -31q41 0 46 64l42 574q7 95 72 141q42 30 102 30q57 0 121 -35z" />
    <glyph glyph-name="approxequal" unicode="&#x2248;" horiz-adv-x="572" 
d="M517 362q-45 -86 -125 -86q-39 0 -111 32q-25 12 -55 24t-47 12q-19 0 -37 -12.5t-25.5 -22l-25.5 -33.5l-36 108q45 86 125 86q39 0 111 -32q25 -12 55 -24t47 -12q19 0 37 12.5t25.5 22l25.5 33.5zM517 162q-45 -86 -125 -86q-39 0 -111 32q-25 12 -55 24t-47 12
q-19 0 -37 -12.5t-25.5 -22l-25.5 -33.5l-36 108q45 86 125 86q39 0 111 -32q25 -12 55 -24t47 -12q19 0 37 12.5t25.5 22l25.5 33.5z" />
    <glyph glyph-name="notequal" unicode="&#x2260;" horiz-adv-x="658" 
d="M300 336h-245v126h315l91 153l80 -49l-33 -55l-38 -49h133v-126h-208l-37 -66h245v-126h-315l-91 -153l-80 49l33 55l38 49h-133v126h208z" />
    <glyph glyph-name="lessequal" unicode="&#x2264;" horiz-adv-x="443" 
d="M408 116l-383 142v96l383 178v-131l-206 -87l206 -70v-128zM408 0h-383v109h383v-109z" />
    <glyph glyph-name="greaterequal" unicode="&#x2265;" horiz-adv-x="443" 
d="M418 258l-383 -142v130l206 68l-206 87v131l383 -178v-96zM418 0h-383v109h383v-109z" />
    <glyph glyph-name="dotmath" unicode="&#x22c5;" horiz-adv-x="268" 
d="M223 273q0 -36 -26.5 -62t-63.5 -26t-62.5 26t-25.5 63t26.5 63.5t63.5 26.5t62.5 -26.5t25.5 -64.5z" />
    <glyph glyph-name="H18543" unicode="&#x25aa;" horiz-adv-x="834" 
d="M789 -18h-744v744h744v-744z" />
    <glyph glyph-name="H18551" unicode="&#x25ab;" horiz-adv-x="834" 
d="M789 -18h-744v744h744v-744zM689 82v544h-544v-544h544z" />
    <glyph glyph-name="uni25B4" unicode="&#x25b4;" horiz-adv-x="516" 
d="M436 157h-356l178 386z" />
    <glyph glyph-name="uni25B8" unicode="&#x25b8;" horiz-adv-x="516" 
d="M451 350l-386 -178v356z" />
    <glyph glyph-name="uni25BE" unicode="&#x25be;" horiz-adv-x="516" 
d="M436 543l-178 -386l-178 386h356z" />
    <glyph glyph-name="uni25C2" unicode="&#x25c2;" horiz-adv-x="516" 
d="M451 172l-386 178l386 178v-356z" />
    <glyph glyph-name="lozenge" unicode="&#x25ca;" horiz-adv-x="572" 
d="M527 344l-185 -344h-116l-181 344l181 343h116zM403 344l-122 259l-118 -259l118 -260z" />
    <glyph glyph-name="circle" unicode="&#x25cb;" horiz-adv-x="834" 
d="M789 354q0 -154 -109 -263t-263 -109t-263 109t-109 263t109 263t263 109t263 -109t109 -263zM687 354q0 116 -79 199t-191 83t-191 -83t-79 -199t79 -199t191 -83t191 83t79 199z" />
    <glyph glyph-name="H18533" unicode="&#x25cf;" horiz-adv-x="834" 
d="M789 354q0 -154 -109 -263t-263 -109t-263 109t-109 263t109 263t263 109t263 -109t109 -263z" />
    <glyph glyph-name="uni2610" unicode="&#x2610;" horiz-adv-x="834" 
d="M789 -18h-744v744h744v-744zM689 82v544h-544v-544h544z" />
    <glyph glyph-name="uniFB06" unicode="&#xfb06;" horiz-adv-x="828" 
d="M311 141q0 26 -19 40.5t-60 22.5q-23 4 -45 8.5t-40.5 10t-36 16.5t-32.5 28q-29 32 -29 92q0 75 54.5 121t143.5 46q17 0 26 -1q-20 25 -20 60q0 69 58 112.5t140 43.5q83 0 239 -44v-185h120l-34 -92h-86v-257q0 -49 12 -65.5t46 -16.5q14 0 48 10l17 -80
q-56 -23 -109 -23q-51 0 -88.5 20.5t-49.5 54.5q-9 25 -9 79v278h-51v92h51v116q-70 25 -109 25q-38 0 -70 -20.5t-32 -55.5q0 -59 60 -87l24 -12l-44 -90q-73 37 -126 37q-29 0 -47 -13.5t-18 -36.5q0 -20 14.5 -31.5t49.5 -20.5l62 -16q71 -18 102 -58q28 -35 28 -87
q0 -80 -60.5 -129t-158.5 -49q-94 0 -207 59l48 98q95 -58 170 -58q29 0 48.5 16.5t19.5 41.5z" />
    <glyph glyph-name="parenleft.case" horiz-adv-x="322" 
d="M342 -49l-35 -78q-73 25 -128 78.5t-86 128.5q-31 77 -40 206q-3 44 -3 78q0 107 20 190q22 93 90 167q62 66 145 102l35 -79q-35 -25 -54 -44q-53 -53 -75 -121q-19 -54 -23 -131q-2 -29 -2 -82q0 -71 8 -154q11 -101 47 -164q19 -34 41 -55t60 -42z" />
    <glyph glyph-name="parenright.case" horiz-adv-x="320" 
d="M280 335q0 -118 -19 -193q-23 -92 -91 -166q-61 -67 -146 -102l-34 79q30 22 54 44q53 53 76 121q16 49 22 131q3 45 3 84q0 84 -8 152q-12 104 -46 164q-20 34 -41.5 55t-59.5 42l35 78q74 -26 129 -79t85 -129q30 -78 39 -206q2 -28 2 -75z" />
    <glyph glyph-name="hyphen.case" horiz-adv-x="330" 
d="M290 290h-240v116h240v-116z" />
    <glyph glyph-name="bracketleft.case" horiz-adv-x="310" 
d="M290 -96h-210v888h210v-90h-90v-708h90v-90z" />
    <glyph glyph-name="bracketright.case" horiz-adv-x="310" 
d="M240 -96h-210v90h90v708h-90v90h210v-888z" />
    <glyph glyph-name="braceleft.case" horiz-adv-x="392" 
d="M372 -96h-105q-57 0 -93 36t-36 110v172q0 22 -12.5 37t-32.5 21t-35 8.5t-28 2.5v114q13 0 28 2.5t35 8.5t32.5 21t12.5 37v173q0 74 35 109.5t94 35.5h105v-114h-49q-22 0 -36 -6t-19.5 -16.5t-7.5 -19.5t-2 -22v-161q0 -33 -9 -54.5t-26.5 -31t-30.5 -13t-34 -5.5v-2
q21 -1 34.5 -4.5t30.5 -13t26 -31t9 -54.5v-162q0 -13 2 -22t7.5 -19.5t19.5 -16.5t36 -6h49v-114z" />
    <glyph glyph-name="braceright.case" horiz-adv-x="392" 
d="M372 291q-14 0 -29 -2.5t-34.5 -8.5t-32 -21t-12.5 -37v-173q0 -74 -35 -109.5t-94 -35.5h-105v114h49q22 0 36 6t19.5 16.5t7.5 19.5t2 22v161q0 33 9 54.5t26.5 31t30.5 13t34 5.5v2q-21 1 -34.5 4.5t-30.5 13t-26 31t-9 54.5v162q0 13 -2 22t-7.5 19.5t-19.5 16.5
t-36 6h-49v114h108q55 0 90.5 -36t35.5 -110v-172q0 -22 12.5 -37t32 -21t34.5 -8.5t29 -2.5v-114z" />
    <glyph glyph-name="guillemotleft.case" horiz-adv-x="552" 
d="M527 175l-91 -61l-159 234l159 234l91 -61l-116 -173zM285 175l-91 -61l-159 234l159 234l91 -61l-116 -173z" />
    <glyph glyph-name="uni00AD.case" horiz-adv-x="330" 
d="M290 290h-240v116h240v-116z" />
    <glyph glyph-name="guillemotright.case" horiz-adv-x="552" 
d="M527 348l-159 -234l-91 61l116 173l-116 173l91 61zM285 348l-159 -234l-91 61l116 173l-116 173l91 61z" />
    <glyph glyph-name="endash.case" horiz-adv-x="577" 
d="M537 296h-487v103h487v-103z" />
    <glyph glyph-name="emdash.case" horiz-adv-x="803" 
d="M763 296h-713v103h713v-103z" />
    <glyph glyph-name="guilsinglleft.case" horiz-adv-x="310" 
d="M285 175l-91 -61l-159 234l159 234l91 -61l-116 -173z" />
    <glyph glyph-name="guilsinglright.case" horiz-adv-x="310" 
d="M285 348l-159 -234l-91 61l116 173l-116 173l91 61z" />
    <glyph glyph-name="zero.dnom" horiz-adv-x="345" 
d="M325 200q0 -92 -42 -150t-111 -58q-71 0 -111.5 57t-40.5 149q0 93 41.5 150.5t110.5 57.5q71 0 112 -57t41 -149zM215 197q0 134 -43 134q-26 0 -34.5 -32.5t-8.5 -97.5q0 -134 43 -134q26 0 34.5 32.5t8.5 97.5z" />
    <glyph glyph-name="one.dnom" horiz-adv-x="294" 
d="M274 0h-215v81h64v208q-47 -25 -75 -34l-28 56l134 89h68v-319h52v-81z" />
    <glyph glyph-name="two.dnom" horiz-adv-x="354" 
d="M334 83l-23 -83h-275v67q70 65 103 100q62 64 62 111q0 42 -39 42q-32 0 -86 -42l-56 63q77 65 165 65q57 0 92 -33t35 -86q0 -27 -13 -55.5t-41 -59t-43.5 -46t-48.5 -44.5q6 0 18 0.5t17 0.5h133z" />
    <glyph glyph-name="three.dnom" horiz-adv-x="346" 
d="M326 126q0 -65 -63 -104.5t-159 -39.5q-27 0 -57 4l-27 74q41 -7 61 -7q60 0 95 22.5t35 56.5q0 12 -5 20t-11 12t-17.5 6t-18.5 2.5t-20 0.5h-40v81q34 -4 51 -4q57 0 57 39q0 33 -41 33q-46 0 -91 -36l-54 64q76 56 155 56q59 0 99.5 -31t40.5 -78q0 -53 -47 -84
q57 -29 57 -87z" />
    <glyph glyph-name="four.dnom" horiz-adv-x="356" 
d="M336 71h-37l-7 1q0 -1 0.5 -5t0.5 -6v-75l-96 -11v91l1 5h-178v63l109 267h105l-84 -207q-6 -15 -19 -38h69q0 31 11 141l82 18v-104v-49l-1 -7q2 0 5 0.5t4 0.5h35v-85z" />
    <glyph glyph-name="five.dnom" horiz-adv-x="316" 
d="M296 137q0 -68 -56.5 -111.5t-142.5 -43.5q-27 0 -53 5l-24 79q47 -12 71 -12q44 0 71 21t27 53q0 24 -15 38.5t-40 14.5q-40 0 -98 -18l20 236h226l-15 -84h-117l-7 -58q5 1 17 1q59 0 97.5 -34t38.5 -87z" />
    <glyph glyph-name="six.dnom" horiz-adv-x="351" 
d="M331 132q0 -60 -43.5 -100t-106.5 -40q-70 0 -115.5 48.5t-45.5 122.5q0 85 52 146.5t137 100.5q28 13 65 24l23 -73q-41 -16 -62.5 -26t-47.5 -31.5t-42 -51.5q29 11 48 11q58 0 98 -37.5t40 -93.5zM227 131q0 24 -12 38t-33 14q-27 0 -53 -14q-1 -9 -1 -31
q0 -34 13.5 -51.5t35.5 -17.5t36 16.5t14 45.5z" />
    <glyph glyph-name="seven.dnom" horiz-adv-x="341" 
d="M321 399l-16 -80q-31 -42 -60 -93q-57 -104 -72 -173l-12 -58l-110 -26q40 157 101 270q21 40 45 73l-10 -1h-167l23 88h278z" />
    <glyph glyph-name="eight.dnom" horiz-adv-x="369" 
d="M349 114q0 -42 -29 -75t-76 -44q-28 -7 -66 -7q-60 0 -100 23q-58 34 -58 96q0 30 16 56.5t42 41.5q-47 31 -47 86q0 52 43 83.5t111 31.5q64 0 106 -30t42 -79q0 -57 -59 -85q75 -35 75 -98zM238 103q0 26 -18 37q-16 11 -61 26q-30 -18 -30 -53q0 -23 15.5 -37
t42.5 -14q23 0 37 12t14 29zM224 299q0 33 -45 33q-21 0 -33 -9.5t-12 -24.5q0 -27 51 -47q39 18 39 48z" />
    <glyph glyph-name="nine.dnom" horiz-adv-x="349" 
d="M329 240q0 -118 -102 -201q-60 -49 -137 -75l-59 64q48 12 92.5 42t65.5 61q-27 -6 -30 -6q-59 0 -99 39.5t-40 97.5q0 62 44 103t111 41q72 0 113 -44.5t41 -121.5zM222 261q0 33 -13 50.5t-35 17.5q-20 0 -33.5 -17t-13.5 -47q0 -28 14 -45t37 -17q20 0 39 11
q5 20 5 47z" />
    <glyph glyph-name="germandbls.hist" horiz-adv-x="758" 
d="M299 741q47 0 114 -31l-55 -92q-33 20 -60 20q-26 0 -45 -16.5t-24 -42.5q-3 -15 -3 -70v-509h-136v408h-82v104h82v32q0 51 9 81.5t41 59.5q42 39 104 51q28 5 55 5zM728 162q0 -80 -60.5 -129t-158.5 -49q-94 0 -207 59l48 98q95 -58 170 -58q29 0 48.5 16.5t19.5 41.5
q0 26 -19 40.5t-60 22.5q-23 4 -45 8.5t-40.5 10t-36 16.5t-32.5 28q-29 32 -29 92q0 75 54.5 121t143.5 46q85 0 183 -48l-44 -90q-73 37 -126 37q-29 0 -47 -13.5t-18 -36.5q0 -20 14.5 -31.5t49.5 -20.5l62 -16q71 -18 102 -58q28 -35 28 -87z" />
    <glyph glyph-name="grave.lc" horiz-adv-x="543" 
d="M363 631l-41 -74l-224 100l58 104z" />
    <glyph glyph-name="dieresis.lc" horiz-adv-x="543" 
d="M453 635q0 -31 -22.5 -54t-54.5 -23q-31 0 -53.5 22.5t-22.5 54.5t23 54.5t55 22.5q31 0 53 -22.5t22 -54.5zM242 635q0 -31 -23 -54t-54 -23t-53.5 23t-22.5 54t23 54t55 23q31 0 53 -22.5t22 -54.5z" />
    <glyph glyph-name="macron.lc" horiz-adv-x="364" 
d="M339 558h-314v78h314v-78z" />
    <glyph glyph-name="acute.lc" horiz-adv-x="543" 
d="M417 657l-224 -100l-41 74l207 130z" />
    <glyph glyph-name="circumflex.lc" horiz-adv-x="543" 
d="M454 625l-45 -73l-139 76l-135 -76l-45 73l180 135z" />
    <glyph glyph-name="caron.lc" horiz-adv-x="479" 
d="M425 689l-180 -135l-184 135l45 73l139 -76l135 76z" />
    <glyph glyph-name="breve.lc" horiz-adv-x="391" 
d="M383 676q-10 -12 -24 -26.5t-41 -39t-59.5 -40t-62.5 -15.5q-54 0 -108.5 43.5t-81.5 80.5l43 54q71 -68 151 -68q61 0 147 68z" />
    <glyph glyph-name="dotaccent.lc" horiz-adv-x="215" 
d="M190 653q0 -35 -24 -59t-59 -24q-34 0 -58 24.5t-24 58.5t24.5 58.5t59.5 24.5q34 0 57.5 -24t23.5 -59z" />
    <glyph glyph-name="ring.lc" horiz-adv-x="522" 
d="M366 659q0 -43 -31 -74.5t-75 -31.5q-43 0 -73.5 31t-30.5 75q0 43 31.5 74.5t74.5 31.5t73.5 -31t30.5 -75zM311 659q0 21 -14.5 36t-34.5 15q-22 0 -37 -15t-15 -36t15 -36t35 -15q21 0 36 15t15 36z" />
    <glyph glyph-name="tilde.lc" horiz-adv-x="543" 
d="M452 639q-45 -58 -124 -58q-31 0 -66.5 17t-64.5 17q-41 0 -68 -29l-41 75q46 58 124 58q30 0 66 -17t65 -17q41 0 68 30z" />
    <glyph glyph-name="hungarumlaut.lc" horiz-adv-x="471" 
d="M219 774l-116 -217l-78 34l83 229zM446 756l-147 -196l-72 46l117 213z" />
    <glyph glyph-name="diedot.lc" horiz-adv-x="543" 
d="M242 635q0 -31 -23 -54t-54 -23t-53.5 23t-22.5 54t23 54t55 23q31 0 53 -22.5t22 -54.5z" />
    <glyph glyph-name="zero.lf" horiz-adv-x="565" 
d="M520 333q0 -157 -66 -252t-172 -95q-109 0 -173 93.5t-64 250.5t66 252t172 95q109 0 173 -93.5t64 -250.5zM371 329q0 142 -22.5 196t-65.5 54q-89 0 -89 -244q0 -97 12 -154.5t30 -77t46 -19.5q89 0 89 245z" />
    <glyph glyph-name="one.lf" horiz-adv-x="418" 
d="M192 0v513q-63 -39 -133 -63l-34 72l207 145h91v-667h-131z" />
    <glyph glyph-name="two.lf" horiz-adv-x="568" 
d="M523 112l-29 -112h-429v94q102 100 167 170q109 120 109 205q0 90 -83 90q-61 0 -141 -66l-72 85q111 99 252 99q89 0 142 -53t53 -138q0 -98 -117 -227q-48 -53 -119 -119q-21 -21 -38 -33q37 5 105 5h200z" />
    <glyph glyph-name="three.lf" horiz-adv-x="538" 
d="M493 204q0 -103 -98.5 -168.5t-253.5 -65.5q-45 0 -83 5l-32 93q36 -7 76 -7q104 0 169 43t65 111q0 25 -12 46t-32 30q-25 12 -93 12q-9 0 -26 -0.5t-25 -0.5v112q31 -4 69 -4q111 0 111 79q0 34 -21.5 54.5t-63.5 20.5q-81 0 -148 -56l-70 85q108 84 236 84
q94 0 155 -49.5t61 -124.5q0 -53 -29.5 -93t-73.5 -54q56 -19 87.5 -59t31.5 -93z" />
    <glyph glyph-name="four.lf" horiz-adv-x="563" 
d="M528 125h-45l-31 2q5 -13 5 -36v-115l-127 -16v143l2 25q-12 -3 -32 -3h-265v91l193 453h138l-142 -338q-25 -59 -47 -93q11 2 21 2h113l24 -1q-1 13 -1 18q0 64 7 133l11 117l105 24v-197q0 -53 -3 -95q20 1 32 1h42v-115z" />
    <glyph glyph-name="five.lf" horiz-adv-x="500" 
d="M455 224q0 -111 -88.5 -182.5t-226.5 -71.5q-39 0 -76 7l-29 99q53 -14 94 -14q80 0 130.5 41t50.5 105q0 48 -30 77t-79 29q-56 0 -146 -28l32 379h341l-20 -114h-196l-14 -138q26 5 47 5q93 0 151.5 -54t58.5 -140z" />
    <glyph glyph-name="six.lf" horiz-adv-x="575" 
d="M530 214q0 -97 -67.5 -162.5t-166.5 -65.5q-110 0 -180.5 79t-70.5 203q0 177 138 306q101 95 257 145l29 -96q-55 -22 -80.5 -33.5t-62.5 -37.5t-63 -60q-37 -46 -54 -100q41 33 107 33q91 0 152.5 -61t61.5 -150zM389 212q0 48 -24.5 76.5t-66.5 28.5q-47 0 -104 -33
q-3 -28 -3 -60q0 -64 26 -99.5t73 -35.5q45 0 72 33.5t27 89.5z" />
    <glyph glyph-name="seven.lf" horiz-adv-x="510" 
d="M490 665l-22 -117q-52 -75 -99 -161q-33 -60 -73.5 -158t-53.5 -168l-13 -70l-147 -37q30 125 72 240q41 110 88 201q45 88 93 153q-15 -4 -40 -4h-265l30 121h430z" />
    <glyph glyph-name="eight.lf" horiz-adv-x="605" 
d="M560 183q0 -85 -67 -142q-70 -61 -201 -61q-102 0 -174.5 47.5t-72.5 144.5q0 56 33 103t85 66q-47 18 -73 60.5t-26 90.5q0 83 66.5 134t173.5 51q101 0 165.5 -48.5t64.5 -125.5q0 -51 -35.5 -91.5t-93.5 -56.5q155 -53 155 -172zM409 165q0 47 -38 72q-40 26 -113 51
q-64 -37 -64 -106q0 -47 30.5 -75t82.5 -28q45 0 73.5 24t28.5 62zM385 507q0 72 -91 72q-41 0 -66.5 -20.5t-25.5 -54.5q0 -19 10 -35t25 -26t33 -19t34 -15q81 41 81 98z" />
    <glyph glyph-name="nine.lf" horiz-adv-x="566" 
d="M521 404q0 -199 -164 -338q-100 -84 -212 -123l-73 82q81 21 161.5 86t102.5 128q-41 -19 -81 -19q-92 0 -153.5 64t-61.5 159q0 101 68.5 167.5t173.5 66.5q112 0 175.5 -72.5t63.5 -200.5zM376 440q0 63 -26 98.5t-71 35.5q-43 0 -68.5 -34.5t-25.5 -92.5
q0 -54 27.5 -86.5t73.5 -32.5q44 0 80 37q10 34 10 75z" />
    <glyph glyph-name="less.salt" horiz-adv-x="643" 
d="M538 644q0 -35 -24.5 -60t-59.5 -25t-60 25t-25 60t25 59.5t60 24.5t59.5 -24.5t24.5 -59.5zM406 459q0 -35 -24.5 -60t-59.5 -25t-60 25t-25 60t25 59.5t60 24.5t59.5 -24.5t24.5 -59.5zM274 274q0 -35 -24.5 -60t-59.5 -25t-60 25t-25 60t25 59.5t60 24.5t59.5 -24.5
t24.5 -59.5zM406 88q0 -35 -24.5 -59.5t-59.5 -24.5t-60 24.5t-25 59.5t25 60t60 25t59.5 -25t24.5 -60zM538 -97q0 -35 -24.5 -59.5t-59.5 -24.5t-60 24.5t-25 59.5t25 60t60 25t59.5 -25t24.5 -60z" />
    <glyph glyph-name="greater.salt" horiz-adv-x="643" 
d="M274 644q0 -35 -25 -60t-60 -25t-59.5 25t-24.5 60t24.5 59.5t59.5 24.5t60 -24.5t25 -59.5zM406 459q0 -35 -25 -60t-60 -25t-59.5 25t-24.5 60t24.5 59.5t59.5 24.5t60 -24.5t25 -59.5zM538 274q0 -35 -25 -60t-60 -25t-59.5 25t-24.5 60t24.5 59.5t59.5 24.5t60 -24.5
t25 -59.5zM406 88q0 -35 -25 -59.5t-60 -24.5t-59.5 24.5t-24.5 59.5t24.5 60t59.5 25t60 -25t25 -60zM274 -97q0 -35 -25 -59.5t-60 -24.5t-59.5 24.5t-24.5 59.5t24.5 60t59.5 25t60 -25t25 -60z" />
    <glyph glyph-name="g.salt" horiz-adv-x="551" 
d="M493 513q-12 -52 -12 -151v-205q0 -58 2.5 -109.5t2.5 -67.5q0 -199 -232 -199q-108 0 -189 38l23 105q87 -36 165 -36q51 0 77.5 21.5t26.5 59.5q0 13 -3 64q-39 -42 -99 -42q-109 0 -162 73t-53 184q0 178 102 243q53 34 110 34q40 0 76 -15.5t44 -36.5q1 21 10 40h111
zM354 137v241q-33 35 -77 35q-35 0 -58 -23q-32 -32 -32 -125q0 -28 0.5 -43.5t5.5 -42.5t13.5 -42t26.5 -27t44 -12q44 0 77 39z" />
    <glyph glyph-name="pi.salt" horiz-adv-x="597" 
d="M562 17q-54 -27 -91 -27q-46 0 -76 28q-33 30 -33 90v305h-131v-271q0 -63 -5 -87.5t-21 -54.5h-134q19 42 24.5 71.5t5.5 78.5v263h-66v110h522v-110h-65v-291q0 -24 11 -24q22 0 30 10z" />
    <glyph glyph-name="a.sc" horiz-adv-x="524" 
d="M527 0h-143l-42 116h-162l-39 -116h-144l199 550h145zM314 217l-51 213l-54 -213h105z" />
    <glyph glyph-name="b.sc" horiz-adv-x="563" 
d="M518 155q0 -155 -210 -155h-223v548h240q78 0 124.5 -37.5t46.5 -100.5q0 -42 -21 -73t-58 -46q101 -42 101 -136zM364 170q0 60 -77 60h-65v-125h65q77 0 77 65zM356 388q0 53 -70 53h-67v-104h61q44 0 60 12t16 39z" />
    <glyph glyph-name="c.sc" horiz-adv-x="533" 
d="M498 45q-69 -54 -168 -54q-128 0 -191 59q-84 78 -84 209q0 109 44 180q35 57 97 89t135 32q43 0 86.5 -12.5t67.5 -30.5l-61 -88q-48 28 -90 28q-55 0 -89 -34q-37 -37 -37 -133q0 -114 26 -150q35 -49 104 -49q51 0 99 32z" />
    <glyph glyph-name="d.sc" horiz-adv-x="587" 
d="M532 270q0 -115 -59 -185t-154 -82q-23 -3 -93 -3h-141v548h120q89 0 112 -3q102 -12 158.5 -82.5t56.5 -192.5zM380 258q0 96 -23 142.5t-84 46.5h-50v-341h66q91 0 91 152z" />
    <glyph glyph-name="e.sc" horiz-adv-x="464" 
d="M439 0h-354v548h348l-20 -106h-192v-102h161v-107h-160v-122h217v-111z" />
    <glyph glyph-name="f.sc" horiz-adv-x="418" 
d="M413 548l-16 -104h-177v-107h140v-107h-140v-230h-135v548h328z" />
    <glyph glyph-name="g.sc" horiz-adv-x="612" 
d="M537 46q-101 -51 -210 -51q-138 0 -210 87q-62 74 -62 186q0 131 76 210t203 79q116 0 200 -64l-73 -81q-58 43 -126 43q-71 0 -99 -44t-28 -150q0 -97 30.5 -134.5t94.5 -37.5q26 0 59 12v106h-79l-20 104h244v-265z" />
    <glyph glyph-name="h.sc" horiz-adv-x="593" 
d="M508 0h-139v234h-147v-234h-137v548h137v-205h147v205h139v-548z" />
    <glyph glyph-name="i.sc" horiz-adv-x="311" 
d="M226 0h-141v548h141v-548z" />
    <glyph glyph-name="j.sc" horiz-adv-x="311" 
d="M226 112q0 -74 -6 -103q-11 -52 -55.5 -90t-95.5 -56l-64 66q54 35 73 73q11 23 11 96v450h137v-436z" />
    <glyph glyph-name="k.sc" 
d="M575 0h-181l-170 284v-284h-139v548h139v-246l153 246h169l-176 -253z" />
    <glyph glyph-name="l.sc" horiz-adv-x="439" 
d="M434 110l-29 -110h-320v548h138v-438h211z" />
    <glyph glyph-name="m.sc" horiz-adv-x="775" 
d="M710 0h-134l-17 283q-5 67 -5 107q0 -2 -6 -23l-12.5 -45t-10.5 -36l-82 -286h-117l-75 277l-28 126q0 -43 -5 -126l-15 -277h-138l59 548h173l69 -265q4 -15 9 -39.5l9 -45t4 -22.5q19 94 24 112l72 260h170z" />
    <glyph glyph-name="n.sc" horiz-adv-x="593" 
d="M508 0h-140l-102 224l-62 150q5 -128 6 -165l3 -209h-128v548h149l106 -211q24 -49 53 -136q-1 6 -5 63.5t-4 82.5l-2 201h126v-548z" />
    <glyph glyph-name="o.sc" horiz-adv-x="641" 
d="M586 279q0 -132 -66.5 -209.5t-192.5 -77.5q-128 0 -200 76.5t-72 201.5q0 134 71 209t196 75q120 0 192 -71t72 -204zM430 279q0 89 -24.5 133.5t-85.5 44.5q-59 0 -86 -47.5t-27 -143.5q0 -100 26.5 -139t86.5 -39q56 0 83 43t27 148z" />
    <glyph glyph-name="p.sc" horiz-adv-x="533" 
d="M508 374q0 -60 -32.5 -108t-86.5 -62q-44 -11 -113 -11h-55v-193h-136v548h155q54 0 90 -4t51.5 -9t36.5 -14q43 -19 66.5 -58.5t23.5 -88.5zM361 374q0 32 -18.5 52t-58.5 20h-63v-148h62q42 0 60 16.5t18 59.5z" />
    <glyph glyph-name="q.sc" horiz-adv-x="641" 
d="M646 -10l-30 -80q-22 -12 -57 -12q-49 0 -108 37q-58 37 -123 57q-125 0 -199 74t-74 204q0 129 74 206.5t193 77.5q116 0 190 -72t74 -203q0 -80 -29.5 -145t-80.5 -101q10 -5 24 -15l15 -9q37 -21 74 -21q41 0 57 2zM429 279q0 90 -24.5 134t-84.5 44q-113 0 -113 -191
q0 -101 25 -139.5t87 -38.5q60 0 85 47t25 144z" />
    <glyph glyph-name="r.sc" horiz-adv-x="557" 
d="M542 0h-163l-58 92q-50 84 -66 106t-28 22h-9v-220h-133v548h212q110 0 156 -46q49 -49 49 -121q0 -56 -33 -99t-78 -52q24 -27 76 -109t75 -121zM360 381q0 34 -21 50t-75 16h-47v-129h45q54 0 76 14.5t22 48.5z" />
    <glyph glyph-name="s.sc" horiz-adv-x="545" 
d="M500 180q0 -87 -71 -139.5t-188 -52.5q-106 0 -201 46l45 104q97 -41 163 -41q97 0 97 54q0 44 -72 61l-69 16q-86 20 -119 78q-23 40 -23 85q0 76 62 125t160 49q56 0 114.5 -15.5t96.5 -40.5l-65 -95q-76 41 -142 41q-33 0 -53.5 -13.5t-20.5 -36.5q0 -21 11.5 -31
t45.5 -18l74 -17q155 -36 155 -159z" />
    <glyph glyph-name="t.sc" horiz-adv-x="454" 
d="M459 548l-26 -108h-137v-440h-140v440h-141v108h444z" />
    <glyph glyph-name="u.sc" horiz-adv-x="609" 
d="M526 184q0 -57 -10.5 -85.5t-35.5 -52.5q-58 -56 -171 -56q-143 0 -197 69q-29 37 -29 116v373h138v-357q0 -47 12 -63q22 -30 71 -30q38 0 64 22q20 18 20 82v346h138v-364z" />
    <glyph glyph-name="v.sc" horiz-adv-x="513" 
d="M528 548l-215 -551h-118l-210 551h149l86 -250q13 -39 34 -123q23 92 36 125l95 248h143z" />
    <glyph glyph-name="w.sc" horiz-adv-x="748" 
d="M743 548l-151 -552h-142l-48 203q-13 53 -29 182q-26 -155 -31 -182l-42 -203h-148l-147 552h143l44 -189q14 -64 34 -205q13 120 33 201l45 193h146l48 -228q4 -22 14 -89.5t10 -68.5q22 154 35 206l42 180h144z" />
    <glyph glyph-name="x.sc" horiz-adv-x="516" 
d="M526 0h-168l-95 181l-99 -181h-174l194 293l-164 255h168l71 -137l73 137h165l-159 -247z" />
    <glyph glyph-name="y.sc" horiz-adv-x="482" 
d="M502 548l-193 -321v-227h-142v226l-187 322h163l68 -145l33 -74l6 15l13 33l12 30l65 141h162z" />
    <glyph glyph-name="z.sc" horiz-adv-x="508" 
d="M463 105l-40 -105h-378v92l214 313l36 42q-37 -4 -65 -4h-174l33 106h364v-91l-213 -316l-34 -41q38 4 64 4h193z" />
    <glyph glyph-name="germandbls.sc" horiz-adv-x="1070" 
d="M1025 180q0 -87 -71 -139.5t-188 -52.5q-106 0 -201 46l45 104q97 -41 163 -41q97 0 97 54q0 44 -72 61l-69 16q-86 20 -119 78q-23 40 -23 85q0 76 62 125t160 49q56 0 114.5 -15.5t96.5 -40.5l-65 -95q-76 41 -142 41q-33 0 -53.5 -13.5t-20.5 -36.5q0 -21 11.5 -31
t45.5 -18l74 -17q155 -36 155 -159zM500 180q0 -87 -71 -139.5t-188 -52.5q-106 0 -201 46l45 104q97 -41 163 -41q97 0 97 54q0 44 -72 61l-69 16q-86 20 -119 78q-23 40 -23 85q0 76 62 125t160 49q56 0 114.5 -15.5t96.5 -40.5l-65 -95q-76 41 -142 41q-33 0 -53.5 -13.5
t-20.5 -36.5q0 -21 11.5 -31t45.5 -18l74 -17q155 -36 155 -159z" />
    <glyph glyph-name="agrave.sc" horiz-adv-x="524" 
d="M532 0h-143l-42 116h-162l-39 -116h-144l199 550h145zM319 217l-51 213l-54 -213h105zM387 651l-41 -74l-224 100l58 104z" />
    <glyph glyph-name="aacute.sc" horiz-adv-x="524" 
d="M532 0h-143l-42 116h-162l-39 -116h-144l199 550h145zM319 217l-51 213l-54 -213h105zM425 677l-224 -100l-41 74l207 130z" />
    <glyph glyph-name="acircumflex.sc" horiz-adv-x="524" 
d="M532 0h-143l-42 116h-162l-39 -116h-144l199 550h145zM319 217l-51 213l-54 -213h105zM457 645l-45 -73l-139 76l-135 -76l-45 73l180 135z" />
    <glyph glyph-name="atilde.sc" horiz-adv-x="524" 
d="M532 0h-143l-42 116h-162l-39 -116h-144l199 550h145zM319 217l-51 213l-54 -213h105zM451 660q-45 -58 -124 -58q-31 0 -66.5 17t-64.5 17q-41 0 -68 -29l-41 75q46 58 124 58q30 0 66 -17t65 -17q41 0 68 30z" />
    <glyph glyph-name="adieresis.sc" horiz-adv-x="524" 
d="M532 0h-143l-42 116h-162l-39 -116h-144l199 550h145zM319 217l-51 213l-54 -213h105zM456 664q0 -32 -23 -54.5t-54 -22.5t-53.5 22.5t-22.5 54.5t23 54.5t55 22.5q31 0 53 -22.5t22 -54.5zM245 664q0 -32 -22.5 -54.5t-54.5 -22.5q-31 0 -53.5 23t-22.5 54t23 54t55 23
q31 0 53 -22.5t22 -54.5z" />
    <glyph glyph-name="aring.sc" horiz-adv-x="524" 
d="M532 0h-143l-42 116h-162l-39 -116h-144l199 550h145zM319 217l-51 213l-54 -213h105zM380 679q0 -43 -31 -74.5t-75 -31.5q-43 0 -73.5 31t-30.5 75q0 43 31.5 74.5t74.5 31.5t73.5 -31t30.5 -75zM325 679q0 21 -14.5 36t-34.5 15q-22 0 -37 -15t-15 -36t15 -36t35 -15
q21 0 36 15t15 36z" />
    <glyph glyph-name="ae.sc" horiz-adv-x="746" 
d="M721 0h-355v116h-157l-69 -116h-155l347 548h382l-19 -105h-192v-104h161v-105h-159v-124h216v-110zM366 216v201l-104 -201h104z" />
    <glyph glyph-name="ccedilla.sc" horiz-adv-x="533" 
d="M498 45q-69 -54 -168 -54h-22l-9 -23q36 -4 54 -25.5t18 -53.5q0 -38 -29 -63t-80 -25q-43 0 -87 24l30 63q34 -15 52 -15q10 0 17.5 6t7.5 12q0 20 -25 20l-27 -6l-13 20l21 75q-61 14 -99 50q-84 78 -84 209q0 109 44 180q35 57 97 89t135 32q43 0 86.5 -12.5
t67.5 -30.5l-61 -88q-48 28 -90 28q-55 0 -89 -34q-37 -37 -37 -133q0 -114 26 -150q35 -49 104 -49q51 0 99 32z" />
    <glyph glyph-name="egrave.sc" horiz-adv-x="464" 
d="M444 0h-354v548h348l-20 -106h-192v-102h161v-107h-160v-122h217v-111zM385 651l-41 -74l-224 100l58 104z" />
    <glyph glyph-name="eacute.sc" horiz-adv-x="464" 
d="M444 0h-354v548h348l-20 -106h-192v-102h161v-107h-160v-122h217v-111zM406 677l-224 -100l-41 74l207 130z" />
    <glyph glyph-name="ecircumflex.sc" horiz-adv-x="464" 
d="M444 0h-354v548h348l-20 -106h-192v-102h161v-107h-160v-122h217v-111zM452 645l-45 -73l-139 76l-135 -76l-45 73l180 135z" />
    <glyph glyph-name="edieresis.sc" horiz-adv-x="464" 
d="M444 0h-354v548h348l-20 -106h-192v-102h161v-107h-160v-122h217v-111zM237 675q0 -31 -22.5 -54t-54.5 -23q-31 0 -53.5 23t-22.5 54t23 54t55 23q31 0 53 -22.5t22 -54.5zM448 675q0 -31 -23 -54t-54 -23t-53.5 23t-22.5 54t23 54t55 23q31 0 53 -22.5t22 -54.5z" />
    <glyph glyph-name="igrave.sc" horiz-adv-x="311" 
d="M231 0h-141v548h141v-548zM272 651l-41 -74l-224 100l58 104z" />
    <glyph glyph-name="iacute.sc" horiz-adv-x="311" 
d="M231 0h-141v548h141v-548zM314 677l-224 -100l-41 74l207 130z" />
    <glyph glyph-name="icircumflex.sc" horiz-adv-x="311" 
d="M231 0h-141v548h141v-548zM342 645l-45 -73l-139 76l-135 -76l-45 73l180 135z" />
    <glyph glyph-name="idieresis.sc" horiz-adv-x="311" 
d="M231 0h-141v548h141v-548zM132 655q0 -31 -23 -54t-54 -23t-53.5 23t-22.5 54t23 54t55 23q31 0 53 -22.5t22 -54.5zM343 655q0 -31 -22.5 -54t-54.5 -23q-31 0 -53.5 23t-22.5 54t23 54t55 23q31 0 53 -22.5t22 -54.5z" />
    <glyph glyph-name="eth.sc" horiz-adv-x="587" 
d="M532 270q0 -115 -59 -185t-154 -82q-23 -3 -93 -3h-141v232h-66v89h66v227h120q89 0 112 -3q102 -12 158.5 -82.5t56.5 -192.5zM380 258q0 96 -23 142.5t-84 46.5h-50v-126h106l-23 -89h-83v-126h66q91 0 91 152z" />
    <glyph glyph-name="ntilde.sc" horiz-adv-x="593" 
d="M513 0h-140l-102 224l-62 150q5 -128 6 -165l3 -209h-128v548h149l106 -211q24 -49 53 -136q-1 6 -5 63.5t-4 82.5l-2 201h126v-548zM477 653q-45 -58 -124 -58q-31 0 -66.5 17t-64.5 17q-41 0 -68 -29l-41 75q46 58 124 58q30 0 66 -17t65 -17q41 0 68 30z" />
    <glyph glyph-name="ograve.sc" horiz-adv-x="641" 
d="M591 279q0 -132 -66.5 -209.5t-192.5 -77.5q-128 0 -200 76.5t-72 201.5q0 134 71 209t196 75q120 0 192 -71t72 -204zM435 279q0 89 -24.5 133.5t-85.5 44.5q-59 0 -86 -47.5t-27 -143.5q0 -100 26.5 -139t86.5 -39q56 0 83 43t27 148zM429 651l-41 -74l-224 100l58 104
z" />
    <glyph glyph-name="oacute.sc" horiz-adv-x="641" 
d="M591 279q0 -132 -66.5 -209.5t-192.5 -77.5q-128 0 -200 76.5t-72 201.5q0 134 71 209t196 75q120 0 192 -71t72 -204zM435 279q0 89 -24.5 133.5t-85.5 44.5q-59 0 -86 -47.5t-27 -143.5q0 -100 26.5 -139t86.5 -39q56 0 83 43t27 148zM466 677l-224 -100l-41 74
l207 130z" />
    <glyph glyph-name="ocircumflex.sc" horiz-adv-x="641" 
d="M591 279q0 -132 -66.5 -209.5t-192.5 -77.5q-128 0 -200 76.5t-72 201.5q0 134 71 209t196 75q120 0 192 -71t72 -204zM435 279q0 89 -24.5 133.5t-85.5 44.5q-59 0 -86 -47.5t-27 -143.5q0 -100 26.5 -139t86.5 -39q56 0 83 43t27 148zM511 645l-45 -73l-139 76
l-135 -76l-45 73l180 135z" />
    <glyph glyph-name="otilde.sc" horiz-adv-x="641" 
d="M591 279q0 -132 -66.5 -209.5t-192.5 -77.5q-128 0 -200 76.5t-72 201.5q0 134 71 209t196 75q120 0 192 -71t72 -204zM435 279q0 89 -24.5 133.5t-85.5 44.5q-59 0 -86 -47.5t-27 -143.5q0 -100 26.5 -139t86.5 -39q56 0 83 43t27 148zM508 656q-45 -58 -124 -58
q-31 0 -66.5 17t-64.5 17q-41 0 -68 -29l-41 75q46 58 124 58q30 0 66 -17t65 -17q41 0 68 30z" />
    <glyph glyph-name="odieresis.sc" horiz-adv-x="641" 
d="M591 279q0 -132 -66.5 -209.5t-192.5 -77.5q-128 0 -200 76.5t-72 201.5q0 134 71 209t196 75q120 0 192 -71t72 -204zM435 279q0 89 -24.5 133.5t-85.5 44.5q-59 0 -86 -47.5t-27 -143.5q0 -100 26.5 -139t86.5 -39q56 0 83 43t27 148zM297 665q0 -31 -22.5 -54
t-54.5 -23q-31 0 -53.5 23t-22.5 54t23 54t55 23q31 0 53 -22.5t22 -54.5zM508 665q0 -31 -23 -54t-54 -23t-53.5 23t-22.5 54t23 54t55 23q31 0 53 -22.5t22 -54.5z" />
    <glyph glyph-name="oslash.sc" horiz-adv-x="641" 
d="M586 279q0 -97 -39.5 -169t-110.5 -102q-37 -16 -109 -16q-86 0 -138 23l-58 -83l-68 33l64 98q-72 82 -72 207q0 130 74 207t193 77q71 0 123 -24l54 73l69 -37l-56 -81q74 -76 74 -206zM430 279q0 13 -5 80l-174 -254q32 -17 69 -17q36 0 60 17.5t34 49.5t13 59t3 65z
M382 438q-28 19 -62 19q-37 0 -61.5 -17.5t-34.5 -49.5t-13.5 -59.5t-3.5 -64.5q0 -45 5 -79z" />
    <glyph glyph-name="ugrave.sc" horiz-adv-x="609" 
d="M531 184q0 -57 -10.5 -85.5t-35.5 -52.5q-58 -56 -171 -56q-143 0 -197 69q-29 37 -29 116v373h138v-357q0 -47 12 -63q22 -30 71 -30q38 0 64 22q20 18 20 82v346h138v-364zM427 651l-41 -74l-224 100l58 104z" />
    <glyph glyph-name="uacute.sc" horiz-adv-x="609" 
d="M531 184q0 -57 -10.5 -85.5t-35.5 -52.5q-58 -56 -171 -56q-143 0 -197 69q-29 37 -29 116v373h138v-357q0 -47 12 -63q22 -30 71 -30q38 0 64 22q20 18 20 82v346h138v-364zM456 677l-224 -100l-41 74l207 130z" />
    <glyph glyph-name="ucircumflex.sc" horiz-adv-x="609" 
d="M531 184q0 -57 -10.5 -85.5t-35.5 -52.5q-58 -56 -171 -56q-143 0 -197 69q-29 37 -29 116v373h138v-357q0 -47 12 -63q22 -30 71 -30q38 0 64 22q20 18 20 82v346h138v-364zM491 645l-45 -73l-139 76l-135 -76l-45 73l180 135z" />
    <glyph glyph-name="udieresis.sc" horiz-adv-x="609" 
d="M531 184q0 -57 -10.5 -85.5t-35.5 -52.5q-58 -56 -171 -56q-143 0 -197 69q-29 37 -29 116v373h138v-357q0 -47 12 -63q22 -30 71 -30q38 0 64 22q20 18 20 82v346h138v-364zM280 665q0 -31 -23 -54t-54 -23t-53.5 23t-22.5 54t23 54t55 23q31 0 53 -22.5t22 -54.5z
M492 665q0 -31 -23 -54t-54 -23t-53.5 23t-22.5 54t23 54t55 23q31 0 53 -22.5t22 -54.5z" />
    <glyph glyph-name="yacute.sc" horiz-adv-x="482" 
d="M507 548l-193 -321v-227h-142v226l-187 322h163l68 -145l33 -74l6 15l13 33l12 30l65 141h162zM396 677l-224 -100l-41 74l207 130z" />
    <glyph glyph-name="thorn.sc" horiz-adv-x="543" 
d="M508 286q0 -60 -32.5 -108t-86.5 -62q-44 -11 -113 -11h-55v-105h-136v548h136v-88h19q54 0 90 -4t51.5 -9t36.5 -14q43 -19 66.5 -58.5t23.5 -88.5zM361 286q0 32 -18.5 52t-58.5 20h-63v-148h62q42 0 60 16.5t18 59.5z" />
    <glyph glyph-name="ydieresis.sc" horiz-adv-x="482" 
d="M507 548l-193 -321v-227h-142v226l-187 322h163l68 -145l33 -74l6 15l13 33l12 30l65 141h162zM213 665q0 -31 -22.5 -54t-54.5 -23q-31 0 -53.5 23t-22.5 54t23 54t55 23q31 0 53 -22.5t22 -54.5zM424 665q0 -31 -23 -54t-54 -23t-53.5 23t-22.5 54t23 54t55 23
q31 0 53 -22.5t22 -54.5z" />
    <glyph glyph-name="amacron.sc" horiz-adv-x="524" 
d="M413 617h-294v92h294v-92zM532 0h-143l-42 116h-162l-39 -116h-144l199 550h145zM319 217l-51 213l-54 -213h105z" />
    <glyph glyph-name="abreve.sc" horiz-adv-x="524" 
d="M532 0h-143l-42 116h-162l-39 -116h-144l199 550h145zM319 217l-51 213l-54 -213h105zM461 709q-10 -12 -24 -26.5t-41 -39t-59.5 -40t-62.5 -15.5q-54 0 -108.5 43.5t-81.5 80.5l43 54q71 -68 151 -68q61 0 147 68z" />
    <glyph glyph-name="aogonek.sc" horiz-adv-x="524" 
d="M546 -174q-62 -27 -111 -27q-47 0 -75 25.5t-28 66.5q0 59 52 109l-42 116h-162l-39 -116h-144l199 550h145l186 -550h-7q-39 0 -64 -26.5t-25 -57.5q0 -6 2 -14q7 -24 32 -24q23 0 53 15zM314 217l-51 213l-54 -213h105z" />
    <glyph glyph-name="cacute.sc" horiz-adv-x="533" 
d="M503 45q-69 -54 -168 -54q-128 0 -191 59q-84 78 -84 209q0 109 44 180q35 57 97 89t135 32q43 0 86.5 -12.5t67.5 -30.5l-61 -88q-48 28 -90 28q-55 0 -89 -34q-37 -37 -37 -133q0 -114 26 -150q35 -49 104 -49q51 0 99 32zM462 677l-224 -100l-41 74l207 130z" />
    <glyph glyph-name="ccircumflex.sc" horiz-adv-x="533" 
d="M503 45q-69 -54 -168 -54q-128 0 -191 59q-84 78 -84 209q0 109 44 180q35 57 97 89t135 32q43 0 86.5 -12.5t67.5 -30.5l-61 -88q-48 28 -90 28q-55 0 -89 -34q-37 -37 -37 -133q0 -114 26 -150q35 -49 104 -49q51 0 99 32zM518 645l-45 -73l-139 76l-135 -76l-45 73
l180 135z" />
    <glyph glyph-name="cdotaccent.sc" horiz-adv-x="533" 
d="M503 45q-69 -54 -168 -54q-128 0 -191 59q-84 78 -84 209q0 109 44 180q35 57 97 89t135 32q43 0 86.5 -12.5t67.5 -30.5l-61 -88q-48 28 -90 28q-55 0 -89 -34q-37 -37 -37 -133q0 -114 26 -150q35 -49 104 -49q51 0 99 32zM419 672q0 -34 -24.5 -58.5t-58.5 -24.5
t-58 24.5t-24 58.5t24.5 58.5t59.5 24.5q34 0 57.5 -24t23.5 -59z" />
    <glyph glyph-name="ccaron.sc" horiz-adv-x="533" 
d="M503 45q-69 -54 -168 -54q-128 0 -191 59q-84 78 -84 209q0 109 44 180q35 57 97 89t135 32q43 0 86.5 -12.5t67.5 -30.5l-61 -88q-48 28 -90 28q-55 0 -89 -34q-37 -37 -37 -133q0 -114 26 -150q35 -49 104 -49q51 0 99 32zM508 712l-180 -135l-184 135l45 73l139 -76
l135 76z" />
    <glyph glyph-name="dcaron.sc" horiz-adv-x="587" 
d="M537 270q0 -115 -59 -185t-154 -82q-23 -3 -93 -3h-141v548h120q89 0 112 -3q102 -12 158.5 -82.5t56.5 -192.5zM385 258q0 96 -23 142.5t-84 46.5h-50v-341h66q91 0 91 152zM468 712l-180 -135l-184 135l45 73l139 -76l135 76z" />
    <glyph glyph-name="dcroat.sc" horiz-adv-x="587" 
d="M532 270q0 -115 -59 -185t-154 -82q-23 -3 -93 -3h-141v232h-66v89h66v227h120q89 0 112 -3q102 -12 158.5 -82.5t56.5 -192.5zM380 258q0 96 -23 142.5t-84 46.5h-50v-126h106l-23 -89h-83v-126h66q91 0 91 152z" />
    <glyph glyph-name="emacron.sc" horiz-adv-x="464" 
d="M405 617h-294v92h294v-92zM444 0h-354v548h348l-20 -106h-192v-102h161v-107h-160v-122h217v-111z" />
    <glyph glyph-name="edotaccent.sc" horiz-adv-x="464" 
d="M444 0h-354v548h348l-20 -106h-192v-102h161v-107h-160v-122h217v-111zM350 671q0 -35 -24 -59t-59 -24q-34 0 -58 24.5t-24 58.5t24.5 58.5t59.5 24.5q34 0 57.5 -24t23.5 -59z" />
    <glyph glyph-name="eogonek.sc" horiz-adv-x="464" 
d="M465 -174q-62 -27 -111 -27q-47 0 -75 25.5t-28 66.5q0 59 52 109h-218v548h348l-20 -106h-192v-102h161v-107h-160v-122h217v-111q-39 0 -64 -26.5t-25 -57.5q0 -6 2 -14q7 -24 32 -24q23 0 53 15z" />
    <glyph glyph-name="ecaron.sc" horiz-adv-x="464" 
d="M444 0h-354v548h348l-20 -106h-192v-102h161v-107h-160v-122h217v-111zM446 712l-180 -135l-184 135l45 73l139 -76l135 76z" />
    <glyph glyph-name="gcircumflex.sc" horiz-adv-x="612" 
d="M542 46q-101 -51 -210 -51q-138 0 -210 87q-62 74 -62 186q0 131 76 210t203 79q116 0 200 -64l-73 -81q-58 43 -126 43q-71 0 -99 -44t-28 -150q0 -97 30.5 -134.5t94.5 -37.5q26 0 59 12v106h-79l-20 104h244v-265zM519 645l-45 -73l-139 76l-135 -76l-45 73l180 135z
" />
    <glyph glyph-name="gbreve.sc" horiz-adv-x="612" 
d="M542 46q-101 -51 -210 -51q-138 0 -210 87q-62 74 -62 186q0 131 76 210t203 79q116 0 200 -64l-73 -81q-58 43 -126 43q-71 0 -99 -44t-28 -150q0 -97 30.5 -134.5t94.5 -37.5q26 0 59 12v106h-79l-20 104h244v-265zM524 709q-10 -12 -24 -26.5t-41 -39t-59.5 -40
t-62.5 -15.5q-54 0 -108.5 43.5t-81.5 80.5l43 54q71 -68 151 -68q61 0 147 68z" />
    <glyph glyph-name="gdotaccent.sc" horiz-adv-x="612" 
d="M542 46q-101 -51 -210 -51q-138 0 -210 87q-62 74 -62 186q0 131 76 210t203 79q116 0 200 -64l-73 -81q-58 43 -126 43q-71 0 -99 -44t-28 -150q0 -97 30.5 -134.5t94.5 -37.5q26 0 59 12v106h-79l-20 104h244v-265zM420 671q0 -35 -24 -59t-59 -24q-34 0 -58 24.5
t-24 58.5t24.5 58.5t59.5 24.5q34 0 57.5 -24t23.5 -59z" />
    <glyph glyph-name="gcommaaccent.sc" horiz-adv-x="612" 
d="M542 46q-101 -51 -210 -51q-138 0 -210 87q-62 74 -62 186q0 131 76 210t203 79q116 0 200 -64l-73 -81q-58 43 -126 43q-71 0 -99 -44t-28 -150q0 -97 30.5 -134.5t94.5 -37.5q26 0 59 12v106h-79l-20 104h244v-265zM413 -141q0 -53 -35 -94q-33 -41 -90 -56l-43 46
q27 8 43 23t17 31v2q0 5 -2.5 7t-9 5t-10.5 6q-33 19 -33 58q0 29 21.5 49t53.5 20q40 0 64 -26.5t24 -70.5z" />
    <glyph glyph-name="hcircumflex.sc" horiz-adv-x="593" 
d="M513 0h-139v234h-147v-234h-137v548h137v-205h147v205h139v-548zM485 644l-45 -73l-139 76l-135 -76l-45 73l180 135z" />
    <glyph glyph-name="hbar.sc" horiz-adv-x="593" 
d="M508 0h-139v234h-147v-234h-137v384h-80v106h80v58h137v-58h147v58h139v-58h80v-106h-80v-384zM222 343h147v41h-147v-41z" />
    <glyph glyph-name="imacron.sc" horiz-adv-x="311" 
d="M231 0h-141v548h141v-548zM328 617h-314v78h314v-78z" />
    <glyph glyph-name="iogonek.sc" horiz-adv-x="311" 
d="M247 -174q-62 -27 -111 -27q-47 0 -75 25.5t-28 66.5q0 59 52 109v548h141v-548h-5q-39 0 -64 -26.5t-25 -57.5q0 -6 2 -14q7 -24 32 -24q23 0 53 15z" />
    <glyph glyph-name="Idotaccent.sc" horiz-adv-x="311" 
d="M226 0h-141v548h141v-548zM238 671q0 -35 -24 -59t-59 -24q-34 0 -58 24.5t-24 58.5t24.5 58.5t59.5 24.5q34 0 57.5 -24t23.5 -59z" />
    <glyph glyph-name="dotlessi.sc" horiz-adv-x="311" 
d="M226 0h-141v548h141v-548z" />
    <glyph glyph-name="jcircumflex.sc" horiz-adv-x="283" 
d="M231 112q0 -74 -6 -103q-11 -52 -55.5 -90t-95.5 -56l-64 66q54 35 73 73q11 23 11 96v450h137v-436zM343 625l-45 -73l-139 76l-135 -76l-45 73l180 135z" />
    <glyph glyph-name="kcommaaccent.sc" 
d="M580 0h-181l-170 284v-284h-139v548h139v-246l153 246h169l-176 -253zM390 -141q0 -53 -35 -94q-33 -41 -90 -56l-43 46q27 8 43 23t17 31v2q0 5 -2.5 7t-9 5t-10.5 6q-33 19 -33 58q0 29 21.5 49t53.5 20q40 0 64 -26.5t24 -70.5z" />
    <glyph glyph-name="lacute.sc" horiz-adv-x="439" 
d="M439 110l-29 -110h-320v548h138v-438h211zM319 677l-224 -100l-41 74l207 130z" />
    <glyph glyph-name="lcommaaccent.sc" horiz-adv-x="439" 
d="M439 110l-29 -110h-320v548h138v-438h211zM332 -141q0 -53 -35 -94q-33 -41 -90 -56l-43 46q27 8 43 23t17 31v2q0 5 -2.5 7t-9 5t-10.5 6q-33 19 -33 58q0 29 21.5 49t53.5 20q40 0 64 -26.5t24 -70.5z" />
    </font>
</defs>
</svg>
